%TF.GenerationSoftware,KiCad,Pcbnew,(7.0.0)*%
%TF.CreationDate,2023-03-09T23:01:47-06:00*%
%TF.ProjectId,LED Fan Blade,4c454420-4661-46e2-9042-6c6164652e6b,rev?*%
%TF.SameCoordinates,Original*%
%TF.FileFunction,Copper,L4,Bot*%
%TF.FilePolarity,Positive*%
%FSLAX46Y46*%
G04 Gerber Fmt 4.6, Leading zero omitted, Abs format (unit mm)*
G04 Created by KiCad (PCBNEW (7.0.0)) date 2023-03-09 23:01:47*
%MOMM*%
%LPD*%
G01*
G04 APERTURE LIST*
G04 Aperture macros list*
%AMRoundRect*
0 Rectangle with rounded corners*
0 $1 Rounding radius*
0 $2 $3 $4 $5 $6 $7 $8 $9 X,Y pos of 4 corners*
0 Add a 4 corners polygon primitive as box body*
4,1,4,$2,$3,$4,$5,$6,$7,$8,$9,$2,$3,0*
0 Add four circle primitives for the rounded corners*
1,1,$1+$1,$2,$3*
1,1,$1+$1,$4,$5*
1,1,$1+$1,$6,$7*
1,1,$1+$1,$8,$9*
0 Add four rect primitives between the rounded corners*
20,1,$1+$1,$2,$3,$4,$5,0*
20,1,$1+$1,$4,$5,$6,$7,0*
20,1,$1+$1,$6,$7,$8,$9,0*
20,1,$1+$1,$8,$9,$2,$3,0*%
G04 Aperture macros list end*
%TA.AperFunction,ComponentPad*%
%ADD10C,0.900000*%
%TD*%
%TA.AperFunction,ComponentPad*%
%ADD11C,2.000000*%
%TD*%
%TA.AperFunction,ComponentPad*%
%ADD12RoundRect,0.500000X0.000000X-0.600000X0.000000X-0.600000X0.000000X0.600000X0.000000X0.600000X0*%
%TD*%
%TA.AperFunction,ComponentPad*%
%ADD13C,0.400000*%
%TD*%
%TA.AperFunction,ViaPad*%
%ADD14C,0.800000*%
%TD*%
%TA.AperFunction,Conductor*%
%ADD15C,0.150000*%
%TD*%
%TA.AperFunction,Conductor*%
%ADD16C,0.250000*%
%TD*%
G04 APERTURE END LIST*
D10*
%TO.P,LED-Driver1,41,GND*%
%TO.N,GND*%
X115184000Y-76870000D03*
X113384000Y-76870000D03*
X115184000Y-78670000D03*
X113384000Y-78670000D03*
%TD*%
D11*
%TO.P,Power_12V1,1,Pin_1*%
%TO.N,+12V*%
X160782000Y-129540000D03*
%TO.P,Power_12V1,2,Pin_2*%
%TO.N,GND*%
X164317534Y-126004466D03*
%TD*%
D12*
%TO.P,USB-C1,S1,SHIELD*%
%TO.N,Net-(USB-C1-SHIELD)*%
X168426000Y-114994000D03*
X168426000Y-119664000D03*
X179586000Y-114994000D03*
X179586000Y-119674000D03*
%TD*%
D13*
%TO.P,ESP1,28,GND*%
%TO.N,GND*%
X144890500Y-101768000D03*
%TO.P,ESP1,29,GND*%
X145990500Y-101768000D03*
%TO.P,ESP1,30,GND*%
X144340500Y-102318000D03*
%TO.P,ESP1,31,GND*%
X145440500Y-102318000D03*
%TO.P,ESP1,32,GND*%
X146540500Y-102318000D03*
%TO.P,ESP1,33,GND*%
X144890500Y-102868000D03*
%TO.P,ESP1,34,GND*%
X145990500Y-102868000D03*
%TO.P,ESP1,35,GND*%
X144340500Y-103418000D03*
%TO.P,ESP1,36,GND*%
X145440500Y-103418000D03*
%TO.P,ESP1,37,GND*%
X146540500Y-103418000D03*
%TO.P,ESP1,38,GND*%
X144890500Y-103968000D03*
%TO.P,ESP1,39,GND*%
X145990500Y-103968000D03*
%TD*%
D14*
%TO.N,GND*%
X62865000Y-25781000D03*
X117602000Y-82296000D03*
X178943000Y-109982000D03*
X151638000Y-120904000D03*
X158877000Y-122428000D03*
X166243000Y-109728000D03*
%TO.N,+3.3V*%
X127508000Y-104648000D03*
X132461000Y-93726000D03*
X117665500Y-73850500D03*
X149479000Y-112649000D03*
X122809000Y-80391000D03*
X110744000Y-81661000D03*
X54864000Y-25019000D03*
%TO.N,MISO*%
X131572000Y-101346000D03*
X125984000Y-73406000D03*
%TO.N,SS*%
X129413000Y-101854000D03*
X123698000Y-73406000D03*
%TO.N,Hall Sense*%
X161163000Y-95250000D03*
X58928000Y-29718000D03*
%TO.N,VSYNC*%
X128389000Y-77097000D03*
X133858000Y-79756000D03*
%TO.N,SWO<-->LED(0-5)*%
X94615000Y-104902000D03*
X27305000Y-37592000D03*
X78232000Y-88519000D03*
X60833000Y-70993000D03*
X109855000Y-120142000D03*
X44196000Y-54483000D03*
X110744000Y-73533000D03*
%TO.N,SW1<-->LED(6-11)*%
X47625000Y-56261000D03*
X81915000Y-90424000D03*
X107061000Y-73406000D03*
X65151000Y-73787000D03*
X30861000Y-39497000D03*
X112649000Y-121285000D03*
X98298000Y-106934000D03*
%TO.N,SW2<-->LED(12-17)*%
X85344000Y-92202000D03*
X68834000Y-75692000D03*
X102108000Y-108966000D03*
X107061000Y-75565000D03*
X35306000Y-42164000D03*
X116332000Y-123190000D03*
X52070000Y-58928000D03*
%TO.N,SW3<-->LED(18-23)*%
X120015000Y-124841000D03*
X72517000Y-77470000D03*
X107061000Y-77724000D03*
X106045000Y-110871000D03*
X88773000Y-93599000D03*
X39243000Y-44196000D03*
X55626000Y-60706000D03*
%TO.N,SW4<-->LED(24-29)*%
X75692000Y-78740000D03*
X123571000Y-126492000D03*
X42418000Y-45466000D03*
X108839000Y-111887000D03*
X59055000Y-61976000D03*
X92202000Y-95123000D03*
X107188000Y-79883000D03*
%TO.N,SW5<-->LED(30-35)*%
X79375000Y-80518000D03*
X62357000Y-63500000D03*
X96139000Y-97282000D03*
X107315000Y-82296000D03*
X127254000Y-128397000D03*
X112268000Y-113411000D03*
X45847000Y-46863000D03*
%TD*%
D15*
%TO.N,MISO*%
X130810000Y-85344000D02*
X130810000Y-100584000D01*
X125984000Y-73406000D02*
X125984000Y-80518000D01*
X125984000Y-80518000D02*
X130810000Y-85344000D01*
X130810000Y-100584000D02*
X131572000Y-101346000D01*
%TO.N,SS*%
X129286000Y-85344000D02*
X123698000Y-79756000D01*
X123698000Y-79756000D02*
X123698000Y-73406000D01*
X129286000Y-101727000D02*
X129286000Y-85344000D01*
X129413000Y-101854000D02*
X129286000Y-101727000D01*
%TO.N,Hall Sense*%
X66040000Y-29718000D02*
X105537000Y-69215000D01*
X58928000Y-29718000D02*
X66040000Y-29718000D01*
X126238000Y-69215000D02*
X144526000Y-87503000D01*
X144526000Y-87503000D02*
X153416000Y-87503000D01*
X105537000Y-69215000D02*
X126238000Y-69215000D01*
X153416000Y-87503000D02*
X161163000Y-95250000D01*
%TO.N,VSYNC*%
X128389000Y-77097000D02*
X131199000Y-77097000D01*
X131199000Y-77097000D02*
X133858000Y-79756000D01*
D16*
%TO.N,SWO<-->LED(0-5)*%
X60452000Y-70612000D02*
X60325000Y-70612000D01*
X94297500Y-104584500D02*
X78232000Y-88519000D01*
X60325000Y-70612000D02*
X43624500Y-53911500D01*
X94615000Y-104902000D02*
X94297500Y-104584500D01*
X44196000Y-54483000D02*
X43624500Y-53911500D01*
X94297500Y-104584500D02*
X109855000Y-120142000D01*
X103378000Y-70866000D02*
X108077000Y-70866000D01*
X70104000Y-37592000D02*
X103378000Y-70866000D01*
X27305000Y-37592000D02*
X70104000Y-37592000D01*
X108077000Y-70866000D02*
X110744000Y-73533000D01*
X78232000Y-88519000D02*
X60325000Y-70612000D01*
X27305000Y-37592000D02*
X43624500Y-53911500D01*
X60833000Y-70993000D02*
X60452000Y-70612000D01*
%TO.N,SW1<-->LED(6-11)*%
X98107500Y-106743500D02*
X97853500Y-106489500D01*
X81788000Y-90424000D02*
X81153000Y-89789000D01*
X98298000Y-106934000D02*
X98107500Y-106743500D01*
X47625000Y-56261000D02*
X47244000Y-55880000D01*
X103124000Y-73406000D02*
X107061000Y-73406000D01*
X81153000Y-89789000D02*
X65151000Y-73787000D01*
X98298000Y-106934000D02*
X97853500Y-106489500D01*
X98107500Y-106743500D02*
X112649000Y-121285000D01*
X81915000Y-90424000D02*
X81788000Y-90424000D01*
X65151000Y-73787000D02*
X47244000Y-55880000D01*
X69215000Y-39497000D02*
X103124000Y-73406000D01*
X30861000Y-39497000D02*
X47244000Y-55880000D01*
X97853500Y-106489500D02*
X81153000Y-89789000D01*
X30861000Y-39497000D02*
X69215000Y-39497000D01*
%TO.N,SW2<-->LED(12-17)*%
X102108000Y-108966000D02*
X101663500Y-108521500D01*
X52070000Y-58928000D02*
X51562000Y-58420000D01*
X35306000Y-42164000D02*
X51562000Y-58420000D01*
X69469000Y-42164000D02*
X102870000Y-75565000D01*
X68834000Y-75692000D02*
X51562000Y-58420000D01*
X85344000Y-92202000D02*
X68834000Y-75692000D01*
X102870000Y-75565000D02*
X107061000Y-75565000D01*
X101663500Y-108521500D02*
X85344000Y-92202000D01*
X35306000Y-42164000D02*
X69469000Y-42164000D01*
X101663500Y-108521500D02*
X116332000Y-123190000D01*
%TO.N,SW3<-->LED(18-23)*%
X69596000Y-44196000D02*
X102997000Y-77597000D01*
X120015000Y-124841000D02*
X119888000Y-124841000D01*
X88265000Y-93218000D02*
X72009000Y-76962000D01*
X88646000Y-93599000D02*
X88265000Y-93218000D01*
X102997000Y-77597000D02*
X106934000Y-77597000D01*
X105283000Y-110236000D02*
X88265000Y-93218000D01*
X105410000Y-110363000D02*
X119888000Y-124841000D01*
X105410000Y-110363000D02*
X105283000Y-110236000D01*
X106045000Y-110871000D02*
X105918000Y-110871000D01*
X88773000Y-93599000D02*
X88646000Y-93599000D01*
X72517000Y-77470000D02*
X72009000Y-76962000D01*
X106934000Y-77597000D02*
X107061000Y-77724000D01*
X55626000Y-60579000D02*
X55245000Y-60198000D01*
X105918000Y-110871000D02*
X105410000Y-110363000D01*
X72009000Y-76962000D02*
X55245000Y-60198000D01*
X39243000Y-44196000D02*
X69596000Y-44196000D01*
X55626000Y-60706000D02*
X55626000Y-60579000D01*
X105918000Y-110871000D02*
X105283000Y-110236000D01*
X39243000Y-44196000D02*
X55245000Y-60198000D01*
%TO.N,SW4<-->LED(24-29)*%
X91440000Y-94488000D02*
X74866500Y-77914500D01*
X108331000Y-111379000D02*
X123444000Y-126492000D01*
X103251000Y-80010000D02*
X107061000Y-80010000D01*
X107061000Y-80010000D02*
X107188000Y-79883000D01*
X75692000Y-78740000D02*
X74866500Y-77914500D01*
X108839000Y-111887000D02*
X108204000Y-111252000D01*
X59055000Y-61976000D02*
X58928000Y-61976000D01*
X42418000Y-45466000D02*
X58293000Y-61341000D01*
X123571000Y-126492000D02*
X123444000Y-126492000D01*
X74866500Y-77914500D02*
X58293000Y-61341000D01*
X92202000Y-95123000D02*
X92075000Y-95123000D01*
X42418000Y-45466000D02*
X68707000Y-45466000D01*
X92075000Y-95123000D02*
X91440000Y-94488000D01*
X108839000Y-111887000D02*
X108331000Y-111379000D01*
X58928000Y-61976000D02*
X58293000Y-61341000D01*
X108204000Y-111252000D02*
X91440000Y-94488000D01*
X68707000Y-45466000D02*
X103251000Y-80010000D01*
X108331000Y-111379000D02*
X108204000Y-111252000D01*
%TO.N,SW5<-->LED(30-35)*%
X45847000Y-46863000D02*
X67945000Y-46863000D01*
X67945000Y-46863000D02*
X103632000Y-82550000D01*
X96139000Y-97282000D02*
X95694500Y-96837500D01*
X111696500Y-112839500D02*
X111569500Y-112712500D01*
X103632000Y-82550000D02*
X107061000Y-82550000D01*
X79375000Y-80518000D02*
X78740000Y-79883000D01*
X112649000Y-113792000D02*
X111696500Y-112839500D01*
X112268000Y-113411000D02*
X111696500Y-112839500D01*
X45847000Y-46863000D02*
X45847000Y-46990000D01*
X112268000Y-113411000D02*
X112649000Y-113792000D01*
X62357000Y-63500000D02*
X61785500Y-62928500D01*
X111569500Y-112712500D02*
X95694500Y-96837500D01*
X78740000Y-79883000D02*
X61785500Y-62928500D01*
X127254000Y-128397000D02*
X112649000Y-113792000D01*
X45847000Y-46990000D02*
X61785500Y-62928500D01*
X107061000Y-82550000D02*
X107315000Y-82296000D01*
X95694500Y-96837500D02*
X78740000Y-79883000D01*
X112268000Y-113411000D02*
X111569500Y-112712500D01*
%TD*%
M02*
