%TF.GenerationSoftware,KiCad,Pcbnew,(7.0.0)*%
%TF.CreationDate,2023-03-08T22:11:07-06:00*%
%TF.ProjectId,LED Fan Blade,4c454420-4661-46e2-9042-6c6164652e6b,rev?*%
%TF.SameCoordinates,Original*%
%TF.FileFunction,Copper,L1,Top*%
%TF.FilePolarity,Positive*%
%FSLAX46Y46*%
G04 Gerber Fmt 4.6, Leading zero omitted, Abs format (unit mm)*
G04 Created by KiCad (PCBNEW (7.0.0)) date 2023-03-08 22:11:07*
%MOMM*%
%LPD*%
G01*
G04 APERTURE LIST*
G04 Aperture macros list*
%AMRoundRect*
0 Rectangle with rounded corners*
0 $1 Rounding radius*
0 $2 $3 $4 $5 $6 $7 $8 $9 X,Y pos of 4 corners*
0 Add a 4 corners polygon primitive as box body*
4,1,4,$2,$3,$4,$5,$6,$7,$8,$9,$2,$3,0*
0 Add four circle primitives for the rounded corners*
1,1,$1+$1,$2,$3*
1,1,$1+$1,$4,$5*
1,1,$1+$1,$6,$7*
1,1,$1+$1,$8,$9*
0 Add four rect primitives between the rounded corners*
20,1,$1+$1,$2,$3,$4,$5,0*
20,1,$1+$1,$4,$5,$6,$7,0*
20,1,$1+$1,$6,$7,$8,$9,0*
20,1,$1+$1,$8,$9,$2,$3,0*%
G04 Aperture macros list end*
%TA.AperFunction,SMDPad,CuDef*%
%ADD10RoundRect,0.175000X-0.425000X-0.175000X0.425000X-0.175000X0.425000X0.175000X-0.425000X0.175000X0*%
%TD*%
%TA.AperFunction,SMDPad,CuDef*%
%ADD11RoundRect,0.100000X-0.130000X-0.100000X0.130000X-0.100000X0.130000X0.100000X-0.130000X0.100000X0*%
%TD*%
%TA.AperFunction,SMDPad,CuDef*%
%ADD12RoundRect,0.100000X0.100000X-0.130000X0.100000X0.130000X-0.100000X0.130000X-0.100000X-0.130000X0*%
%TD*%
%TA.AperFunction,SMDPad,CuDef*%
%ADD13RoundRect,0.100000X0.130000X0.100000X-0.130000X0.100000X-0.130000X-0.100000X0.130000X-0.100000X0*%
%TD*%
%TA.AperFunction,SMDPad,CuDef*%
%ADD14O,0.200000X0.350000*%
%TD*%
%TA.AperFunction,SMDPad,CuDef*%
%ADD15O,0.350000X0.200000*%
%TD*%
%TA.AperFunction,ComponentPad*%
%ADD16C,0.900000*%
%TD*%
%TA.AperFunction,SMDPad,CuDef*%
%ADD17R,1.800000X1.800000*%
%TD*%
%TA.AperFunction,SMDPad,CuDef*%
%ADD18RoundRect,0.100000X-0.100000X0.130000X-0.100000X-0.130000X0.100000X-0.130000X0.100000X0.130000X0*%
%TD*%
%TA.AperFunction,ComponentPad*%
%ADD19C,2.000000*%
%TD*%
%TA.AperFunction,SMDPad,CuDef*%
%ADD20R,1.000000X0.800000*%
%TD*%
%TA.AperFunction,SMDPad,CuDef*%
%ADD21R,0.250000X1.450000*%
%TD*%
%TA.AperFunction,SMDPad,CuDef*%
%ADD22R,0.300000X1.450000*%
%TD*%
%TA.AperFunction,ComponentPad*%
%ADD23RoundRect,0.500000X0.000000X-0.600000X0.000000X-0.600000X0.000000X0.600000X0.000000X0.600000X0*%
%TD*%
%TA.AperFunction,SMDPad,CuDef*%
%ADD24R,1.500000X0.900000*%
%TD*%
%TA.AperFunction,SMDPad,CuDef*%
%ADD25R,0.700000X0.700000*%
%TD*%
%TA.AperFunction,ComponentPad*%
%ADD26C,0.400000*%
%TD*%
%TA.AperFunction,SMDPad,CuDef*%
%ADD27RoundRect,0.540000X-1.135000X-0.540000X1.135000X-0.540000X1.135000X0.540000X-1.135000X0.540000X0*%
%TD*%
%TA.AperFunction,SMDPad,CuDef*%
%ADD28RoundRect,0.150000X0.150000X-0.350000X0.150000X0.350000X-0.150000X0.350000X-0.150000X-0.350000X0*%
%TD*%
%TA.AperFunction,ViaPad*%
%ADD29C,0.800000*%
%TD*%
%TA.AperFunction,Conductor*%
%ADD30C,0.250000*%
%TD*%
%TA.AperFunction,Conductor*%
%ADD31C,0.150000*%
%TD*%
%TA.AperFunction,Conductor*%
%ADD32C,0.200000*%
%TD*%
%TA.AperFunction,Conductor*%
%ADD33C,0.400000*%
%TD*%
%TA.AperFunction,Conductor*%
%ADD34C,0.750000*%
%TD*%
%TA.AperFunction,Conductor*%
%ADD35C,0.500000*%
%TD*%
G04 APERTURE END LIST*
D10*
%TO.P,LED22,1,Polarity(+)*%
%TO.N,SW3<-->LED(18-23)*%
X94358000Y-89146000D03*
%TO.P,LED22,2,Green(-)*%
%TO.N,CS11*%
X97158000Y-89146000D03*
%TO.P,LED22,3,Blue(-)*%
%TO.N,CS10*%
X97158000Y-90146000D03*
%TO.P,LED22,4,Red(-)*%
%TO.N,CS9*%
X94358000Y-90146000D03*
%TD*%
%TO.P,LED6,1,Polarity(+)*%
%TO.N,SWO<-->LED(0-5)*%
X119628000Y-114046000D03*
%TO.P,LED6,2,Green(-)*%
%TO.N,CS17*%
X122428000Y-114046000D03*
%TO.P,LED6,3,Blue(-)*%
%TO.N,CS16*%
X122428000Y-115046000D03*
%TO.P,LED6,4,Red(-)*%
%TO.N,CS15*%
X119628000Y-115046000D03*
%TD*%
%TO.P,LED12,1,Polarity(+)*%
%TO.N,SW1<-->LED(6-11)*%
X122552000Y-116832000D03*
%TO.P,LED12,2,Green(-)*%
%TO.N,CS17*%
X125352000Y-116832000D03*
%TO.P,LED12,3,Blue(-)*%
%TO.N,CS16*%
X125352000Y-117832000D03*
%TO.P,LED12,4,Red(-)*%
%TO.N,CS15*%
X122552000Y-117832000D03*
%TD*%
D11*
%TO.P,BL:2,1*%
%TO.N,CS7*%
X96454000Y-65786000D03*
%TO.P,BL:2,2*%
%TO.N,Net-(LED-Driver1-CS7)*%
X97094000Y-65786000D03*
%TD*%
D10*
%TO.P,LED17,1,Polarity(+)*%
%TO.N,SW2<-->LED(12-17)*%
X108582000Y-102878000D03*
%TO.P,LED17,2,Green(-)*%
%TO.N,CS14*%
X111382000Y-102878000D03*
%TO.P,LED17,3,Blue(-)*%
%TO.N,CS13*%
X111382000Y-103878000D03*
%TO.P,LED17,4,Red(-)*%
%TO.N,CS12*%
X108582000Y-103878000D03*
%TD*%
%TO.P,LED1,1,Polarity(+)*%
%TO.N,SWO<-->LED(0-5)*%
X35808000Y-30480000D03*
%TO.P,LED1,2,Green(-)*%
%TO.N,CS2*%
X38608000Y-30480000D03*
%TO.P,LED1,3,Blue(-)*%
%TO.N,CS1*%
X38608000Y-31480000D03*
%TO.P,LED1,4,Red(-)*%
%TO.N,CS0*%
X35808000Y-31480000D03*
%TD*%
%TO.P,LED28,1,Polarity(+)*%
%TO.N,SW4<-->LED(24-29)*%
X97276000Y-91948000D03*
%TO.P,LED28,2,Green(-)*%
%TO.N,CS11*%
X100076000Y-91948000D03*
%TO.P,LED28,3,Blue(-)*%
%TO.N,CS10*%
X100076000Y-92948000D03*
%TO.P,LED28,4,Red(-)*%
%TO.N,CS9*%
X97276000Y-92948000D03*
%TD*%
D11*
%TO.P,GR:3,1*%
%TO.N,CS11*%
X107285000Y-89662000D03*
%TO.P,GR:3,2*%
%TO.N,Net-(LED-Driver1-CS11)*%
X107925000Y-89662000D03*
%TD*%
D12*
%TO.P,GR:4,1*%
%TO.N,CS14*%
X115890000Y-95062000D03*
%TO.P,GR:4,2*%
%TO.N,Net-(LED-Driver1-CS14)*%
X115890000Y-94422000D03*
%TD*%
D10*
%TO.P,LED5,1,Polarity(+)*%
%TO.N,SWO<-->LED(0-5)*%
X102994000Y-97528000D03*
%TO.P,LED5,2,Green(-)*%
%TO.N,CS14*%
X105794000Y-97528000D03*
%TO.P,LED5,3,Blue(-)*%
%TO.N,CS13*%
X105794000Y-98528000D03*
%TO.P,LED5,4,Red(-)*%
%TO.N,CS12*%
X102994000Y-98528000D03*
%TD*%
D11*
%TO.P,RD:2,1*%
%TO.N,CS6*%
X96454000Y-64262000D03*
%TO.P,RD:2,2*%
%TO.N,Net-(LED-Driver1-CS6)*%
X97094000Y-64262000D03*
%TD*%
D10*
%TO.P,LED19,1,Polarity(+)*%
%TO.N,SW3<-->LED(18-23)*%
X44444000Y-39116000D03*
%TO.P,LED19,2,Green(-)*%
%TO.N,CS2*%
X47244000Y-39116000D03*
%TO.P,LED19,3,Blue(-)*%
%TO.N,CS1*%
X47244000Y-40116000D03*
%TO.P,LED19,4,Red(-)*%
%TO.N,CS0*%
X44444000Y-40116000D03*
%TD*%
D13*
%TO.P,R6,1*%
%TO.N,+3.3V*%
X120843000Y-77978000D03*
%TO.P,R6,2*%
%TO.N,Net-(LED-Driver1-IFS)*%
X120203000Y-77978000D03*
%TD*%
D10*
%TO.P,LED16,1,Polarity(+)*%
%TO.N,SW2<-->LED(12-17)*%
X91688000Y-86106000D03*
%TO.P,LED16,2,Green(-)*%
%TO.N,CS11*%
X94488000Y-86106000D03*
%TO.P,LED16,3,Blue(-)*%
%TO.N,CS10*%
X94488000Y-87106000D03*
%TO.P,LED16,4,Red(-)*%
%TO.N,CS9*%
X91688000Y-87106000D03*
%TD*%
D13*
%TO.P,L1,1,1*%
%TO.N,Net-(U2-LX)*%
X154239000Y-115443000D03*
%TO.P,L1,2,2*%
%TO.N,+3.3V*%
X153599000Y-115443000D03*
%TD*%
D14*
%TO.P,LED-Driver1,1,CS0*%
%TO.N,Net-(LED-Driver1-CS0)*%
X116083999Y-75519999D03*
%TO.P,LED-Driver1,2,CS1*%
%TO.N,Net-(LED-Driver1-CS1)*%
X115683999Y-75519999D03*
%TO.P,LED-Driver1,3,CS2*%
%TO.N,Net-(LED-Driver1-CS2)*%
X115283999Y-75519999D03*
%TO.P,LED-Driver1,4,CS3*%
%TO.N,Net-(LED-Driver1-CS3)*%
X114883999Y-75519999D03*
%TO.P,LED-Driver1,5,CS4*%
%TO.N,Net-(LED-Driver1-CS4)*%
X114483999Y-75519999D03*
%TO.P,LED-Driver1,6,CS5*%
%TO.N,Net-(LED-Driver1-CS5)*%
X114083999Y-75519999D03*
%TO.P,LED-Driver1,7,CS6*%
%TO.N,Net-(LED-Driver1-CS6)*%
X113683999Y-75519999D03*
%TO.P,LED-Driver1,8,CS7*%
%TO.N,Net-(LED-Driver1-CS7)*%
X113283999Y-75519999D03*
%TO.P,LED-Driver1,9,CS8*%
%TO.N,Net-(LED-Driver1-CS8)*%
X112883999Y-75519999D03*
%TO.P,LED-Driver1,10,SW0*%
%TO.N,SWO<-->LED(0-5)*%
X112483999Y-75519999D03*
D15*
%TO.P,LED-Driver1,11,SW1*%
%TO.N,SW1<-->LED(6-11)*%
X111883999Y-75969999D03*
%TO.P,LED-Driver1,12,SW2*%
%TO.N,SW2<-->LED(12-17)*%
X111883999Y-76369999D03*
%TO.P,LED-Driver1,13,SW3*%
%TO.N,SW3<-->LED(18-23)*%
X111883999Y-76769999D03*
%TO.P,LED-Driver1,14,SW4*%
%TO.N,SW4<-->LED(24-29)*%
X111883999Y-77169999D03*
%TO.P,LED-Driver1,15,SW5*%
%TO.N,SW5<-->LED(30-35)*%
X111883999Y-77569999D03*
%TO.P,LED-Driver1,16,VLED*%
%TO.N,+3.3V*%
X111883999Y-77969999D03*
%TO.P,LED-Driver1,17,SW6*%
%TO.N,unconnected-(LED-Driver1-SW6-Pad17)*%
X111883999Y-78369999D03*
%TO.P,LED-Driver1,18,SW7*%
%TO.N,unconnected-(LED-Driver1-SW7-Pad18)*%
X111883999Y-78769999D03*
%TO.P,LED-Driver1,19,SW8*%
%TO.N,unconnected-(LED-Driver1-SW8-Pad19)*%
X111883999Y-79169999D03*
%TO.P,LED-Driver1,20,SW9*%
%TO.N,unconnected-(LED-Driver1-SW9-Pad20)*%
X111883999Y-79569999D03*
D14*
%TO.P,LED-Driver1,21,SW10*%
%TO.N,unconnected-(LED-Driver1-SW10-Pad21)*%
X112483999Y-80019999D03*
%TO.P,LED-Driver1,22,CS9*%
%TO.N,Net-(LED-Driver1-CS9)*%
X112883999Y-80019999D03*
%TO.P,LED-Driver1,23,CS10*%
%TO.N,Net-(LED-Driver1-CS10)*%
X113283999Y-80019999D03*
%TO.P,LED-Driver1,24,CS11*%
%TO.N,Net-(LED-Driver1-CS11)*%
X113683999Y-80019999D03*
%TO.P,LED-Driver1,25,CS12*%
%TO.N,Net-(LED-Driver1-CS12)*%
X114083999Y-80019999D03*
%TO.P,LED-Driver1,26,CS13*%
%TO.N,Net-(LED-Driver1-CS13)*%
X114483999Y-80019999D03*
%TO.P,LED-Driver1,27,CS14*%
%TO.N,Net-(LED-Driver1-CS14)*%
X114883999Y-80019999D03*
%TO.P,LED-Driver1,28,CS15*%
%TO.N,Net-(LED-Driver1-CS15)*%
X115283999Y-80019999D03*
%TO.P,LED-Driver1,29,CS16*%
%TO.N,Net-(LED-Driver1-CS16)*%
X115683999Y-80019999D03*
%TO.P,LED-Driver1,30,CS17*%
%TO.N,Net-(LED-Driver1-CS17)*%
X116083999Y-80019999D03*
D15*
%TO.P,LED-Driver1,31,AGND*%
%TO.N,GND*%
X116683999Y-79569999D03*
%TO.P,LED-Driver1,32,VCAP*%
%TO.N,Net-(LED-Driver1-VCAP)*%
X116683999Y-79169999D03*
%TO.P,LED-Driver1,33,IFS*%
%TO.N,Net-(LED-Driver1-IFS)*%
X116683999Y-78769999D03*
%TO.P,LED-Driver1,34,VSYNC*%
%TO.N,VSYNC*%
X116683999Y-78369999D03*
%TO.P,LED-Driver1,35,SCL_SCLK*%
%TO.N,SCLK*%
X116683999Y-77969999D03*
%TO.P,LED-Driver1,36,SDA_MOSI*%
%TO.N,MOSI*%
X116683999Y-77569999D03*
%TO.P,LED-Driver1,37,ADDR0_MISO*%
%TO.N,MISO*%
X116683999Y-77169999D03*
%TO.P,LED-Driver1,38,ADDR1_SS*%
%TO.N,SS*%
X116683999Y-76769999D03*
%TO.P,LED-Driver1,39,VIO_EN*%
%TO.N,VIO_EN*%
X116683999Y-76369999D03*
%TO.P,LED-Driver1,40,VCC*%
%TO.N,+3.3V*%
X116683999Y-75969999D03*
D16*
%TO.P,LED-Driver1,41,GND*%
%TO.N,GND*%
X115184000Y-76870000D03*
D17*
X115183999Y-76869999D03*
D16*
X113384000Y-76870000D03*
D17*
X113383999Y-76869999D03*
D16*
X115184000Y-78670000D03*
D17*
X115183999Y-78669999D03*
D16*
X113384000Y-78670000D03*
D17*
X113383999Y-78669999D03*
%TD*%
D11*
%TO.P,BL:3,1*%
%TO.N,CS10*%
X107310000Y-87884000D03*
%TO.P,BL:3,2*%
%TO.N,Net-(LED-Driver1-CS10)*%
X107950000Y-87884000D03*
%TD*%
D12*
%TO.P,BL:5,1*%
%TO.N,CS16*%
X119888000Y-95128000D03*
%TO.P,BL:5,2*%
%TO.N,Net-(LED-Driver1-CS16)*%
X119888000Y-94488000D03*
%TD*%
D18*
%TO.P,R3,1*%
%TO.N,GND*%
X173101000Y-110551000D03*
%TO.P,R3,2*%
%TO.N,Net-(USB-C1-CC1)*%
X173101000Y-111191000D03*
%TD*%
%TO.P,Cin1,1*%
%TO.N,+12V*%
X157856000Y-118425000D03*
%TO.P,Cin1,2*%
%TO.N,GND*%
X157856000Y-119065000D03*
%TD*%
D10*
%TO.P,LED21,1,Polarity(+)*%
%TO.N,SW3<-->LED(18-23)*%
X77972000Y-72390000D03*
%TO.P,LED21,2,Green(-)*%
%TO.N,CS8*%
X80772000Y-72390000D03*
%TO.P,LED21,3,Blue(-)*%
%TO.N,CS7*%
X80772000Y-73390000D03*
%TO.P,LED21,4,Red(-)*%
%TO.N,CS6*%
X77972000Y-73390000D03*
%TD*%
D12*
%TO.P,BL:4,1*%
%TO.N,CS13*%
X114554000Y-95062000D03*
%TO.P,BL:4,2*%
%TO.N,Net-(LED-Driver1-CS13)*%
X114554000Y-94422000D03*
%TD*%
D10*
%TO.P,LED13,1,Polarity(+)*%
%TO.N,SW2<-->LED(12-17)*%
X41396000Y-36322000D03*
%TO.P,LED13,2,Green(-)*%
%TO.N,CS2*%
X44196000Y-36322000D03*
%TO.P,LED13,3,Blue(-)*%
%TO.N,CS1*%
X44196000Y-37322000D03*
%TO.P,LED13,4,Red(-)*%
%TO.N,CS0*%
X41396000Y-37322000D03*
%TD*%
%TO.P,LED30,1,Polarity(+)*%
%TO.N,SW4<-->LED(24-29)*%
X130680000Y-125214000D03*
%TO.P,LED30,2,Green(-)*%
%TO.N,CS17*%
X133480000Y-125214000D03*
%TO.P,LED30,3,Blue(-)*%
%TO.N,CS16*%
X133480000Y-126214000D03*
%TO.P,LED30,4,Red(-)*%
%TO.N,CS15*%
X130680000Y-126214000D03*
%TD*%
D19*
%TO.P,J1,1,Pin_1*%
%TO.N,+12V*%
X160782000Y-129540000D03*
%TO.P,J1,2,Pin_2*%
%TO.N,GND*%
X164317534Y-126004466D03*
%TD*%
D10*
%TO.P,LED14,1,Polarity(+)*%
%TO.N,SW2<-->LED(12-17)*%
X58414000Y-52832000D03*
%TO.P,LED14,2,Green(-)*%
%TO.N,CS5*%
X61214000Y-52832000D03*
%TO.P,LED14,3,Blue(-)*%
%TO.N,CS4*%
X61214000Y-53832000D03*
%TO.P,LED14,4,Red(-)*%
%TO.N,CS3*%
X58414000Y-53832000D03*
%TD*%
%TO.P,LED35,1,Polarity(+)*%
%TO.N,SW5<-->LED(30-35)*%
X116834000Y-111252000D03*
%TO.P,LED35,2,Green(-)*%
%TO.N,CS14*%
X119634000Y-111252000D03*
%TO.P,LED35,3,Blue(-)*%
%TO.N,CS13*%
X119634000Y-112252000D03*
%TO.P,LED35,4,Red(-)*%
%TO.N,CS12*%
X116834000Y-112252000D03*
%TD*%
D11*
%TO.P,R2,1*%
%TO.N,GND*%
X138110000Y-111252000D03*
%TO.P,R2,2*%
%TO.N,Net-(R2-Pad2)*%
X138750000Y-111252000D03*
%TD*%
D10*
%TO.P,LED26,1,Polarity(+)*%
%TO.N,SW4<-->LED(24-29)*%
X64002000Y-58420000D03*
%TO.P,LED26,2,Green(-)*%
%TO.N,CS5*%
X66802000Y-58420000D03*
%TO.P,LED26,3,Blue(-)*%
%TO.N,CS4*%
X66802000Y-59420000D03*
%TO.P,LED26,4,Red(-)*%
%TO.N,CS3*%
X64002000Y-59420000D03*
%TD*%
D11*
%TO.P,R7,1*%
%TO.N,+3.3V*%
X153726000Y-122428000D03*
%TO.P,R7,2*%
%TO.N,Net-(U2-FB)*%
X154366000Y-122428000D03*
%TD*%
D10*
%TO.P,LED25,1,Polarity(+)*%
%TO.N,SW4<-->LED(24-29)*%
X47238000Y-41910000D03*
%TO.P,LED25,2,Green(-)*%
%TO.N,CS2*%
X50038000Y-41910000D03*
%TO.P,LED25,3,Blue(-)*%
%TO.N,CS1*%
X50038000Y-42910000D03*
%TO.P,LED25,4,Red(-)*%
%TO.N,CS0*%
X47238000Y-42910000D03*
%TD*%
%TO.P,LED11,1,Polarity(+)*%
%TO.N,SW1<-->LED(6-11)*%
X105788000Y-100322000D03*
%TO.P,LED11,2,Green(-)*%
%TO.N,CS14*%
X108588000Y-100322000D03*
%TO.P,LED11,3,Blue(-)*%
%TO.N,CS13*%
X108588000Y-101322000D03*
%TO.P,LED11,4,Red(-)*%
%TO.N,CS12*%
X105788000Y-101322000D03*
%TD*%
D11*
%TO.P,GR:2,1*%
%TO.N,CS8*%
X96454000Y-67310000D03*
%TO.P,GR:2,2*%
%TO.N,Net-(LED-Driver1-CS8)*%
X97094000Y-67310000D03*
%TD*%
D10*
%TO.P,LED2,1,Polarity(+)*%
%TO.N,SWO<-->LED(0-5)*%
X52826000Y-47244000D03*
%TO.P,LED2,2,Green(-)*%
%TO.N,CS5*%
X55626000Y-47244000D03*
%TO.P,LED2,3,Blue(-)*%
%TO.N,CS4*%
X55626000Y-48244000D03*
%TO.P,LED2,4,Red(-)*%
%TO.N,CS3*%
X52826000Y-48244000D03*
%TD*%
D11*
%TO.P,RD:3,1*%
%TO.N,CS9*%
X107310000Y-86106000D03*
%TO.P,RD:3,2*%
%TO.N,Net-(LED-Driver1-CS9)*%
X107950000Y-86106000D03*
%TD*%
D20*
%TO.P,U1,1,VCC*%
%TO.N,+3.3V*%
X57940499Y-24195999D03*
%TO.P,U1,2,GND*%
%TO.N,GND*%
X60340499Y-25145999D03*
%TO.P,U1,3,OUT*%
%TO.N,Hall Sense*%
X57940499Y-26095999D03*
%TD*%
D21*
%TO.P,USB-C1,A1,GND*%
%TO.N,GND*%
X170630999Y-113533999D03*
%TO.P,USB-C1,A4,VBUS*%
%TO.N,Net-(R9-Pad2)*%
X171430999Y-113533999D03*
%TO.P,USB-C1,A5,CC1*%
%TO.N,Net-(USB-C1-CC1)*%
X172755999Y-113533999D03*
%TO.P,USB-C1,A6,D+*%
%TO.N,D+*%
X173755999Y-113533999D03*
%TO.P,USB-C1,A7,D-*%
%TO.N,D-*%
X174255999Y-113533999D03*
%TO.P,USB-C1,A8,SBU1*%
%TO.N,unconnected-(USB-C1-SBU1-PadA8)*%
X175255999Y-113533999D03*
%TO.P,USB-C1,A9,VBUS*%
%TO.N,Net-(R9-Pad2)*%
X176580999Y-113533999D03*
%TO.P,USB-C1,A12,GND*%
%TO.N,GND*%
X177380999Y-113533999D03*
D22*
%TO.P,USB-C1,B1,GND*%
X177105999Y-113533999D03*
%TO.P,USB-C1,B4,VBUS*%
%TO.N,Net-(R9-Pad2)*%
X176305999Y-113533999D03*
D21*
%TO.P,USB-C1,B5,CC2*%
%TO.N,Net-(USB-C1-CC2)*%
X175755999Y-113533999D03*
%TO.P,USB-C1,B6,D+*%
%TO.N,D+*%
X174755999Y-113533999D03*
%TO.P,USB-C1,B7,D-*%
%TO.N,D-*%
X173255999Y-113533999D03*
%TO.P,USB-C1,B8,SBU2*%
%TO.N,unconnected-(USB-C1-SBU2-PadB8)*%
X172255999Y-113533999D03*
D22*
%TO.P,USB-C1,B9,VBUS*%
%TO.N,Net-(R9-Pad2)*%
X171705999Y-113533999D03*
%TO.P,USB-C1,B12,GND*%
%TO.N,GND*%
X170905999Y-113533999D03*
D23*
%TO.P,USB-C1,S1,SHIELD*%
%TO.N,Net-(USB-C1-SHIELD)*%
X168426000Y-114994000D03*
X168426000Y-119664000D03*
X179586000Y-114994000D03*
X179586000Y-119674000D03*
%TD*%
D10*
%TO.P,LED27,1,Polarity(+)*%
%TO.N,SW4<-->LED(24-29)*%
X80766000Y-75184000D03*
%TO.P,LED27,2,Green(-)*%
%TO.N,CS8*%
X83566000Y-75184000D03*
%TO.P,LED27,3,Blue(-)*%
%TO.N,CS7*%
X83566000Y-76184000D03*
%TO.P,LED27,4,Red(-)*%
%TO.N,CS6*%
X80766000Y-76184000D03*
%TD*%
D24*
%TO.P,ESP1,1,3V3*%
%TO.N,+3.3V*%
X135730499Y-96667999D03*
%TO.P,ESP1,2,EN*%
X135730499Y-98167999D03*
%TO.P,ESP1,3,IO4*%
%TO.N,MOSI*%
X135730499Y-99667999D03*
%TO.P,ESP1,4,IO5*%
%TO.N,SCLK*%
X135730499Y-101167999D03*
%TO.P,ESP1,5,IO6*%
%TO.N,MISO*%
X135730499Y-102667999D03*
%TO.P,ESP1,6,IO7*%
%TO.N,SS*%
X135730499Y-104167999D03*
%TO.P,ESP1,7,IO8*%
%TO.N,Net-(ESP1-IO8)*%
X135730499Y-105667999D03*
%TO.P,ESP1,8,IO9*%
%TO.N,Net-(ESP1-IO9)*%
X135730499Y-107167999D03*
%TO.P,ESP1,9,GND*%
%TO.N,GND*%
X135730499Y-108667999D03*
%TO.P,ESP1,10,IO10*%
%TO.N,unconnected-(ESP1-IO10-Pad10)*%
X153230499Y-108667999D03*
%TO.P,ESP1,11,RXD*%
%TO.N,unconnected-(ESP1-RXD-Pad11)*%
X153230499Y-107167999D03*
%TO.P,ESP1,12,TXD*%
%TO.N,unconnected-(ESP1-TXD-Pad12)*%
X153230499Y-105667999D03*
%TO.P,ESP1,13,IO18*%
%TO.N,D-*%
X153230499Y-104167999D03*
%TO.P,ESP1,14,IO19*%
%TO.N,D+*%
X153230499Y-102667999D03*
%TO.P,ESP1,15,IO3*%
%TO.N,Hall Sense*%
X153230499Y-101167999D03*
%TO.P,ESP1,16,IO2*%
%TO.N,VIO_EN*%
X153230499Y-99667999D03*
%TO.P,ESP1,17,IO1*%
%TO.N,VSYNC*%
X153230499Y-98167999D03*
%TO.P,ESP1,18,IO0*%
%TO.N,unconnected-(ESP1-IO0-Pad18)*%
X153230499Y-96667999D03*
D25*
%TO.P,ESP1,19,GND*%
%TO.N,GND*%
X144340499Y-101767999D03*
%TO.P,ESP1,20,GND*%
X145440499Y-101767999D03*
%TO.P,ESP1,21,GND*%
X146540499Y-101767999D03*
%TO.P,ESP1,22,GND*%
X144340499Y-102867999D03*
%TO.P,ESP1,23,GND*%
X145440499Y-102867999D03*
%TO.P,ESP1,24,GND*%
X146540499Y-102867999D03*
%TO.P,ESP1,25,GND*%
X144340499Y-103967999D03*
%TO.P,ESP1,26,GND*%
X145440499Y-103967999D03*
%TO.P,ESP1,27,GND*%
X146540499Y-103967999D03*
D26*
%TO.P,ESP1,28,GND*%
X144890500Y-101768000D03*
%TO.P,ESP1,29,GND*%
X145990500Y-101768000D03*
%TO.P,ESP1,30,GND*%
X144340500Y-102318000D03*
%TO.P,ESP1,31,GND*%
X145440500Y-102318000D03*
%TO.P,ESP1,32,GND*%
X146540500Y-102318000D03*
%TO.P,ESP1,33,GND*%
X144890500Y-102868000D03*
%TO.P,ESP1,34,GND*%
X145990500Y-102868000D03*
%TO.P,ESP1,35,GND*%
X144340500Y-103418000D03*
%TO.P,ESP1,36,GND*%
X145440500Y-103418000D03*
%TO.P,ESP1,37,GND*%
X146540500Y-103418000D03*
%TO.P,ESP1,38,GND*%
X144890500Y-103968000D03*
%TO.P,ESP1,39,GND*%
X145990500Y-103968000D03*
%TD*%
D11*
%TO.P,RD:0,1*%
%TO.N,CS0*%
X91791000Y-52578000D03*
%TO.P,RD:0,2*%
%TO.N,Net-(LED-Driver1-CS0)*%
X92431000Y-52578000D03*
%TD*%
D10*
%TO.P,LED23,1,Polarity(+)*%
%TO.N,SW3<-->LED(18-23)*%
X111376000Y-105910000D03*
%TO.P,LED23,2,Green(-)*%
%TO.N,CS14*%
X114176000Y-105910000D03*
%TO.P,LED23,3,Blue(-)*%
%TO.N,CS13*%
X114176000Y-106910000D03*
%TO.P,LED23,4,Red(-)*%
%TO.N,CS12*%
X111376000Y-106910000D03*
%TD*%
%TO.P,LED9,1,Polarity(+)*%
%TO.N,SW1<-->LED(6-11)*%
X72384000Y-66802000D03*
%TO.P,LED9,2,Green(-)*%
%TO.N,CS8*%
X75184000Y-66802000D03*
%TO.P,LED9,3,Blue(-)*%
%TO.N,CS7*%
X75184000Y-67802000D03*
%TO.P,LED9,4,Red(-)*%
%TO.N,CS6*%
X72384000Y-67802000D03*
%TD*%
D18*
%TO.P,Cout1,1*%
%TO.N,+3.3V*%
X153411000Y-117536000D03*
%TO.P,Cout1,2*%
%TO.N,GND*%
X153411000Y-118176000D03*
%TD*%
D10*
%TO.P,LED24,1,Polarity(+)*%
%TO.N,SW3<-->LED(18-23)*%
X128010000Y-122428000D03*
%TO.P,LED24,2,Green(-)*%
%TO.N,CS17*%
X130810000Y-122428000D03*
%TO.P,LED24,3,Blue(-)*%
%TO.N,CS16*%
X130810000Y-123428000D03*
%TO.P,LED24,4,Red(-)*%
%TO.N,CS15*%
X128010000Y-123428000D03*
%TD*%
%TO.P,LED15,1,Polarity(+)*%
%TO.N,SW2<-->LED(12-17)*%
X75178000Y-69596000D03*
%TO.P,LED15,2,Green(-)*%
%TO.N,CS8*%
X77978000Y-69596000D03*
%TO.P,LED15,3,Blue(-)*%
%TO.N,CS7*%
X77978000Y-70596000D03*
%TO.P,LED15,4,Red(-)*%
%TO.N,CS6*%
X75178000Y-70596000D03*
%TD*%
%TO.P,LED10,1,Polarity(+)*%
%TO.N,SW1<-->LED(6-11)*%
X89024000Y-83558000D03*
%TO.P,LED10,2,Green(-)*%
%TO.N,CS11*%
X91824000Y-83558000D03*
%TO.P,LED10,3,Blue(-)*%
%TO.N,CS10*%
X91824000Y-84558000D03*
%TO.P,LED10,4,Red(-)*%
%TO.N,CS9*%
X89024000Y-84558000D03*
%TD*%
D18*
%TO.P,R9,1*%
%TO.N,GND*%
X171704000Y-111440000D03*
%TO.P,R9,2*%
%TO.N,Net-(R9-Pad2)*%
X171704000Y-112080000D03*
%TD*%
D10*
%TO.P,LED18,1,Polarity(+)*%
%TO.N,SW2<-->LED(12-17)*%
X125346000Y-119642000D03*
%TO.P,LED18,2,Green(-)*%
%TO.N,CS17*%
X128146000Y-119642000D03*
%TO.P,LED18,3,Blue(-)*%
%TO.N,CS16*%
X128146000Y-120642000D03*
%TO.P,LED18,4,Red(-)*%
%TO.N,CS15*%
X125346000Y-120642000D03*
%TD*%
%TO.P,LED34,1,Polarity(+)*%
%TO.N,SW5<-->LED(30-35)*%
X100200000Y-94750000D03*
%TO.P,LED34,2,Green(-)*%
%TO.N,CS11*%
X103000000Y-94750000D03*
%TO.P,LED34,3,Blue(-)*%
%TO.N,CS10*%
X103000000Y-95750000D03*
%TO.P,LED34,4,Red(-)*%
%TO.N,CS9*%
X100200000Y-95750000D03*
%TD*%
D12*
%TO.P,RD:5,1*%
%TO.N,CS15*%
X118618000Y-95153000D03*
%TO.P,RD:5,2*%
%TO.N,Net-(LED-Driver1-CS15)*%
X118618000Y-94513000D03*
%TD*%
%TO.P,RD:4,1*%
%TO.N,CS12*%
X113096000Y-95062000D03*
%TO.P,RD:4,2*%
%TO.N,Net-(LED-Driver1-CS12)*%
X113096000Y-94422000D03*
%TD*%
D13*
%TO.P,R1,1*%
%TO.N,Net-(USB-C1-SHIELD)*%
X180078000Y-112472500D03*
%TO.P,R1,2*%
%TO.N,GND*%
X179438000Y-112472500D03*
%TD*%
D10*
%TO.P,LED31,1,Polarity(+)*%
%TO.N,SW5<-->LED(30-35)*%
X50032000Y-44704000D03*
%TO.P,LED31,2,Green(-)*%
%TO.N,CS2*%
X52832000Y-44704000D03*
%TO.P,LED31,3,Blue(-)*%
%TO.N,CS1*%
X52832000Y-45704000D03*
%TO.P,LED31,4,Red(-)*%
%TO.N,CS0*%
X50032000Y-45704000D03*
%TD*%
D11*
%TO.P,BL:0,1*%
%TO.N,CS1*%
X91755000Y-54102000D03*
%TO.P,BL:0,2*%
%TO.N,Net-(LED-Driver1-CS1)*%
X92395000Y-54102000D03*
%TD*%
D10*
%TO.P,LED20,1,Polarity(+)*%
%TO.N,SW3<-->LED(18-23)*%
X61208000Y-55626000D03*
%TO.P,LED20,2,Green(-)*%
%TO.N,CS5*%
X64008000Y-55626000D03*
%TO.P,LED20,3,Blue(-)*%
%TO.N,CS4*%
X64008000Y-56626000D03*
%TO.P,LED20,4,Red(-)*%
%TO.N,CS3*%
X61208000Y-56626000D03*
%TD*%
D11*
%TO.P,CB1,1*%
%TO.N,Net-(U2-BS)*%
X154234000Y-116459000D03*
%TO.P,CB1,2*%
%TO.N,Net-(U2-LX)*%
X154874000Y-116459000D03*
%TD*%
D10*
%TO.P,LED4,1,Polarity(+)*%
%TO.N,SWO<-->LED(0-5)*%
X86354000Y-80780000D03*
%TO.P,LED4,2,Green(-)*%
%TO.N,CS11*%
X89154000Y-80780000D03*
%TO.P,LED4,3,Blue(-)*%
%TO.N,CS10*%
X89154000Y-81780000D03*
%TO.P,LED4,4,Red(-)*%
%TO.N,CS9*%
X86354000Y-81780000D03*
%TD*%
%TO.P,LED8,1,Polarity(+)*%
%TO.N,SW1<-->LED(6-11)*%
X55620000Y-50038000D03*
%TO.P,LED8,2,Green(-)*%
%TO.N,CS5*%
X58420000Y-50038000D03*
%TO.P,LED8,3,Blue(-)*%
%TO.N,CS4*%
X58420000Y-51038000D03*
%TO.P,LED8,4,Red(-)*%
%TO.N,CS3*%
X55620000Y-51038000D03*
%TD*%
D11*
%TO.P,R8,1*%
%TO.N,Net-(U2-FB)*%
X155631000Y-122428000D03*
%TO.P,R8,2*%
%TO.N,GND*%
X156271000Y-122428000D03*
%TD*%
%TO.P,C4,1*%
%TO.N,+3.3V*%
X154615000Y-123952000D03*
%TO.P,C4,2*%
%TO.N,Net-(U2-FB)*%
X155255000Y-123952000D03*
%TD*%
D27*
%TO.P,SW1,1,1*%
%TO.N,Net-(ESP1-IO9)*%
X133378000Y-115824000D03*
%TO.P,SW1,2,2*%
%TO.N,Net-(R2-Pad2)*%
X143228000Y-115824000D03*
%TD*%
D10*
%TO.P,LED32,1,Polarity(+)*%
%TO.N,SW5<-->LED(30-35)*%
X66796000Y-61214000D03*
%TO.P,LED32,2,Green(-)*%
%TO.N,CS5*%
X69596000Y-61214000D03*
%TO.P,LED32,3,Blue(-)*%
%TO.N,CS4*%
X69596000Y-62214000D03*
%TO.P,LED32,4,Red(-)*%
%TO.N,CS3*%
X66796000Y-62214000D03*
%TD*%
D18*
%TO.P,CapVCAP1,1*%
%TO.N,Net-(LED-Driver1-VCAP)*%
X119380000Y-79436000D03*
%TO.P,CapVCAP1,2*%
%TO.N,GND*%
X119380000Y-80076000D03*
%TD*%
D10*
%TO.P,LED33,1,Polarity(+)*%
%TO.N,SW5<-->LED(30-35)*%
X83560000Y-77978000D03*
%TO.P,LED33,2,Green(-)*%
%TO.N,CS8*%
X86360000Y-77978000D03*
%TO.P,LED33,3,Blue(-)*%
%TO.N,CS7*%
X86360000Y-78978000D03*
%TO.P,LED33,4,Red(-)*%
%TO.N,CS6*%
X83560000Y-78978000D03*
%TD*%
%TO.P,LED3,1,Polarity(+)*%
%TO.N,SWO<-->LED(0-5)*%
X69590000Y-64008000D03*
%TO.P,LED3,2,Green(-)*%
%TO.N,CS8*%
X72390000Y-64008000D03*
%TO.P,LED3,3,Blue(-)*%
%TO.N,CS7*%
X72390000Y-65008000D03*
%TO.P,LED3,4,Red(-)*%
%TO.N,CS6*%
X69590000Y-65008000D03*
%TD*%
%TO.P,LED36,1,Polarity(+)*%
%TO.N,SW5<-->LED(30-35)*%
X133474000Y-128008000D03*
%TO.P,LED36,2,Green(-)*%
%TO.N,CS17*%
X136274000Y-128008000D03*
%TO.P,LED36,3,Blue(-)*%
%TO.N,CS16*%
X136274000Y-129008000D03*
%TO.P,LED36,4,Red(-)*%
%TO.N,CS15*%
X133474000Y-129008000D03*
%TD*%
D11*
%TO.P,GR:1,1*%
%TO.N,CS5*%
X94742000Y-61976000D03*
%TO.P,GR:1,2*%
%TO.N,Net-(LED-Driver1-CS5)*%
X95382000Y-61976000D03*
%TD*%
%TO.P,BL:1,1*%
%TO.N,CS4*%
X94676000Y-59944000D03*
%TO.P,BL:1,2*%
%TO.N,Net-(LED-Driver1-CS4)*%
X95316000Y-59944000D03*
%TD*%
D18*
%TO.P,R4,1*%
%TO.N,GND*%
X175764000Y-110928000D03*
%TO.P,R4,2*%
%TO.N,Net-(USB-C1-CC2)*%
X175764000Y-111568000D03*
%TD*%
D11*
%TO.P,GR:0,1*%
%TO.N,CS2*%
X91755000Y-55499000D03*
%TO.P,GR:0,2*%
%TO.N,Net-(LED-Driver1-CS2)*%
X92395000Y-55499000D03*
%TD*%
D10*
%TO.P,LED7,1,Polarity(+)*%
%TO.N,SW1<-->LED(6-11)*%
X38602000Y-33274000D03*
%TO.P,LED7,2,Green(-)*%
%TO.N,CS2*%
X41402000Y-33274000D03*
%TO.P,LED7,3,Blue(-)*%
%TO.N,CS1*%
X41402000Y-34274000D03*
%TO.P,LED7,4,Red(-)*%
%TO.N,CS0*%
X38602000Y-34274000D03*
%TD*%
D12*
%TO.P,R5,1*%
%TO.N,Net-(ESP1-IO8)*%
X131446500Y-105624000D03*
%TO.P,R5,2*%
%TO.N,+3.3V*%
X131446500Y-104984000D03*
%TD*%
%TO.P,GR:5,1*%
%TO.N,CS17*%
X121158000Y-95153000D03*
%TO.P,GR:5,2*%
%TO.N,Net-(LED-Driver1-CS17)*%
X121158000Y-94513000D03*
%TD*%
D10*
%TO.P,LED29,1,Polarity(+)*%
%TO.N,SW4<-->LED(24-29)*%
X114040000Y-108458000D03*
%TO.P,LED29,2,Green(-)*%
%TO.N,CS14*%
X116840000Y-108458000D03*
%TO.P,LED29,3,Blue(-)*%
%TO.N,CS13*%
X116840000Y-109458000D03*
%TO.P,LED29,4,Red(-)*%
%TO.N,CS12*%
X114040000Y-109458000D03*
%TD*%
D28*
%TO.P,U2,1,FB*%
%TO.N,Net-(U2-FB)*%
X154813000Y-120015000D03*
%TO.P,U2,2,EN*%
%TO.N,+12V*%
X155763000Y-120015000D03*
%TO.P,U2,3,GND*%
%TO.N,GND*%
X156713000Y-120015000D03*
%TO.P,U2,4,IN*%
%TO.N,+12V*%
X156713000Y-117615000D03*
%TO.P,U2,5,LX*%
%TO.N,Net-(U2-LX)*%
X155763000Y-117615000D03*
%TO.P,U2,6,BS*%
%TO.N,Net-(U2-BS)*%
X154813000Y-117615000D03*
%TD*%
D11*
%TO.P,RD:1,1*%
%TO.N,CS3*%
X94610000Y-58166000D03*
%TO.P,RD:1,2*%
%TO.N,Net-(LED-Driver1-CS3)*%
X95250000Y-58166000D03*
%TD*%
D29*
%TO.N,GND*%
X62865000Y-25781000D03*
X118618000Y-82042000D03*
X179250000Y-110857500D03*
X152522000Y-119761000D03*
X159761000Y-120142000D03*
X169545000Y-110871000D03*
%TO.N,+3.3V*%
X129540000Y-105029000D03*
X132461000Y-93726000D03*
X117665500Y-73850500D03*
X150744000Y-115570000D03*
X122174000Y-79502000D03*
X110744000Y-81661000D03*
X54864000Y-25019000D03*
%TO.N,MISO*%
X131572000Y-101346000D03*
X125984000Y-73406000D03*
%TO.N,SS*%
X129413000Y-101854000D03*
X123698000Y-73406000D03*
%TO.N,Hall Sense*%
X161163000Y-95250000D03*
X58928000Y-29718000D03*
%TO.N,VSYNC*%
X128389000Y-77097000D03*
X133858000Y-79756000D03*
%TO.N,SWO<-->LED(0-5)*%
X94615000Y-104902000D03*
X27305000Y-37592000D03*
X78232000Y-88519000D03*
X60833000Y-70993000D03*
X109855000Y-120142000D03*
X44196000Y-54483000D03*
X110744000Y-73533000D03*
%TO.N,SW1<-->LED(6-11)*%
X47625000Y-56261000D03*
X81915000Y-90424000D03*
X107061000Y-73406000D03*
X65151000Y-73787000D03*
X30861000Y-39497000D03*
X112649000Y-121285000D03*
X98298000Y-106934000D03*
%TO.N,SW2<-->LED(12-17)*%
X85344000Y-92202000D03*
X68834000Y-75692000D03*
X102108000Y-108966000D03*
X107061000Y-75565000D03*
X35306000Y-42164000D03*
X116332000Y-123190000D03*
X52070000Y-58928000D03*
%TO.N,SW3<-->LED(18-23)*%
X120015000Y-124841000D03*
X72517000Y-77470000D03*
X107061000Y-77724000D03*
X106045000Y-110871000D03*
X88773000Y-93599000D03*
X39243000Y-44196000D03*
X55626000Y-60706000D03*
%TO.N,SW4<-->LED(24-29)*%
X75692000Y-78740000D03*
X123571000Y-126492000D03*
X42418000Y-45466000D03*
X108839000Y-111887000D03*
X59055000Y-61976000D03*
X92202000Y-95123000D03*
X107188000Y-79883000D03*
%TO.N,SW5<-->LED(30-35)*%
X79375000Y-80518000D03*
X62357000Y-63500000D03*
X96139000Y-97282000D03*
X107315000Y-82296000D03*
X127254000Y-128397000D03*
X112268000Y-113411000D03*
X45847000Y-46863000D03*
%TD*%
D30*
%TO.N,CS1*%
X88326000Y-50673000D02*
X91755000Y-54102000D01*
X50038000Y-42910000D02*
X51800000Y-42910000D01*
X37703000Y-30106177D02*
X38091177Y-29718000D01*
X51927000Y-45077823D02*
X52553177Y-45704000D01*
X52553177Y-45704000D02*
X52832000Y-45704000D01*
X38091177Y-29718000D02*
X46101000Y-29718000D01*
X47244000Y-40116000D02*
X49006000Y-40116000D01*
X46965177Y-40116000D02*
X47244000Y-40116000D01*
X43164000Y-34274000D02*
X43291000Y-34401000D01*
X46317356Y-39468179D02*
X46965177Y-40116000D01*
X37703000Y-30853823D02*
X37703000Y-30106177D01*
X67056000Y-50673000D02*
X88326000Y-50673000D01*
X43291000Y-36941000D02*
X43672000Y-37322000D01*
X41402000Y-34274000D02*
X43164000Y-34274000D01*
X41123177Y-34274000D02*
X41402000Y-34274000D01*
X43291000Y-34401000D02*
X43291000Y-36941000D01*
X51800000Y-42910000D02*
X51927000Y-43037000D01*
X49006000Y-40116000D02*
X49022000Y-40132000D01*
X44196000Y-37322000D02*
X45958000Y-37322000D01*
X43672000Y-37322000D02*
X44196000Y-37322000D01*
X49022000Y-40132000D02*
X49022000Y-42172823D01*
X40243000Y-31480000D02*
X40335944Y-31572944D01*
X45958000Y-37322000D02*
X46317356Y-37681356D01*
X46317356Y-37681356D02*
X46317356Y-39468179D01*
X38608000Y-31480000D02*
X40243000Y-31480000D01*
X46101000Y-29718000D02*
X67056000Y-50673000D01*
X38608000Y-31480000D02*
X38329177Y-31480000D01*
X38329177Y-31480000D02*
X37703000Y-30853823D01*
X40335944Y-31572944D02*
X40335944Y-33486767D01*
X40335944Y-33486767D02*
X41123177Y-34274000D01*
X51927000Y-43037000D02*
X51927000Y-45077823D01*
X49022000Y-42172823D02*
X49759177Y-42910000D01*
X49759177Y-42910000D02*
X50038000Y-42910000D01*
D31*
%TO.N,Net-(LED-Driver1-CS1)*%
X100711000Y-54102000D02*
X115684000Y-69075000D01*
X92395000Y-54102000D02*
X100711000Y-54102000D01*
X115684000Y-69075000D02*
X115684000Y-75520000D01*
D30*
%TO.N,CS4*%
X61214000Y-53832000D02*
X62595000Y-53832000D01*
X65897000Y-56753000D02*
X65897000Y-58793823D01*
X54721000Y-47617823D02*
X54721000Y-46512244D01*
X66802000Y-59420000D02*
X68437000Y-59420000D01*
X58141177Y-51038000D02*
X58420000Y-51038000D01*
X58944000Y-51562000D02*
X60309000Y-51562000D01*
X69317177Y-62214000D02*
X69596000Y-62214000D01*
X68691000Y-59674000D02*
X68691000Y-61587823D01*
X57404000Y-48768000D02*
X57404000Y-50300823D01*
X55626000Y-48244000D02*
X56880000Y-48244000D01*
X58420000Y-51038000D02*
X58944000Y-51562000D01*
X55626000Y-48244000D02*
X55347177Y-48244000D01*
X68437000Y-59420000D02*
X68691000Y-59674000D01*
X55347177Y-48244000D02*
X54721000Y-47617823D01*
X68691000Y-61587823D02*
X69317177Y-62214000D01*
X65913000Y-53721000D02*
X86360000Y-53721000D01*
X64008000Y-56626000D02*
X65770000Y-56626000D01*
X66523177Y-59420000D02*
X66802000Y-59420000D01*
X63103000Y-54340000D02*
X63103000Y-55999823D01*
X63729177Y-56626000D02*
X64008000Y-56626000D01*
X92583000Y-59944000D02*
X94676000Y-59944000D01*
X56880000Y-48244000D02*
X57404000Y-48768000D01*
X86360000Y-53721000D02*
X92583000Y-59944000D01*
X65897000Y-58793823D02*
X66523177Y-59420000D01*
X60309000Y-53205823D02*
X60935177Y-53832000D01*
X58674000Y-46482000D02*
X65913000Y-53721000D01*
X54751244Y-46482000D02*
X58674000Y-46482000D01*
X60309000Y-51562000D02*
X60309000Y-53205823D01*
X60935177Y-53832000D02*
X61214000Y-53832000D01*
X57404000Y-50300823D02*
X58141177Y-51038000D01*
X63103000Y-55999823D02*
X63729177Y-56626000D01*
X62595000Y-53832000D02*
X63103000Y-54340000D01*
X54721000Y-46512244D02*
X54751244Y-46482000D01*
X65770000Y-56626000D02*
X65897000Y-56753000D01*
D31*
%TO.N,Net-(LED-Driver1-CS4)*%
X114484000Y-71050000D02*
X114484000Y-75520000D01*
X95316000Y-59944000D02*
X103378000Y-59944000D01*
X103378000Y-59944000D02*
X114484000Y-71050000D01*
D30*
%TO.N,CS7*%
X83566000Y-76184000D02*
X85201000Y-76184000D01*
X96327000Y-65913000D02*
X96454000Y-65786000D01*
X81768000Y-63353000D02*
X84328000Y-65913000D01*
X85344000Y-78240823D02*
X86081177Y-78978000D01*
X82661000Y-75557823D02*
X83287177Y-76184000D01*
X85344000Y-76327000D02*
X85344000Y-78240823D01*
X75184000Y-67802000D02*
X76692000Y-67802000D01*
X72390000Y-65008000D02*
X72111177Y-65008000D01*
X83287177Y-76184000D02*
X83566000Y-76184000D01*
X71485000Y-64381823D02*
X71485000Y-63389000D01*
X74257356Y-65240356D02*
X74257356Y-67154179D01*
X85201000Y-76184000D02*
X85344000Y-76327000D01*
X84328000Y-65913000D02*
X96327000Y-65913000D01*
X79359000Y-70596000D02*
X79756000Y-70993000D01*
X77978000Y-70596000D02*
X79359000Y-70596000D01*
X74257356Y-67154179D02*
X74905177Y-67802000D01*
X72111177Y-65008000D02*
X71485000Y-64381823D01*
X79756000Y-72652823D02*
X80493177Y-73390000D01*
X71485000Y-63389000D02*
X71521000Y-63353000D01*
X82661000Y-74025000D02*
X82661000Y-75557823D01*
X77699177Y-70596000D02*
X77978000Y-70596000D01*
X76692000Y-67802000D02*
X76962000Y-68072000D01*
X82026000Y-73390000D02*
X82661000Y-74025000D01*
X80772000Y-73390000D02*
X82026000Y-73390000D01*
X71521000Y-63353000D02*
X81768000Y-63353000D01*
X72390000Y-65008000D02*
X74025000Y-65008000D01*
X74905177Y-67802000D02*
X75184000Y-67802000D01*
X74025000Y-65008000D02*
X74257356Y-65240356D01*
X86081177Y-78978000D02*
X86360000Y-78978000D01*
X76962000Y-68072000D02*
X76962000Y-69858823D01*
X76962000Y-69858823D02*
X77699177Y-70596000D01*
X80493177Y-73390000D02*
X80772000Y-73390000D01*
X79756000Y-70993000D02*
X79756000Y-72652823D01*
D31*
%TO.N,Net-(LED-Driver1-CS7)*%
X106553000Y-65786000D02*
X113284000Y-72517000D01*
X113284000Y-72517000D02*
X113284000Y-75520000D01*
X97094000Y-65786000D02*
X106553000Y-65786000D01*
D30*
%TO.N,CS10*%
X92408823Y-84558000D02*
X93583000Y-85732177D01*
X97158000Y-90146000D02*
X99036000Y-90146000D01*
X102599177Y-95750000D02*
X103000000Y-95750000D01*
X93583000Y-85732177D02*
X93583000Y-86479823D01*
X91416000Y-84558000D02*
X91824000Y-84558000D01*
X99060000Y-90170000D02*
X99060000Y-92210823D01*
X90919000Y-82537000D02*
X90919000Y-84061000D01*
X96879177Y-90146000D02*
X97158000Y-90146000D01*
X106421000Y-86995000D02*
X107310000Y-87884000D01*
X99036000Y-90146000D02*
X99060000Y-90170000D01*
X88249000Y-80406177D02*
X88530177Y-80125000D01*
X95488000Y-87106000D02*
X96253000Y-87871000D01*
X99797177Y-92948000D02*
X100076000Y-92948000D01*
X94488000Y-87106000D02*
X95488000Y-87106000D01*
X88875177Y-81780000D02*
X88249000Y-81153823D01*
X93583000Y-86479823D02*
X94209177Y-87106000D01*
X88530177Y-80125000D02*
X90920000Y-80125000D01*
X91824000Y-84558000D02*
X92408823Y-84558000D01*
X88249000Y-81153823D02*
X88249000Y-80406177D01*
X97790000Y-86995000D02*
X106421000Y-86995000D01*
X90920000Y-80125000D02*
X97790000Y-86995000D01*
X99060000Y-92210823D02*
X99797177Y-92948000D01*
X94209177Y-87106000D02*
X94488000Y-87106000D01*
X89154000Y-81780000D02*
X88875177Y-81780000D01*
X102070356Y-95221179D02*
X102599177Y-95750000D01*
X96253000Y-87871000D02*
X96253000Y-89519823D01*
X96253000Y-89519823D02*
X96879177Y-90146000D01*
X90919000Y-84061000D02*
X91416000Y-84558000D01*
X101838000Y-92948000D02*
X102070356Y-93180356D01*
X100076000Y-92948000D02*
X101838000Y-92948000D01*
X90162000Y-81780000D02*
X90919000Y-82537000D01*
X89154000Y-81780000D02*
X90162000Y-81780000D01*
X102070356Y-93180356D02*
X102070356Y-95221179D01*
D31*
%TO.N,Net-(LED-Driver1-CS10)*%
X108458000Y-87376000D02*
X107950000Y-87884000D01*
X113284000Y-86868000D02*
X112776000Y-87376000D01*
X112776000Y-87376000D02*
X108458000Y-87376000D01*
X113284000Y-80020000D02*
X113284000Y-86868000D01*
D30*
%TO.N,CS13*%
X111103177Y-103878000D02*
X111382000Y-103878000D01*
X107600356Y-100613179D02*
X108309177Y-101322000D01*
X108309177Y-101322000D02*
X108588000Y-101322000D01*
X111382000Y-103878000D02*
X113030000Y-103878000D01*
X105794000Y-98528000D02*
X105515177Y-98528000D01*
X112743000Y-96873000D02*
X114554000Y-95062000D01*
X105515177Y-98528000D02*
X104889000Y-97901823D01*
X113897177Y-106910000D02*
X114176000Y-106910000D01*
X118618000Y-109474000D02*
X118618000Y-111514823D01*
X104889000Y-97041000D02*
X105057000Y-96873000D01*
X105057000Y-96873000D02*
X112743000Y-96873000D01*
X107600356Y-98528000D02*
X107600356Y-100613179D01*
X108588000Y-101322000D02*
X110477000Y-101322000D01*
X118618000Y-111514823D02*
X119355177Y-112252000D01*
X105794000Y-98528000D02*
X107600356Y-98528000D01*
X104889000Y-97901823D02*
X104889000Y-97041000D01*
X119355177Y-112252000D02*
X119634000Y-112252000D01*
X113030000Y-106042823D02*
X113897177Y-106910000D01*
X116840000Y-109458000D02*
X118602000Y-109458000D01*
X115935000Y-106918000D02*
X115935000Y-108947823D01*
X115927000Y-106910000D02*
X115935000Y-106918000D01*
X110477000Y-101322000D02*
X110477000Y-103251823D01*
X115935000Y-108947823D02*
X116445177Y-109458000D01*
X110477000Y-103251823D02*
X111103177Y-103878000D01*
X118602000Y-109458000D02*
X118618000Y-109474000D01*
X113030000Y-103878000D02*
X113030000Y-106042823D01*
X114176000Y-106910000D02*
X115927000Y-106910000D01*
X116445177Y-109458000D02*
X116840000Y-109458000D01*
D31*
%TO.N,Net-(LED-Driver1-CS13)*%
X114554000Y-94422000D02*
X114484000Y-94352000D01*
X114484000Y-94352000D02*
X114484000Y-80020000D01*
D30*
%TO.N,CS16*%
X124935177Y-117832000D02*
X125352000Y-117832000D01*
X127241000Y-117843000D02*
X127241000Y-120129000D01*
X127241000Y-120129000D02*
X127754000Y-120642000D01*
X135369000Y-128511000D02*
X135866000Y-129008000D01*
X130286000Y-123428000D02*
X130810000Y-123428000D01*
X129905000Y-123047000D02*
X130286000Y-123428000D01*
X132575000Y-123431000D02*
X132575000Y-125717000D01*
X133072000Y-126214000D02*
X133480000Y-126214000D01*
X125352000Y-117832000D02*
X127230000Y-117832000D01*
X132572000Y-123428000D02*
X132575000Y-123431000D01*
X127230000Y-117832000D02*
X127241000Y-117843000D01*
X129659000Y-120642000D02*
X129905000Y-120888000D01*
X124422356Y-117319179D02*
X124935177Y-117832000D01*
X122428000Y-115046000D02*
X124317000Y-115046000D01*
X129905000Y-120888000D02*
X129905000Y-123047000D01*
X128146000Y-120642000D02*
X129659000Y-120642000D01*
X132575000Y-125717000D02*
X133072000Y-126214000D01*
X121412000Y-114681000D02*
X121412000Y-101600000D01*
X127754000Y-120642000D02*
X128146000Y-120642000D01*
X135358000Y-126214000D02*
X135369000Y-126225000D01*
X135866000Y-129008000D02*
X136274000Y-129008000D01*
X124317000Y-115046000D02*
X124422356Y-115151356D01*
X130810000Y-123428000D02*
X132572000Y-123428000D01*
X133480000Y-126214000D02*
X135358000Y-126214000D01*
X122428000Y-115046000D02*
X121777000Y-115046000D01*
X121412000Y-101600000D02*
X119888000Y-101600000D01*
X124422356Y-115151356D02*
X124422356Y-117319179D01*
X119888000Y-101600000D02*
X119888000Y-95128000D01*
X121777000Y-115046000D02*
X121412000Y-114681000D01*
X135369000Y-126225000D02*
X135369000Y-128511000D01*
D31*
%TO.N,Net-(LED-Driver1-CS16)*%
X115684000Y-80020000D02*
X115684000Y-90284000D01*
X115684000Y-90284000D02*
X119888000Y-94488000D01*
%TO.N,Net-(LED-Driver1-VCAP)*%
X116684000Y-79170000D02*
X119114000Y-79170000D01*
X119114000Y-79170000D02*
X119380000Y-79436000D01*
%TO.N,GND*%
X144340500Y-101768000D02*
X144340500Y-102318000D01*
D32*
X117543000Y-79570000D02*
X118491000Y-80518000D01*
D31*
X153411000Y-118176000D02*
X153411000Y-118872000D01*
D30*
X138110000Y-108729000D02*
X138049000Y-108668000D01*
X170631000Y-111957000D02*
X169545000Y-110871000D01*
D31*
X153411000Y-118872000D02*
X152522000Y-119761000D01*
X145440500Y-102868000D02*
X144890500Y-102868000D01*
X179250000Y-110857500D02*
X177381000Y-112726500D01*
D30*
X169545000Y-110871000D02*
X170790000Y-110871000D01*
X157856000Y-119065000D02*
X157856000Y-120015000D01*
D31*
X144340500Y-102868000D02*
X144890500Y-102868000D01*
D32*
X116079000Y-79565000D02*
X115184000Y-78670000D01*
D31*
X144340500Y-102868000D02*
X144340500Y-102318000D01*
X145440500Y-102868000D02*
X145990500Y-102868000D01*
X145440500Y-103968000D02*
X145990500Y-103968000D01*
D30*
X157729000Y-120142000D02*
X157602000Y-120142000D01*
D32*
X116684000Y-79570000D02*
X117543000Y-79570000D01*
D30*
X157856000Y-120015000D02*
X157729000Y-120142000D01*
D31*
X145440500Y-101768000D02*
X145990500Y-101768000D01*
X146540500Y-102868000D02*
X146540500Y-102318000D01*
X146540500Y-103968000D02*
X145990500Y-103968000D01*
D32*
X116679000Y-79565000D02*
X116079000Y-79565000D01*
D31*
X145440500Y-103968000D02*
X144890500Y-103968000D01*
X175764000Y-110928000D02*
X175856046Y-110928000D01*
D30*
X156840000Y-120142000D02*
X156713000Y-120015000D01*
D31*
X144340500Y-101768000D02*
X144890500Y-101768000D01*
X146540500Y-101768000D02*
X145990500Y-101768000D01*
D30*
X157602000Y-120142000D02*
X159761000Y-120142000D01*
D31*
X146540500Y-103968000D02*
X146540500Y-103418000D01*
X145440500Y-101768000D02*
X144890500Y-101768000D01*
X144340500Y-102868000D02*
X144340500Y-103968000D01*
D30*
X171704000Y-111440000D02*
X171359000Y-111440000D01*
X138110000Y-111252000D02*
X138110000Y-108729000D01*
D32*
X118491000Y-81915000D02*
X118618000Y-82042000D01*
D31*
X145440500Y-103418000D02*
X145440500Y-102868000D01*
X179250000Y-112284500D02*
X179250000Y-110857500D01*
X179438000Y-112472500D02*
X179250000Y-112284500D01*
D30*
X171359000Y-111440000D02*
X170790000Y-110871000D01*
D32*
X116684000Y-79570000D02*
X116679000Y-79565000D01*
D31*
X62230000Y-25146000D02*
X62865000Y-25781000D01*
X177381000Y-112726500D02*
X177381000Y-113534000D01*
D30*
X173101000Y-110551000D02*
X169865000Y-110551000D01*
D31*
X179250000Y-110857500D02*
X175834500Y-110857500D01*
D33*
X138049000Y-108668000D02*
X139640500Y-108668000D01*
D31*
X119380000Y-80076000D02*
X119380000Y-81280000D01*
D30*
X156713000Y-121986000D02*
X156713000Y-120015000D01*
D32*
X118491000Y-80518000D02*
X118491000Y-81915000D01*
D31*
X145440500Y-101768000D02*
X145440500Y-102318000D01*
X60340500Y-25146000D02*
X62230000Y-25146000D01*
D30*
X156271000Y-122428000D02*
X156713000Y-121986000D01*
X157602000Y-120142000D02*
X156840000Y-120142000D01*
D31*
X146540500Y-101768000D02*
X146540500Y-102318000D01*
D33*
X139640500Y-108668000D02*
X144340500Y-103968000D01*
D30*
X170631000Y-113534000D02*
X170631000Y-111957000D01*
D33*
X135730500Y-108668000D02*
X138049000Y-108668000D01*
D31*
X145440500Y-103968000D02*
X145440500Y-103418000D01*
X119380000Y-81280000D02*
X118618000Y-82042000D01*
D30*
X169865000Y-110551000D02*
X169545000Y-110871000D01*
D31*
X175834500Y-110857500D02*
X175764000Y-110928000D01*
X144340500Y-103968000D02*
X144890500Y-103968000D01*
%TO.N,+3.3V*%
X135730500Y-96668000D02*
X135403000Y-96668000D01*
D33*
X135730500Y-98168000D02*
X133728000Y-98168000D01*
D30*
X153726000Y-123063000D02*
X153726000Y-122428000D01*
X153726000Y-122428000D02*
X150744000Y-122428000D01*
D31*
X122174000Y-79309000D02*
X120843000Y-77978000D01*
X132461000Y-93853000D02*
X132524500Y-93789500D01*
D34*
X150744000Y-115570000D02*
X150871000Y-115443000D01*
X150871000Y-115443000D02*
X152649000Y-115443000D01*
D31*
X131446500Y-104984000D02*
X129585000Y-104984000D01*
D35*
X117665500Y-73850500D02*
X116684000Y-74832000D01*
D31*
X57940500Y-24196000D02*
X57940500Y-24228500D01*
D30*
X149728000Y-121412000D02*
X149728000Y-116586000D01*
D31*
X132461000Y-97094000D02*
X133535000Y-98168000D01*
D32*
X111133000Y-77970000D02*
X110744000Y-78359000D01*
D33*
X133728000Y-98168000D02*
X132461000Y-96901000D01*
D30*
X149728000Y-116586000D02*
X150744000Y-115570000D01*
D34*
X152649000Y-115443000D02*
X153454000Y-115443000D01*
D32*
X111884000Y-77970000D02*
X111133000Y-77970000D01*
D30*
X152649000Y-116774000D02*
X152649000Y-115443000D01*
D33*
X132461000Y-93726000D02*
X133731000Y-93726000D01*
D31*
X133535000Y-98168000D02*
X135730500Y-98168000D01*
D30*
X150744000Y-122428000D02*
X149728000Y-121412000D01*
D31*
X129585000Y-104984000D02*
X129540000Y-105029000D01*
D33*
X133731000Y-94668500D02*
X133731000Y-93726000D01*
D35*
X116684000Y-74832000D02*
X116684000Y-75840000D01*
D31*
X132524500Y-93789500D02*
X132461000Y-93726000D01*
X57150000Y-25019000D02*
X54864000Y-25019000D01*
D33*
X132461000Y-96901000D02*
X132461000Y-93726000D01*
D30*
X110744000Y-81661000D02*
X110744000Y-78359000D01*
X153411000Y-117536000D02*
X152649000Y-116774000D01*
D31*
X122174000Y-79502000D02*
X122174000Y-79309000D01*
D30*
X154615000Y-123952000D02*
X153726000Y-123063000D01*
D31*
X57940500Y-24228500D02*
X57150000Y-25019000D01*
D33*
X135730500Y-96668000D02*
X133731000Y-94668500D01*
D31*
X132461000Y-96454000D02*
X132461000Y-93853000D01*
%TO.N,MOSI*%
X130810000Y-97282000D02*
X130810000Y-75987310D01*
X133196000Y-99668000D02*
X130810000Y-97282000D01*
X117988574Y-77570000D02*
X116684000Y-77570000D01*
X130810000Y-75987310D02*
X130184690Y-75362000D01*
X119358574Y-76200000D02*
X117988574Y-77570000D01*
X135730500Y-99668000D02*
X133196000Y-99668000D01*
X127625309Y-75362001D02*
X126787310Y-76200000D01*
X130184690Y-75362000D02*
X127625309Y-75362001D01*
X126787310Y-76200000D02*
X119358574Y-76200000D01*
%TO.N,SCLK*%
X118160264Y-77865000D02*
X118135574Y-77865000D01*
X130048000Y-75692000D02*
X127762000Y-75692000D01*
X133721310Y-101168000D02*
X130048000Y-97494690D01*
X126746000Y-76708000D02*
X119317264Y-76708000D01*
X118030574Y-77970000D02*
X116684000Y-77970000D01*
X127762000Y-75692000D02*
X126746000Y-76708000D01*
X130048000Y-97494690D02*
X130048000Y-75692000D01*
X118135574Y-77865000D02*
X118030574Y-77970000D01*
X119317264Y-76708000D02*
X118160264Y-77865000D01*
X135730500Y-101168000D02*
X133721310Y-101168000D01*
%TO.N,MISO*%
X132894000Y-102668000D02*
X131572000Y-101346000D01*
X119221884Y-75870000D02*
X117921884Y-77170000D01*
X125984000Y-73406000D02*
X125984000Y-75870000D01*
X135730500Y-102668000D02*
X132894000Y-102668000D01*
X117921884Y-77170000D02*
X116684000Y-77170000D01*
X125984000Y-75870000D02*
X119221884Y-75870000D01*
%TO.N,SS*%
X132362000Y-104168000D02*
X135730500Y-104168000D01*
X130048000Y-101854000D02*
X132362000Y-104168000D01*
X123596000Y-75540000D02*
X119085194Y-75540000D01*
X117855194Y-76770000D02*
X116684000Y-76770000D01*
X123698000Y-75438000D02*
X123596000Y-75540000D01*
X129413000Y-101854000D02*
X130048000Y-101854000D01*
X119085194Y-75540000D02*
X117855194Y-76770000D01*
X123698000Y-73406000D02*
X123698000Y-75438000D01*
%TO.N,Net-(ESP1-IO8)*%
X131446500Y-105624000D02*
X131490500Y-105668000D01*
X131490500Y-105668000D02*
X135730500Y-105668000D01*
D30*
%TO.N,Net-(ESP1-IO9)*%
X133116000Y-107168000D02*
X135730500Y-107168000D01*
X131826000Y-114272000D02*
X131826000Y-108458000D01*
X133378000Y-115824000D02*
X131826000Y-114272000D01*
X131826000Y-108458000D02*
X133116000Y-107168000D01*
D31*
%TO.N,D-*%
X154206000Y-104168000D02*
X153230500Y-104168000D01*
X174256000Y-112634000D02*
X174256000Y-109994000D01*
X174256000Y-113534000D02*
X174256000Y-112634000D01*
X173256000Y-112674000D02*
X173256000Y-113534000D01*
X154234000Y-104140000D02*
X154206000Y-104168000D01*
X174256000Y-109994000D02*
X168402000Y-104140000D01*
X174256000Y-112014000D02*
X173916000Y-112014000D01*
X173916000Y-112014000D02*
X173256000Y-112674000D01*
X168402000Y-104140000D02*
X154234000Y-104140000D01*
X174256000Y-112634000D02*
X174256000Y-112014000D01*
%TO.N,D+*%
X173756000Y-114320000D02*
X173756000Y-113534000D01*
X174756000Y-113534000D02*
X174756000Y-109605000D01*
X174756000Y-114304000D02*
X174526000Y-114534000D01*
X173970000Y-114534000D02*
X173756000Y-114320000D01*
X174756000Y-113534000D02*
X174756000Y-114304000D01*
X174756000Y-109605000D02*
X167819000Y-102668000D01*
X174526000Y-114534000D02*
X173970000Y-114534000D01*
X167819000Y-102668000D02*
X153230500Y-102668000D01*
%TO.N,Hall Sense*%
X57785000Y-29718000D02*
X58928000Y-29718000D01*
X153230500Y-101168000D02*
X158064000Y-101168000D01*
X55245000Y-27178000D02*
X57785000Y-29718000D01*
X57940500Y-26096000D02*
X56327000Y-26096000D01*
D30*
X160909000Y-95250000D02*
X161163000Y-95250000D01*
X158064000Y-101168000D02*
X158064000Y-98095000D01*
X158064000Y-98095000D02*
X160909000Y-95250000D01*
D31*
X56327000Y-26096000D02*
X55245000Y-27178000D01*
%TO.N,VIO_EN*%
X153230500Y-99668000D02*
X155194000Y-99668000D01*
X145796000Y-88392000D02*
X129794000Y-72390000D01*
X155194000Y-88392000D02*
X145796000Y-88392000D01*
X121652000Y-72390000D02*
X118364000Y-75678000D01*
X118364000Y-75678000D02*
X118364000Y-75692000D01*
X155194000Y-99668000D02*
X155194000Y-88392000D01*
X118364000Y-75692000D02*
X117686000Y-76370000D01*
X117686000Y-76370000D02*
X116684000Y-76370000D01*
X129794000Y-72390000D02*
X121652000Y-72390000D01*
%TO.N,VSYNC*%
X154686000Y-88900000D02*
X145288000Y-88900000D01*
X128389000Y-77097000D02*
X119394954Y-77097000D01*
X136144000Y-79756000D02*
X133858000Y-79756000D01*
X118296954Y-78195000D02*
X118272264Y-78195000D01*
X154686000Y-98168000D02*
X154686000Y-88900000D01*
X116842640Y-78350000D02*
X116822640Y-78370000D01*
X145288000Y-88900000D02*
X136144000Y-79756000D01*
X119394954Y-77097000D02*
X118296954Y-78195000D01*
X153230500Y-98168000D02*
X154686000Y-98168000D01*
X118272264Y-78195000D02*
X118117264Y-78350000D01*
X118117264Y-78350000D02*
X116842640Y-78350000D01*
X116822640Y-78370000D02*
X116684000Y-78370000D01*
D30*
%TO.N,CS2*%
X46228000Y-36322000D02*
X47244000Y-37338000D01*
X50038000Y-41910000D02*
X51943000Y-41910000D01*
X39624000Y-30480000D02*
X41402000Y-30480000D01*
X66548000Y-51308000D02*
X87564000Y-51308000D01*
X44196000Y-33782000D02*
X44196000Y-36322000D01*
X44196000Y-36322000D02*
X46228000Y-36322000D01*
X47244000Y-39116000D02*
X49276000Y-39116000D01*
X49276000Y-39116000D02*
X50038000Y-39878000D01*
X47244000Y-37338000D02*
X47244000Y-39116000D01*
X50038000Y-39878000D02*
X50038000Y-41910000D01*
X38608000Y-30480000D02*
X39624000Y-30480000D01*
X52832000Y-42799000D02*
X52832000Y-44704000D01*
X87564000Y-51308000D02*
X91755000Y-55499000D01*
X39624000Y-30480000D02*
X45720000Y-30480000D01*
X43688000Y-33274000D02*
X44196000Y-33782000D01*
X41402000Y-33274000D02*
X43688000Y-33274000D01*
X51943000Y-41910000D02*
X52832000Y-42799000D01*
X41402000Y-30480000D02*
X41402000Y-33274000D01*
X45720000Y-30480000D02*
X66548000Y-51308000D01*
D31*
%TO.N,Net-(LED-Driver1-CS2)*%
X115284000Y-69564000D02*
X115284000Y-75520000D01*
X92395000Y-55499000D02*
X101219000Y-55499000D01*
X101219000Y-55499000D02*
X115284000Y-69564000D01*
D30*
%TO.N,CS5*%
X66802000Y-58420000D02*
X68961000Y-58420000D01*
X85471000Y-54991000D02*
X92456000Y-61976000D01*
X58420000Y-50038000D02*
X60706000Y-50038000D01*
X61214000Y-50546000D02*
X61214000Y-52832000D01*
X65659000Y-54991000D02*
X85471000Y-54991000D01*
X60706000Y-50038000D02*
X65659000Y-54991000D01*
X61214000Y-52832000D02*
X62484000Y-52832000D01*
X55626000Y-47244000D02*
X57658000Y-47244000D01*
X57658000Y-47244000D02*
X58420000Y-48006000D01*
X69596000Y-59055000D02*
X69596000Y-61214000D01*
X58420000Y-48006000D02*
X58420000Y-50038000D01*
X62484000Y-52832000D02*
X64008000Y-54356000D01*
X64008000Y-54356000D02*
X64008000Y-55626000D01*
X66802000Y-55626000D02*
X66802000Y-58420000D01*
X92456000Y-61976000D02*
X94742000Y-61976000D01*
X68961000Y-58420000D02*
X69596000Y-59055000D01*
X60706000Y-50038000D02*
X61214000Y-50546000D01*
X64008000Y-55626000D02*
X66802000Y-55626000D01*
D31*
%TO.N,Net-(LED-Driver1-CS5)*%
X114084000Y-71412000D02*
X114084000Y-75520000D01*
X104648000Y-61976000D02*
X114084000Y-71412000D01*
X95382000Y-61976000D02*
X104648000Y-61976000D01*
D30*
%TO.N,CS8*%
X75184000Y-65024000D02*
X75184000Y-66802000D01*
X83566000Y-73279000D02*
X83566000Y-75184000D01*
X80772000Y-70358000D02*
X80772000Y-72390000D01*
X77978000Y-66802000D02*
X77978000Y-69596000D01*
X83312000Y-67691000D02*
X96073000Y-67691000D01*
X82423000Y-66802000D02*
X83312000Y-67691000D01*
X83566000Y-75184000D02*
X85852000Y-75184000D01*
X75184000Y-66802000D02*
X82423000Y-66802000D01*
X80772000Y-72390000D02*
X82677000Y-72390000D01*
X85852000Y-75184000D02*
X86360000Y-75692000D01*
X86360000Y-75692000D02*
X86360000Y-77978000D01*
X80010000Y-69596000D02*
X80772000Y-70358000D01*
X96073000Y-67691000D02*
X96454000Y-67310000D01*
X72390000Y-64008000D02*
X74168000Y-64008000D01*
X75184000Y-66802000D02*
X77978000Y-66802000D01*
X82677000Y-72390000D02*
X83566000Y-73279000D01*
X74168000Y-64008000D02*
X75184000Y-65024000D01*
X77978000Y-69596000D02*
X80010000Y-69596000D01*
D31*
%TO.N,Net-(LED-Driver1-CS8)*%
X106680000Y-67310000D02*
X97094000Y-67310000D01*
X112884000Y-73514000D02*
X106680000Y-67310000D01*
X112884000Y-75520000D02*
X112884000Y-73514000D01*
D30*
%TO.N,CS11*%
X89154000Y-80780000D02*
X90178000Y-80780000D01*
X91824000Y-82426000D02*
X91824000Y-83558000D01*
X100076000Y-89146000D02*
X100076000Y-91948000D01*
X93083000Y-83558000D02*
X94488000Y-84963000D01*
X100076000Y-91948000D02*
X102489000Y-91948000D01*
X103000000Y-92459000D02*
X103000000Y-94750000D01*
X102489000Y-91948000D02*
X103000000Y-92459000D01*
X106769000Y-89146000D02*
X107285000Y-89662000D01*
X90178000Y-80780000D02*
X91824000Y-82426000D01*
X97158000Y-89146000D02*
X100076000Y-89146000D01*
X95377000Y-86106000D02*
X97158000Y-87887000D01*
X91824000Y-83558000D02*
X93083000Y-83558000D01*
X94488000Y-84963000D02*
X94488000Y-86106000D01*
X94488000Y-86106000D02*
X95377000Y-86106000D01*
X97158000Y-87887000D02*
X97158000Y-89146000D01*
X97158000Y-89146000D02*
X106769000Y-89146000D01*
D31*
%TO.N,Net-(LED-Driver1-CS11)*%
X113684000Y-80020000D02*
X113684000Y-87271310D01*
X113684000Y-87271310D02*
X111293310Y-89662000D01*
X111293310Y-89662000D02*
X107925000Y-89662000D01*
D30*
%TO.N,CS14*%
X114176000Y-102878000D02*
X114176000Y-105910000D01*
X110990000Y-100322000D02*
X108588000Y-100322000D01*
X116840000Y-108458000D02*
X119507000Y-108458000D01*
X116578000Y-105910000D02*
X116840000Y-106172000D01*
X119634000Y-108585000D02*
X119634000Y-111252000D01*
X111382000Y-100841000D02*
X110990000Y-100449000D01*
X108069000Y-97528000D02*
X108588000Y-98047000D01*
X115570000Y-95758000D02*
X115890000Y-95438000D01*
X114176000Y-105910000D02*
X116578000Y-105910000D01*
X110990000Y-100322000D02*
X115554000Y-95758000D01*
X105794000Y-97528000D02*
X108069000Y-97528000D01*
X119507000Y-108458000D02*
X119634000Y-108585000D01*
X110990000Y-100449000D02*
X110990000Y-100322000D01*
X115890000Y-95438000D02*
X115890000Y-95062000D01*
X111382000Y-102878000D02*
X114176000Y-102878000D01*
X116840000Y-106172000D02*
X116840000Y-108458000D01*
X115554000Y-95758000D02*
X115570000Y-95758000D01*
X111382000Y-100841000D02*
X111382000Y-102878000D01*
X108588000Y-98047000D02*
X108588000Y-100322000D01*
D31*
%TO.N,Net-(LED-Driver1-CS14)*%
X115890000Y-94046000D02*
X115890000Y-94422000D01*
X114884000Y-80020000D02*
X114884000Y-93040000D01*
X114884000Y-93040000D02*
X115890000Y-94046000D01*
D30*
%TO.N,CS17*%
X130810000Y-119642000D02*
X130810000Y-122428000D01*
X136263000Y-125214000D02*
X136274000Y-125225000D01*
X128135000Y-116832000D02*
X128146000Y-116843000D01*
X133477000Y-122428000D02*
X133480000Y-122431000D01*
X133480000Y-125214000D02*
X136263000Y-125214000D01*
X136274000Y-125225000D02*
X136274000Y-128008000D01*
X125352000Y-116832000D02*
X128135000Y-116832000D01*
X133480000Y-122431000D02*
X133480000Y-125214000D01*
X125352000Y-114049000D02*
X125352000Y-116832000D01*
X122428000Y-100965000D02*
X121158000Y-100965000D01*
X121158000Y-100965000D02*
X121158000Y-95153000D01*
X128146000Y-116843000D02*
X128146000Y-119642000D01*
X130810000Y-122428000D02*
X133477000Y-122428000D01*
X125349000Y-114046000D02*
X125352000Y-114049000D01*
X128146000Y-119642000D02*
X130810000Y-119642000D01*
X122428000Y-114046000D02*
X122428000Y-100965000D01*
X122428000Y-114046000D02*
X125349000Y-114046000D01*
D31*
%TO.N,Net-(LED-Driver1-CS17)*%
X116084000Y-89439000D02*
X121158000Y-94513000D01*
X116084000Y-80020000D02*
X116084000Y-89439000D01*
%TO.N,Net-(LED-Driver1-CS0)*%
X92431000Y-52578000D02*
X100203000Y-52578000D01*
X100203000Y-52578000D02*
X116084000Y-68459000D01*
X116084000Y-68459000D02*
X116084000Y-75520000D01*
%TO.N,Net-(LED-Driver1-CS3)*%
X102870000Y-58166000D02*
X114884000Y-70180000D01*
X95250000Y-58166000D02*
X102870000Y-58166000D01*
X114884000Y-70180000D02*
X114884000Y-75520000D01*
%TO.N,Net-(LED-Driver1-CS6)*%
X97094000Y-64262000D02*
X105918000Y-64262000D01*
X113684000Y-72028000D02*
X113684000Y-75520000D01*
X105918000Y-64262000D02*
X113684000Y-72028000D01*
%TO.N,SWO<-->LED(0-5)*%
X112484000Y-75520000D02*
X112484000Y-74765000D01*
D30*
X86354000Y-80780000D02*
X86075177Y-80780000D01*
X35808000Y-30480000D02*
X34417000Y-30480000D01*
X69590000Y-64008000D02*
X67945000Y-64008000D01*
X34417000Y-30480000D02*
X27305000Y-37592000D01*
D31*
X110744000Y-73533000D02*
X111252000Y-73533000D01*
D30*
X101989000Y-97528000D02*
X94615000Y-104902000D01*
X52826000Y-47244000D02*
X51435000Y-47244000D01*
X86075177Y-80780000D02*
X78232000Y-88623177D01*
X119628000Y-114046000D02*
X115951000Y-114046000D01*
X115951000Y-114046000D02*
X109855000Y-120142000D01*
X60960000Y-70993000D02*
X60833000Y-70993000D01*
D31*
X111252000Y-73533000D02*
X112484000Y-74765000D01*
D30*
X67945000Y-64008000D02*
X60960000Y-70993000D01*
X51435000Y-47244000D02*
X44196000Y-54483000D01*
X102994000Y-97528000D02*
X101989000Y-97528000D01*
%TO.N,SW1<-->LED(6-11)*%
X38602000Y-33274000D02*
X37084000Y-33274000D01*
X37084000Y-33274000D02*
X30861000Y-39497000D01*
X55620000Y-50038000D02*
X53848000Y-50038000D01*
X104910000Y-100322000D02*
X98298000Y-106934000D01*
X117102000Y-116832000D02*
X112649000Y-121285000D01*
X88745177Y-83558000D02*
X81915000Y-90388177D01*
D31*
X109752000Y-75970000D02*
X108458000Y-74676000D01*
D30*
X122552000Y-116832000D02*
X117102000Y-116832000D01*
X89024000Y-83558000D02*
X88745177Y-83558000D01*
X53848000Y-50038000D02*
X47625000Y-56261000D01*
X105788000Y-100322000D02*
X104910000Y-100322000D01*
D31*
X111884000Y-75970000D02*
X109752000Y-75970000D01*
X108458000Y-74676000D02*
X107061000Y-73406000D01*
D30*
X72384000Y-66802000D02*
X72105177Y-66802000D01*
X81915000Y-90388177D02*
X81915000Y-90424000D01*
X72105177Y-66802000D02*
X65120177Y-73787000D01*
%TO.N,SW2<-->LED(12-17)*%
X102215177Y-108966000D02*
X102108000Y-108966000D01*
X58135177Y-52832000D02*
X52070000Y-58897177D01*
X74899177Y-69596000D02*
X68803177Y-75692000D01*
X41396000Y-36322000D02*
X41117177Y-36322000D01*
X41117177Y-36322000D02*
X35306000Y-42133177D01*
D31*
X108882000Y-76370000D02*
X111884000Y-76370000D01*
D30*
X52070000Y-58897177D02*
X52070000Y-58928000D01*
X108582000Y-102878000D02*
X108303177Y-102878000D01*
X58414000Y-52832000D02*
X58135177Y-52832000D01*
X91409177Y-86106000D02*
X85344000Y-92171177D01*
D31*
X108077000Y-75565000D02*
X108882000Y-76370000D01*
D30*
X91688000Y-86106000D02*
X91409177Y-86106000D01*
D31*
X41396000Y-36322000D02*
X41159604Y-36322000D01*
D30*
X75178000Y-69596000D02*
X74899177Y-69596000D01*
X125346000Y-119642000D02*
X119880000Y-119642000D01*
D31*
X107061000Y-75565000D02*
X108077000Y-75565000D01*
D30*
X119880000Y-119642000D02*
X116332000Y-123190000D01*
X108303177Y-102878000D02*
X102215177Y-108966000D01*
X35306000Y-42133177D02*
X35306000Y-42164000D01*
%TO.N,SW3<-->LED(18-23)*%
X72613177Y-77470000D02*
X72517000Y-77470000D01*
D31*
X108650000Y-76770000D02*
X111884000Y-76770000D01*
X107061000Y-77724000D02*
X107696000Y-77724000D01*
D30*
X39243000Y-44038177D02*
X39243000Y-44196000D01*
D31*
X44444000Y-39116000D02*
X44207604Y-39116000D01*
D30*
X111376000Y-105910000D02*
X111006000Y-105910000D01*
X88773000Y-93472000D02*
X88773000Y-93599000D01*
X122555000Y-122428000D02*
X120142000Y-124841000D01*
X44165177Y-39116000D02*
X39243000Y-44038177D01*
X94358000Y-89146000D02*
X93099000Y-89146000D01*
X61208000Y-55626000D02*
X60706000Y-55626000D01*
X120142000Y-124841000D02*
X120015000Y-124841000D01*
X77693177Y-72390000D02*
X72613177Y-77470000D01*
X128010000Y-122428000D02*
X122555000Y-122428000D01*
X93099000Y-89146000D02*
X88773000Y-93472000D01*
X60706000Y-55626000D02*
X55626000Y-60706000D01*
X44444000Y-39116000D02*
X44165177Y-39116000D01*
X111006000Y-105910000D02*
X106045000Y-110871000D01*
X77972000Y-72390000D02*
X77693177Y-72390000D01*
D31*
X107696000Y-77724000D02*
X108650000Y-76770000D01*
D30*
%TO.N,SW4<-->LED(24-29)*%
X92202000Y-94996000D02*
X92202000Y-95123000D01*
X97276000Y-91948000D02*
X95250000Y-91948000D01*
X64002000Y-58420000D02*
X62738000Y-58420000D01*
X47238000Y-41910000D02*
X45974000Y-41910000D01*
X114040000Y-108458000D02*
X112268000Y-108458000D01*
X124849000Y-125214000D02*
X123571000Y-126492000D01*
X130680000Y-125214000D02*
X124849000Y-125214000D01*
X59182000Y-61976000D02*
X59055000Y-61976000D01*
X79248000Y-75184000D02*
X75692000Y-78740000D01*
X45974000Y-41910000D02*
X42418000Y-45466000D01*
D31*
X107188000Y-79883000D02*
X107188000Y-79756000D01*
D30*
X112268000Y-108458000D02*
X108839000Y-111887000D01*
D31*
X107188000Y-79756000D02*
X109774000Y-77170000D01*
D30*
X95250000Y-91948000D02*
X92202000Y-94996000D01*
X80766000Y-75184000D02*
X79248000Y-75184000D01*
D31*
X111884000Y-77170000D02*
X109774000Y-77170000D01*
D30*
X62738000Y-58420000D02*
X59182000Y-61976000D01*
%TO.N,SW5<-->LED(30-35)*%
X116834000Y-111252000D02*
X114427000Y-111252000D01*
X127643000Y-128008000D02*
X127254000Y-128397000D01*
X48006000Y-44704000D02*
X45847000Y-46863000D01*
X98671000Y-94750000D02*
X96139000Y-97282000D01*
D31*
X108458000Y-81153000D02*
X108458000Y-79883000D01*
X107315000Y-82296000D02*
X108458000Y-81153000D01*
D30*
X64643000Y-61214000D02*
X62357000Y-63500000D01*
X50032000Y-44704000D02*
X48006000Y-44704000D01*
D31*
X108458000Y-79883000D02*
X110771000Y-77570000D01*
D30*
X83560000Y-77978000D02*
X81915000Y-77978000D01*
X66796000Y-61214000D02*
X64643000Y-61214000D01*
D31*
X110771000Y-77570000D02*
X111884000Y-77570000D01*
D30*
X114427000Y-111252000D02*
X112268000Y-113411000D01*
X100200000Y-94750000D02*
X98671000Y-94750000D01*
X133474000Y-128008000D02*
X127643000Y-128008000D01*
X81915000Y-77978000D02*
X79375000Y-80518000D01*
D31*
%TO.N,Net-(LED-Driver1-CS9)*%
X112884000Y-84982000D02*
X111760000Y-86106000D01*
X112884000Y-80020000D02*
X112884000Y-84982000D01*
X111760000Y-86106000D02*
X107950000Y-86106000D01*
%TO.N,Net-(LED-Driver1-CS12)*%
X114084000Y-88100000D02*
X113096000Y-89088000D01*
X114084000Y-80020000D02*
X114084000Y-88100000D01*
X113096000Y-89088000D02*
X113096000Y-94422000D01*
%TO.N,Net-(LED-Driver1-CS15)*%
X115284000Y-91179000D02*
X118618000Y-94513000D01*
X115284000Y-80020000D02*
X115284000Y-91179000D01*
%TO.N,Net-(LED-Driver1-IFS)*%
X118408954Y-78525000D02*
X118253954Y-78680000D01*
X118433645Y-78524999D02*
X118408954Y-78525000D01*
X118980644Y-77978000D02*
X118433645Y-78524999D01*
X116889330Y-78770000D02*
X116684000Y-78770000D01*
X120203000Y-77978000D02*
X118980644Y-77978000D01*
X118253954Y-78680000D02*
X116979330Y-78680000D01*
X116979330Y-78680000D02*
X116889330Y-78770000D01*
D30*
%TO.N,CS0*%
X89124000Y-49911000D02*
X91791000Y-52578000D01*
X46355000Y-28956000D02*
X67310000Y-49911000D01*
X39507000Y-32875056D02*
X39507000Y-34153000D01*
X44722823Y-40116000D02*
X44444000Y-40116000D01*
X50553711Y-43565000D02*
X50937000Y-43948289D01*
X50937000Y-43948289D02*
X50937000Y-45329000D01*
X48022000Y-42910000D02*
X48677000Y-43565000D01*
X41396000Y-37322000D02*
X42051000Y-37977000D01*
X42418000Y-35321177D02*
X42418000Y-36578823D01*
X38766944Y-32135000D02*
X39507000Y-32875056D01*
X42051000Y-37977000D02*
X44913599Y-37977000D01*
D31*
X41632396Y-37322000D02*
X41396000Y-37322000D01*
D30*
X36086823Y-31480000D02*
X36957000Y-30609823D01*
X67310000Y-49911000D02*
X89124000Y-49911000D01*
X37338000Y-28956000D02*
X46355000Y-28956000D01*
X39257000Y-34929000D02*
X42025823Y-34929000D01*
X42418000Y-36578823D02*
X41674823Y-37322000D01*
X45099000Y-40771000D02*
X47707000Y-40771000D01*
X36957000Y-30609823D02*
X36957000Y-29337000D01*
X38602000Y-34274000D02*
X39257000Y-34929000D01*
X45466000Y-39372823D02*
X44722823Y-40116000D01*
X48022000Y-42910000D02*
X47238000Y-42910000D01*
X44444000Y-40116000D02*
X45099000Y-40771000D01*
X42025823Y-34929000D02*
X42418000Y-35321177D01*
X44913599Y-37977000D02*
X45466000Y-38529401D01*
X39507000Y-34153000D02*
X39386000Y-34274000D01*
X39386000Y-34274000D02*
X38602000Y-34274000D01*
X45466000Y-38529401D02*
X45466000Y-39372823D01*
X47707000Y-40771000D02*
X48143000Y-41207000D01*
X50562000Y-45704000D02*
X50032000Y-45704000D01*
X41674823Y-37322000D02*
X41396000Y-37322000D01*
X48677000Y-43565000D02*
X50553711Y-43565000D01*
X48143000Y-42789000D02*
X48022000Y-42910000D01*
X48143000Y-41207000D02*
X48143000Y-42789000D01*
X35808000Y-31480000D02*
X36086823Y-31480000D01*
X35808000Y-31480000D02*
X36463000Y-32135000D01*
X36463000Y-32135000D02*
X38766944Y-32135000D01*
X50937000Y-45329000D02*
X50562000Y-45704000D01*
X36957000Y-29337000D02*
X37338000Y-28956000D01*
%TO.N,CS3*%
X53481000Y-48899000D02*
X55759823Y-48899000D01*
X55759823Y-48899000D02*
X56642000Y-49781177D01*
X66421000Y-52832000D02*
X87249000Y-52832000D01*
X65278000Y-59436000D02*
X64018000Y-59436000D01*
X68072000Y-61025000D02*
X68072000Y-62230000D01*
X61986000Y-57404000D02*
X64848599Y-57404000D01*
X68072000Y-62230000D02*
X66812000Y-62230000D01*
X66812000Y-62230000D02*
X66796000Y-62214000D01*
X64848599Y-57404000D02*
X65278000Y-57833401D01*
X61486823Y-56626000D02*
X61208000Y-56626000D01*
X59358000Y-51992000D02*
X59879000Y-52513000D01*
X56642000Y-49781177D02*
X56642000Y-50294823D01*
X59309000Y-45720000D02*
X66421000Y-52832000D01*
X56642000Y-50294823D02*
X55898823Y-51038000D01*
X67122000Y-60075000D02*
X68072000Y-61025000D01*
X65278000Y-57833401D02*
X65278000Y-59436000D01*
X53356000Y-48244000D02*
X52826000Y-48244000D01*
X54864000Y-45720000D02*
X59309000Y-45720000D01*
X62230000Y-54879177D02*
X62230000Y-55882823D01*
X58414000Y-53832000D02*
X59069000Y-54487000D01*
X64018000Y-59436000D02*
X64002000Y-59420000D01*
X64002000Y-59420000D02*
X64657000Y-60075000D01*
X55898823Y-51038000D02*
X55620000Y-51038000D01*
X62230000Y-55882823D02*
X61486823Y-56626000D01*
X55620000Y-51038000D02*
X56574000Y-51992000D01*
X52826000Y-48244000D02*
X53481000Y-48899000D01*
X56574000Y-51992000D02*
X59358000Y-51992000D01*
X61837823Y-54487000D02*
X62230000Y-54879177D01*
X92583000Y-58166000D02*
X94610000Y-58166000D01*
X52826000Y-48244000D02*
X53104823Y-48244000D01*
X59879000Y-53086000D02*
X59133000Y-53832000D01*
X53104823Y-48244000D02*
X54291000Y-47057823D01*
X87249000Y-52832000D02*
X92583000Y-58166000D01*
X54291000Y-47057823D02*
X54291000Y-46293000D01*
X59879000Y-52513000D02*
X59879000Y-53086000D01*
X59069000Y-54487000D02*
X61837823Y-54487000D01*
X59133000Y-53832000D02*
X58414000Y-53832000D01*
X54291000Y-46293000D02*
X54864000Y-45720000D01*
X61208000Y-56626000D02*
X61986000Y-57404000D01*
X64657000Y-60075000D02*
X67122000Y-60075000D01*
%TO.N,CS6*%
X73660000Y-67818000D02*
X74783000Y-68941000D01*
X79326000Y-72390000D02*
X79326000Y-73201000D01*
X75877000Y-68941000D02*
X76454000Y-69518000D01*
X76216000Y-70596000D02*
X75178000Y-70596000D01*
X71055000Y-64327000D02*
X71055000Y-63057000D01*
X71055000Y-63057000D02*
X71882000Y-62230000D01*
X80766000Y-76184000D02*
X81421000Y-76839000D01*
X73660000Y-66215401D02*
X73660000Y-67818000D01*
X81931000Y-76184000D02*
X80766000Y-76184000D01*
X84914000Y-77648112D02*
X84914000Y-78564000D01*
X85090000Y-78740000D02*
X83798000Y-78740000D01*
X81538000Y-74045000D02*
X81915000Y-74422000D01*
X79137000Y-73390000D02*
X77972000Y-73390000D01*
X69590000Y-65008000D02*
X70328701Y-65746701D01*
X81915000Y-74422000D02*
X81915000Y-76168000D01*
X73191300Y-65746701D02*
X73660000Y-66215401D01*
X69590000Y-65008000D02*
X70374000Y-65008000D01*
X70328701Y-65746701D02*
X73191300Y-65746701D01*
X74783000Y-68941000D02*
X75877000Y-68941000D01*
X77972000Y-73390000D02*
X78627000Y-74045000D01*
X81915000Y-76168000D02*
X81931000Y-76184000D01*
X77724000Y-71628000D02*
X78564000Y-71628000D01*
X76454000Y-70358000D02*
X76216000Y-70596000D01*
X78564000Y-71628000D02*
X79326000Y-72390000D01*
X72400000Y-67818000D02*
X72384000Y-67802000D01*
X76454000Y-70358000D02*
X77724000Y-71628000D01*
X73660000Y-67818000D02*
X72400000Y-67818000D01*
X83312000Y-62230000D02*
X85344000Y-64262000D01*
X78627000Y-74045000D02*
X81538000Y-74045000D01*
X84104888Y-76839000D02*
X84914000Y-77648112D01*
X83798000Y-78740000D02*
X83560000Y-78978000D01*
X85344000Y-64262000D02*
X96454000Y-64262000D01*
X81421000Y-76839000D02*
X84104888Y-76839000D01*
X71882000Y-62230000D02*
X83312000Y-62230000D01*
X76454000Y-69518000D02*
X76454000Y-70358000D01*
X79326000Y-73201000D02*
X79137000Y-73390000D01*
X84914000Y-78564000D02*
X85090000Y-78740000D01*
X70374000Y-65008000D02*
X71055000Y-64327000D01*
%TO.N,CS9*%
X93153000Y-86803000D02*
X93218000Y-86868000D01*
X88133000Y-79695000D02*
X91633000Y-79695000D01*
X89986599Y-82550000D02*
X90332300Y-82895701D01*
D31*
X94594396Y-90146000D02*
X94358000Y-90146000D01*
D30*
X87630000Y-80782823D02*
X87630000Y-80198000D01*
X92964000Y-87106000D02*
X93996000Y-88138000D01*
X87124000Y-82550000D02*
X89986599Y-82550000D01*
X90332300Y-83528523D02*
X89302823Y-84558000D01*
X97931000Y-93603000D02*
X100793599Y-93603000D01*
X93153000Y-86041000D02*
X93153000Y-86803000D01*
X87630000Y-80198000D02*
X88133000Y-79695000D01*
X92980000Y-87106000D02*
X92964000Y-87106000D01*
X94358000Y-90146000D02*
X95013000Y-90801000D01*
X91633000Y-79695000D02*
X97790000Y-85852000D01*
X97276000Y-92948000D02*
X97931000Y-93603000D01*
X97790000Y-85852000D02*
X107056000Y-85852000D01*
X89679000Y-85213000D02*
X92325000Y-85213000D01*
X86632823Y-81780000D02*
X87630000Y-80782823D01*
X100793599Y-93603000D02*
X101512300Y-94321701D01*
X95504000Y-88138000D02*
X95504000Y-89278823D01*
X94636823Y-90146000D02*
X94358000Y-90146000D01*
X93218000Y-86868000D02*
X92980000Y-87106000D01*
X97812888Y-90801000D02*
X98501944Y-91490056D01*
X89302823Y-84558000D02*
X89024000Y-84558000D01*
X98501944Y-92000879D02*
X97554823Y-92948000D01*
X86354000Y-81780000D02*
X87124000Y-82550000D01*
X95013000Y-90801000D02*
X97812888Y-90801000D01*
X97554823Y-92948000D02*
X97276000Y-92948000D01*
X89024000Y-84558000D02*
X89679000Y-85213000D01*
X107056000Y-85852000D02*
X107310000Y-86106000D01*
X95504000Y-89278823D02*
X94636823Y-90146000D01*
X101512300Y-94716523D02*
X100478823Y-95750000D01*
X93996000Y-88138000D02*
X95504000Y-88138000D01*
X98501944Y-91490056D02*
X98501944Y-92000879D01*
X92964000Y-87106000D02*
X91688000Y-87106000D01*
X92325000Y-85213000D02*
X93153000Y-86041000D01*
X100478823Y-95750000D02*
X100200000Y-95750000D01*
X90332300Y-82895701D02*
X90332300Y-83528523D01*
X86354000Y-81780000D02*
X86632823Y-81780000D01*
X101512300Y-94321701D02*
X101512300Y-94716523D01*
%TO.N,CS12*%
X109982000Y-103378000D02*
X109482000Y-103878000D01*
X104394000Y-97790000D02*
X103656000Y-98528000D01*
X112292000Y-106910000D02*
X113078000Y-107696000D01*
X106934000Y-99822000D02*
X106934000Y-101346000D01*
X112400000Y-95758000D02*
X104775000Y-95758000D01*
X107696000Y-102108000D02*
X109436599Y-102108000D01*
X109982000Y-102653401D02*
X109982000Y-103378000D01*
X116850000Y-112268000D02*
X116834000Y-112252000D01*
X112522000Y-105156000D02*
X112522000Y-106680000D01*
X112292000Y-106910000D02*
X111376000Y-106910000D01*
X117225000Y-110113000D02*
X118110000Y-110998000D01*
X103656000Y-98528000D02*
X102994000Y-98528000D01*
X106934000Y-101346000D02*
X106910000Y-101322000D01*
X112522000Y-106680000D02*
X112292000Y-106910000D01*
X104775000Y-95758000D02*
X104394000Y-96139000D01*
X104394000Y-96139000D02*
X104394000Y-97790000D01*
X110506000Y-104902000D02*
X112268000Y-104902000D01*
X113078000Y-107696000D02*
X114938711Y-107696000D01*
X106295000Y-99183000D02*
X106934000Y-99822000D01*
X115733000Y-110113000D02*
X117225000Y-110113000D01*
X109482000Y-103878000D02*
X108582000Y-103878000D01*
X112268000Y-104902000D02*
X112522000Y-105156000D01*
X118110000Y-112268000D02*
X116850000Y-112268000D01*
X114938711Y-107696000D02*
X115316000Y-108073289D01*
X115078000Y-109458000D02*
X115733000Y-110113000D01*
X106910000Y-101322000D02*
X105788000Y-101322000D01*
X106934000Y-101346000D02*
X107696000Y-102108000D01*
X102994000Y-98528000D02*
X103649000Y-99183000D01*
X115078000Y-109458000D02*
X114040000Y-109458000D01*
X115316000Y-108073289D02*
X115316000Y-109220000D01*
X115316000Y-109220000D02*
X115078000Y-109458000D01*
X113096000Y-95062000D02*
X112400000Y-95758000D01*
X109482000Y-103878000D02*
X110506000Y-104902000D01*
X103649000Y-99183000D02*
X106295000Y-99183000D01*
X118110000Y-110998000D02*
X118110000Y-112268000D01*
X109436599Y-102108000D02*
X109982000Y-102653401D01*
%TO.N,CS15*%
X125354000Y-120650000D02*
X125346000Y-120642000D01*
X123698000Y-118110000D02*
X122830000Y-118110000D01*
X131826000Y-126492000D02*
X130958000Y-126492000D01*
X128010000Y-123428000D02*
X128915000Y-124333000D01*
X134939000Y-127827000D02*
X134939000Y-128967000D01*
X127000000Y-121412000D02*
X128778000Y-121412000D01*
X129286000Y-122682000D02*
X128540000Y-123428000D01*
X120728000Y-114476000D02*
X120728000Y-102489000D01*
X122830000Y-118110000D02*
X122552000Y-117832000D01*
X119628000Y-115046000D02*
X120283000Y-115701000D01*
X120283000Y-115701000D02*
X122853356Y-115701000D01*
X128540000Y-123428000D02*
X128010000Y-123428000D01*
X120158000Y-115046000D02*
X120728000Y-114476000D01*
X132334000Y-127000000D02*
X134112000Y-127000000D01*
X130958000Y-126492000D02*
X130680000Y-126214000D01*
X131826000Y-124460000D02*
X131826000Y-126492000D01*
X127000000Y-120904000D02*
X127000000Y-121412000D01*
X125975823Y-118487000D02*
X126746000Y-119257177D01*
X124075000Y-118487000D02*
X125975823Y-118487000D01*
X134112000Y-127000000D02*
X134939000Y-127827000D01*
X126746000Y-120650000D02*
X127000000Y-120904000D01*
X134874000Y-129032000D02*
X133498000Y-129032000D01*
X134939000Y-128967000D02*
X134874000Y-129032000D01*
X123698000Y-118110000D02*
X124075000Y-118487000D01*
X123992356Y-117815644D02*
X123698000Y-118110000D01*
X120728000Y-102489000D02*
X118745000Y-102489000D01*
X118745000Y-102489000D02*
X118618000Y-102362000D01*
X133498000Y-129032000D02*
X133474000Y-129008000D01*
X131826000Y-126492000D02*
X132334000Y-127000000D01*
X123992356Y-116840000D02*
X123992356Y-117815644D01*
X119628000Y-115046000D02*
X120158000Y-115046000D01*
X126746000Y-120650000D02*
X125354000Y-120650000D01*
X126746000Y-119257177D02*
X126746000Y-120650000D01*
X131699000Y-124333000D02*
X131826000Y-124460000D01*
X129286000Y-121920000D02*
X129286000Y-122682000D01*
X118618000Y-102362000D02*
X118618000Y-95153000D01*
X128915000Y-124333000D02*
X131699000Y-124333000D01*
X122853356Y-115701000D02*
X123992356Y-116840000D01*
X128778000Y-121412000D02*
X129286000Y-121920000D01*
D31*
%TO.N,Net-(USB-C1-SHIELD)*%
X179574000Y-122678000D02*
X179574000Y-119686000D01*
X179574000Y-119686000D02*
X179586000Y-119674000D01*
X180078000Y-114502000D02*
X179586000Y-114994000D01*
X168398000Y-122932000D02*
X179320000Y-122932000D01*
X179320000Y-122932000D02*
X179574000Y-122678000D01*
X180078000Y-112472500D02*
X180078000Y-114502000D01*
X168426000Y-122904000D02*
X168398000Y-122932000D01*
X179586000Y-114994000D02*
X179586000Y-119674000D01*
X168426000Y-114994000D02*
X168426000Y-119664000D01*
X168426000Y-119664000D02*
X168426000Y-122904000D01*
%TO.N,Net-(USB-C1-CC1)*%
X172756000Y-111608000D02*
X172756000Y-113534000D01*
D30*
X172756000Y-111536000D02*
X173101000Y-111191000D01*
X172756000Y-113534000D02*
X172756000Y-111536000D01*
D31*
%TO.N,Net-(USB-C1-CC2)*%
X175764000Y-111568000D02*
X175756000Y-111576000D01*
X175756000Y-111576000D02*
X175756000Y-113534000D01*
D32*
%TO.N,Net-(R9-Pad2)*%
X171706000Y-115064000D02*
X171831000Y-115189000D01*
X171831000Y-115189000D02*
X176530000Y-115189000D01*
X176306000Y-113534000D02*
X176581000Y-113534000D01*
X176581000Y-115138000D02*
X176581000Y-113534000D01*
X176530000Y-115189000D02*
X176581000Y-115138000D01*
D30*
X171704000Y-112080000D02*
X171704000Y-113532000D01*
X171704000Y-113532000D02*
X171706000Y-113534000D01*
D32*
X171706000Y-113534000D02*
X171706000Y-115064000D01*
D34*
%TO.N,Net-(U2-LX)*%
X155697000Y-115443000D02*
X154384000Y-115443000D01*
X155763000Y-115509000D02*
X155697000Y-115443000D01*
X155763000Y-117615000D02*
X155763000Y-116459000D01*
X155763000Y-116459000D02*
X155763000Y-115509000D01*
D30*
X154874000Y-116459000D02*
X155763000Y-116459000D01*
%TO.N,Net-(U2-FB)*%
X155631000Y-122428000D02*
X154366000Y-122428000D01*
X155631000Y-122428000D02*
X155631000Y-123576000D01*
X154366000Y-122428000D02*
X154366000Y-120462000D01*
X154366000Y-120462000D02*
X154813000Y-120015000D01*
X155631000Y-123576000D02*
X155255000Y-123952000D01*
D34*
%TO.N,+12V*%
X160852000Y-117164000D02*
X157164000Y-117164000D01*
X156713000Y-117615000D02*
X157164000Y-117164000D01*
D30*
X157856000Y-118425000D02*
X157856000Y-117856000D01*
D34*
X160782000Y-129540000D02*
X160782000Y-123698000D01*
X162179000Y-122301000D02*
X162179000Y-118491000D01*
D30*
X155763000Y-120015000D02*
X155763000Y-119708467D01*
D34*
X160782000Y-123698000D02*
X162179000Y-122301000D01*
D30*
X155763000Y-119708467D02*
X156713000Y-118758467D01*
X156713000Y-118758467D02*
X156713000Y-117615000D01*
D34*
X162179000Y-118491000D02*
X160852000Y-117164000D01*
D30*
X157856000Y-117856000D02*
X157164000Y-117164000D01*
%TO.N,Net-(U2-BS)*%
X154234000Y-116459000D02*
X154234000Y-117036000D01*
X154234000Y-117036000D02*
X154813000Y-117615000D01*
%TO.N,Net-(R2-Pad2)*%
X144653000Y-114399000D02*
X143228000Y-115824000D01*
X144653000Y-111379000D02*
X144653000Y-114399000D01*
X144526000Y-111252000D02*
X144653000Y-111379000D01*
X138750000Y-111252000D02*
X144526000Y-111252000D01*
%TD*%
M02*
