M48
; DRILL file {KiCad (7.0.0)} date Sat Mar 18 11:24:01 2023
; FORMAT={-:-/ absolute / metric / decimal}
; #@! TF.CreationDate,2023-03-18T11:24:01-05:00
; #@! TF.GenerationSoftware,Kicad,Pcbnew,(7.0.0)
; #@! TF.FileFunction,Plated,1,4,PTH
FMAT,2
METRIC
; #@! TA.AperFunction,Plated,PTH,ComponentDrill
T1C0.300
; #@! TA.AperFunction,Plated,PTH,ViaDrill
T2C0.400
; #@! TA.AperFunction,Plated,PTH,ComponentDrill
T3C0.400
; #@! TA.AperFunction,Plated,PTH,ComponentDrill
T4C0.450
; #@! TA.AperFunction,Plated,PTH,ComponentDrill
T5C0.500
; #@! TA.AperFunction,Plated,PTH,ComponentDrill
T6C1.200
%
G90
G05
T1
X144.34Y-102.318
X144.34Y-103.418
X144.891Y-101.768
X144.891Y-102.868
X144.891Y-103.968
X145.44Y-102.318
X145.44Y-103.418
X145.99Y-101.768
X145.99Y-102.868
X145.99Y-103.968
X146.54Y-102.318
X146.54Y-103.418
T2
X27.305Y-37.592
X30.861Y-39.497
X35.306Y-42.164
X39.243Y-44.196
X42.418Y-45.466
X44.196Y-54.483
X45.847Y-46.863
X47.625Y-56.261
X52.07Y-58.928
X54.864Y-25.019
X55.626Y-60.706
X58.928Y-29.718
X59.055Y-61.976
X60.833Y-70.993
X62.357Y-63.5
X62.865Y-25.781
X65.151Y-73.787
X68.834Y-75.692
X72.517Y-77.47
X75.692Y-78.74
X78.232Y-88.519
X79.375Y-80.518
X81.915Y-90.424
X85.344Y-92.202
X88.773Y-93.599
X92.202Y-95.123
X94.615Y-104.902
X96.139Y-97.282
X98.298Y-106.934
X102.108Y-108.966
X106.045Y-110.871
X107.061Y-73.406
X107.061Y-75.565
X107.061Y-77.724
X107.188Y-79.883
X107.315Y-82.296
X108.839Y-111.887
X109.855Y-120.142
X110.744Y-73.533
X110.744Y-81.661
X112.268Y-113.411
X112.649Y-121.285
X116.332Y-123.19
X117.602Y-82.296
X117.665Y-73.85
X120.015Y-124.841
X122.809Y-80.391
X123.571Y-126.492
X123.698Y-73.406
X125.73Y-85.344
X125.984Y-73.406
X127.254Y-128.397
X127.508Y-104.648
X128.389Y-77.097
X129.413Y-101.854
X131.572Y-101.346
X132.461Y-93.726
X133.604Y-77.089
X134.366Y-86.106
X145.796Y-148.082
X149.479Y-112.649
X151.638Y-120.904
X158.242Y-135.763
X158.877Y-122.428
X161.163Y-95.25
X166.243Y-109.728
X168.91Y-102.616
X172.212Y-105.664
X178.943Y-109.982
T3
X171.262Y-115.694
X171.262Y-117.094
X172.212Y-115.694
X172.212Y-117.094
X173.162Y-115.694
X174.062Y-115.694
X174.062Y-117.094
X174.962Y-115.694
X174.962Y-117.094
X175.862Y-117.094
X176.812Y-115.694
X176.812Y-117.094
X177.762Y-115.694
X177.762Y-117.094
T4
X113.384Y-76.87
X113.384Y-78.67
X115.184Y-76.87
X115.184Y-78.67
T6
X160.782Y-129.54
X164.318Y-126.004
T5
G00X172.962Y-114.464
M15
G01X172.062Y-114.464
M16
G05
G00X172.962Y-118.324
M15
G01X172.062Y-118.324
M16
G05
G00X176.962Y-114.464
M15
G01X176.062Y-114.464
M16
G05
G00X176.962Y-118.324
M15
G01X176.062Y-118.324
M16
G05
T0
M30
