%TF.GenerationSoftware,KiCad,Pcbnew,(7.0.0)*%
%TF.CreationDate,2023-03-18T11:24:03-05:00*%
%TF.ProjectId,LED Fan Blade,4c454420-4661-46e2-9042-6c6164652e6b,rev?*%
%TF.SameCoordinates,Original*%
%TF.FileFunction,Drillmap*%
%TF.FilePolarity,Positive*%
%FSLAX45Y45*%
G04 Gerber Fmt 4.5, Leading zero omitted, Abs format (unit mm)*
G04 Created by KiCad (PCBNEW (7.0.0)) date 2023-03-18 11:24:03*
%MOMM*%
%LPD*%
G01*
G04 APERTURE LIST*
%ADD10C,0.100000*%
%ADD11C,0.200000*%
G04 APERTURE END LIST*
D10*
X14907400Y-14033500D02*
G75*
G03*
X14907400Y-14033500I-150000J0D01*
G01*
X13713600Y-13855700D02*
G75*
G03*
X13713600Y-13855700I-150000J0D01*
G01*
X1625600Y-2870200D02*
X14630400Y-15900400D01*
X15097900Y-12839700D02*
G75*
G03*
X15097900Y-12839700I-150000J0D01*
G01*
X5994400Y-2082800D02*
X19354800Y-11303000D01*
X19354800Y-11303000D02*
X14630400Y-15900400D01*
X1625600Y-2870200D02*
X5994400Y-2082800D01*
X14749400Y-13352400D02*
G75*
G03*
X14749400Y-13352400I-500000J0D01*
G01*
D11*
X1868219Y-16198876D02*
X1868219Y-15998876D01*
X1868219Y-15998876D02*
X1915838Y-15998876D01*
X1915838Y-15998876D02*
X1944409Y-16008400D01*
X1944409Y-16008400D02*
X1963457Y-16027448D01*
X1963457Y-16027448D02*
X1972981Y-16046495D01*
X1972981Y-16046495D02*
X1982505Y-16084590D01*
X1982505Y-16084590D02*
X1982505Y-16113162D01*
X1982505Y-16113162D02*
X1972981Y-16151257D01*
X1972981Y-16151257D02*
X1963457Y-16170305D01*
X1963457Y-16170305D02*
X1944409Y-16189352D01*
X1944409Y-16189352D02*
X1915838Y-16198876D01*
X1915838Y-16198876D02*
X1868219Y-16198876D01*
X2068219Y-16198876D02*
X2068219Y-16065543D01*
X2068219Y-16103638D02*
X2077743Y-16084590D01*
X2077743Y-16084590D02*
X2087267Y-16075067D01*
X2087267Y-16075067D02*
X2106314Y-16065543D01*
X2106314Y-16065543D02*
X2125362Y-16065543D01*
X2192029Y-16198876D02*
X2192029Y-16065543D01*
X2192029Y-15998876D02*
X2182505Y-16008400D01*
X2182505Y-16008400D02*
X2192029Y-16017924D01*
X2192029Y-16017924D02*
X2201552Y-16008400D01*
X2201552Y-16008400D02*
X2192029Y-15998876D01*
X2192029Y-15998876D02*
X2192029Y-16017924D01*
X2315838Y-16198876D02*
X2296790Y-16189352D01*
X2296790Y-16189352D02*
X2287267Y-16170305D01*
X2287267Y-16170305D02*
X2287267Y-15998876D01*
X2420600Y-16198876D02*
X2401552Y-16189352D01*
X2401552Y-16189352D02*
X2392029Y-16170305D01*
X2392029Y-16170305D02*
X2392029Y-15998876D01*
X2616790Y-16198876D02*
X2616790Y-15998876D01*
X2616790Y-15998876D02*
X2683457Y-16141733D01*
X2683457Y-16141733D02*
X2750124Y-15998876D01*
X2750124Y-15998876D02*
X2750124Y-16198876D01*
X2931076Y-16198876D02*
X2931076Y-16094114D01*
X2931076Y-16094114D02*
X2921552Y-16075067D01*
X2921552Y-16075067D02*
X2902505Y-16065543D01*
X2902505Y-16065543D02*
X2864409Y-16065543D01*
X2864409Y-16065543D02*
X2845362Y-16075067D01*
X2931076Y-16189352D02*
X2912028Y-16198876D01*
X2912028Y-16198876D02*
X2864409Y-16198876D01*
X2864409Y-16198876D02*
X2845362Y-16189352D01*
X2845362Y-16189352D02*
X2835838Y-16170305D01*
X2835838Y-16170305D02*
X2835838Y-16151257D01*
X2835838Y-16151257D02*
X2845362Y-16132209D01*
X2845362Y-16132209D02*
X2864409Y-16122686D01*
X2864409Y-16122686D02*
X2912028Y-16122686D01*
X2912028Y-16122686D02*
X2931076Y-16113162D01*
X3026314Y-16065543D02*
X3026314Y-16265543D01*
X3026314Y-16075067D02*
X3045362Y-16065543D01*
X3045362Y-16065543D02*
X3083457Y-16065543D01*
X3083457Y-16065543D02*
X3102505Y-16075067D01*
X3102505Y-16075067D02*
X3112028Y-16084590D01*
X3112028Y-16084590D02*
X3121552Y-16103638D01*
X3121552Y-16103638D02*
X3121552Y-16160781D01*
X3121552Y-16160781D02*
X3112028Y-16179828D01*
X3112028Y-16179828D02*
X3102505Y-16189352D01*
X3102505Y-16189352D02*
X3083457Y-16198876D01*
X3083457Y-16198876D02*
X3045362Y-16198876D01*
X3045362Y-16198876D02*
X3026314Y-16189352D01*
X3207267Y-16179828D02*
X3216790Y-16189352D01*
X3216790Y-16189352D02*
X3207267Y-16198876D01*
X3207267Y-16198876D02*
X3197743Y-16189352D01*
X3197743Y-16189352D02*
X3207267Y-16179828D01*
X3207267Y-16179828D02*
X3207267Y-16198876D01*
X3207267Y-16075067D02*
X3216790Y-16084590D01*
X3216790Y-16084590D02*
X3207267Y-16094114D01*
X3207267Y-16094114D02*
X3197743Y-16084590D01*
X3197743Y-16084590D02*
X3207267Y-16075067D01*
X3207267Y-16075067D02*
X3207267Y-16094114D01*
M02*
