%TF.GenerationSoftware,KiCad,Pcbnew,(7.0.0)*%
%TF.CreationDate,2023-03-18T11:24:22-05:00*%
%TF.ProjectId,LED Fan Blade,4c454420-4661-46e2-9042-6c6164652e6b,rev?*%
%TF.SameCoordinates,Original*%
%TF.FileFunction,Paste,Top*%
%TF.FilePolarity,Positive*%
%FSLAX46Y46*%
G04 Gerber Fmt 4.6, Leading zero omitted, Abs format (unit mm)*
G04 Created by KiCad (PCBNEW (7.0.0)) date 2023-03-18 11:24:22*
%MOMM*%
%LPD*%
G01*
G04 APERTURE LIST*
G04 Aperture macros list*
%AMRoundRect*
0 Rectangle with rounded corners*
0 $1 Rounding radius*
0 $2 $3 $4 $5 $6 $7 $8 $9 X,Y pos of 4 corners*
0 Add a 4 corners polygon primitive as box body*
4,1,4,$2,$3,$4,$5,$6,$7,$8,$9,$2,$3,0*
0 Add four circle primitives for the rounded corners*
1,1,$1+$1,$2,$3*
1,1,$1+$1,$4,$5*
1,1,$1+$1,$6,$7*
1,1,$1+$1,$8,$9*
0 Add four rect primitives between the rounded corners*
20,1,$1+$1,$2,$3,$4,$5,0*
20,1,$1+$1,$4,$5,$6,$7,0*
20,1,$1+$1,$6,$7,$8,$9,0*
20,1,$1+$1,$8,$9,$2,$3,0*%
G04 Aperture macros list end*
%ADD10RoundRect,0.175000X-0.425000X-0.175000X0.425000X-0.175000X0.425000X0.175000X-0.425000X0.175000X0*%
%ADD11RoundRect,0.201500X-0.201500X-0.230500X0.201500X-0.230500X0.201500X0.230500X-0.201500X0.230500X0*%
%ADD12R,3.430000X1.780000*%
%ADD13RoundRect,0.201500X0.230500X-0.201500X0.230500X0.201500X-0.230500X0.201500X-0.230500X-0.201500X0*%
%ADD14RoundRect,0.201500X0.201500X0.230500X-0.201500X0.230500X-0.201500X-0.230500X0.201500X-0.230500X0*%
%ADD15RoundRect,0.350000X0.350000X0.710000X-0.350000X0.710000X-0.350000X-0.710000X0.350000X-0.710000X0*%
%ADD16O,0.200000X0.350000*%
%ADD17O,0.350000X0.200000*%
%ADD18R,0.300000X0.300000*%
%ADD19RoundRect,0.201500X-0.230500X0.201500X-0.230500X-0.201500X0.230500X-0.201500X0.230500X0.201500X0*%
%ADD20RoundRect,0.200000X-0.250000X0.200000X-0.250000X-0.200000X0.250000X-0.200000X0.250000X0.200000X0*%
%ADD21R,1.000000X0.800000*%
%ADD22R,1.500000X0.900000*%
%ADD23R,0.700000X0.700000*%
%ADD24RoundRect,0.200000X0.250000X-0.200000X0.250000X0.200000X-0.250000X0.200000X-0.250000X-0.200000X0*%
%ADD25RoundRect,0.200000X-0.200000X-0.250000X0.200000X-0.250000X0.200000X0.250000X-0.200000X0.250000X0*%
%ADD26RoundRect,0.540000X-1.135000X-0.540000X1.135000X-0.540000X1.135000X0.540000X-1.135000X0.540000X0*%
%ADD27RoundRect,0.150000X0.150000X-0.350000X0.150000X0.350000X-0.150000X0.350000X-0.150000X-0.350000X0*%
G04 APERTURE END LIST*
D10*
%TO.C,LED22*%
X94358000Y-89146000D03*
X97158000Y-89146000D03*
X97158000Y-90146000D03*
X94358000Y-90146000D03*
%TD*%
%TO.C,LED6*%
X119628000Y-114046000D03*
X122428000Y-114046000D03*
X122428000Y-115046000D03*
X119628000Y-115046000D03*
%TD*%
%TO.C,LED12*%
X122552000Y-116832000D03*
X125352000Y-116832000D03*
X125352000Y-117832000D03*
X122552000Y-117832000D03*
%TD*%
D11*
%TO.C,BL:2*%
X96021000Y-65786000D03*
X97527000Y-65786000D03*
%TD*%
D10*
%TO.C,LED17*%
X108582000Y-102878000D03*
X111382000Y-102878000D03*
X111382000Y-103878000D03*
X108582000Y-103878000D03*
%TD*%
%TO.C,LED1*%
X35808000Y-30480000D03*
X38608000Y-30480000D03*
X38608000Y-31480000D03*
X35808000Y-31480000D03*
%TD*%
%TO.C,LED28*%
X97276000Y-91948000D03*
X100076000Y-91948000D03*
X100076000Y-92948000D03*
X97276000Y-92948000D03*
%TD*%
D12*
%TO.C,TestHallSense1*%
X54736999Y-30733999D03*
%TD*%
D11*
%TO.C,GR:3*%
X106852000Y-90678000D03*
X108358000Y-90678000D03*
%TD*%
D13*
%TO.C,GR:4*%
X116205000Y-97527000D03*
X116205000Y-96021000D03*
%TD*%
D10*
%TO.C,LED5*%
X102994000Y-97528000D03*
X105794000Y-97528000D03*
X105794000Y-98528000D03*
X102994000Y-98528000D03*
%TD*%
D12*
%TO.C,Test3.3V1*%
X146811999Y-150748999D03*
%TD*%
D11*
%TO.C,RD:2*%
X96021000Y-63754000D03*
X97527000Y-63754000D03*
%TD*%
D10*
%TO.C,LED19*%
X44444000Y-39116000D03*
X47244000Y-39116000D03*
X47244000Y-40116000D03*
X44444000Y-40116000D03*
%TD*%
D14*
%TO.C,R6*%
X121276000Y-78486000D03*
X119770000Y-78486000D03*
%TD*%
D10*
%TO.C,LED16*%
X91688000Y-86106000D03*
X94488000Y-86106000D03*
X94488000Y-87106000D03*
X91688000Y-87106000D03*
%TD*%
D15*
%TO.C,L1*%
X156841000Y-112649000D03*
X152785000Y-112649000D03*
%TD*%
D12*
%TO.C,TestMOSI1*%
X134365999Y-80390999D03*
%TD*%
D16*
%TO.C,LED-Driver1*%
X116083999Y-75519999D03*
X115683999Y-75519999D03*
X115283999Y-75519999D03*
X114883999Y-75519999D03*
X114483999Y-75519999D03*
X114083999Y-75519999D03*
X113683999Y-75519999D03*
X113283999Y-75519999D03*
X112883999Y-75519999D03*
X112483999Y-75519999D03*
D17*
X111883999Y-75969999D03*
X111883999Y-76369999D03*
X111883999Y-76769999D03*
X111883999Y-77169999D03*
X111883999Y-77569999D03*
X111883999Y-77969999D03*
X111883999Y-78369999D03*
X111883999Y-78769999D03*
X111883999Y-79169999D03*
X111883999Y-79569999D03*
D16*
X112483999Y-80019999D03*
X112883999Y-80019999D03*
X113283999Y-80019999D03*
X113683999Y-80019999D03*
X114083999Y-80019999D03*
X114483999Y-80019999D03*
X114883999Y-80019999D03*
X115283999Y-80019999D03*
X115683999Y-80019999D03*
X116083999Y-80019999D03*
D17*
X116683999Y-79569999D03*
X116683999Y-79169999D03*
X116683999Y-78769999D03*
X116683999Y-78369999D03*
X116683999Y-77969999D03*
X116683999Y-77569999D03*
X116683999Y-77169999D03*
X116683999Y-76769999D03*
X116683999Y-76369999D03*
X116683999Y-75969999D03*
D18*
X115183999Y-76869999D03*
X113383999Y-76869999D03*
X115183999Y-78669999D03*
X113383999Y-78669999D03*
%TD*%
D11*
%TO.C,BL:3*%
X106877000Y-87884000D03*
X108383000Y-87884000D03*
%TD*%
D13*
%TO.C,BL:5*%
X120523000Y-95495000D03*
X120523000Y-93989000D03*
%TD*%
D19*
%TO.C,R3*%
X172720000Y-109991000D03*
X172720000Y-111497000D03*
%TD*%
D20*
%TO.C,Cin1*%
X159512000Y-118807000D03*
X159512000Y-120207000D03*
%TD*%
D10*
%TO.C,LED21*%
X77972000Y-72390000D03*
X80772000Y-72390000D03*
X80772000Y-73390000D03*
X77972000Y-73390000D03*
%TD*%
D13*
%TO.C,BL:4*%
X114173000Y-96257000D03*
X114173000Y-94751000D03*
%TD*%
D10*
%TO.C,LED13*%
X41396000Y-36322000D03*
X44196000Y-36322000D03*
X44196000Y-37322000D03*
X41396000Y-37322000D03*
%TD*%
%TO.C,LED30*%
X130680000Y-125214000D03*
X133480000Y-125214000D03*
X133480000Y-126214000D03*
X130680000Y-126214000D03*
%TD*%
%TO.C,LED14*%
X58414000Y-52832000D03*
X61214000Y-52832000D03*
X61214000Y-53832000D03*
X58414000Y-53832000D03*
%TD*%
%TO.C,LED35*%
X116834000Y-111252000D03*
X119634000Y-111252000D03*
X119634000Y-112252000D03*
X116834000Y-112252000D03*
%TD*%
D11*
%TO.C,R2*%
X137677000Y-111252000D03*
X139183000Y-111252000D03*
%TD*%
D10*
%TO.C,LED26*%
X64002000Y-58420000D03*
X66802000Y-58420000D03*
X66802000Y-59420000D03*
X64002000Y-59420000D03*
%TD*%
D11*
%TO.C,R7*%
X150876000Y-123571000D03*
X152382000Y-123571000D03*
%TD*%
D10*
%TO.C,LED25*%
X47238000Y-41910000D03*
X50038000Y-41910000D03*
X50038000Y-42910000D03*
X47238000Y-42910000D03*
%TD*%
%TO.C,LED11*%
X105788000Y-100322000D03*
X108588000Y-100322000D03*
X108588000Y-101322000D03*
X105788000Y-101322000D03*
%TD*%
D12*
%TO.C,TestSS1*%
X125983999Y-89026999D03*
%TD*%
D11*
%TO.C,GR:2*%
X95894000Y-68453000D03*
X97400000Y-68453000D03*
%TD*%
D10*
%TO.C,LED2*%
X52826000Y-47244000D03*
X55626000Y-47244000D03*
X55626000Y-48244000D03*
X52826000Y-48244000D03*
%TD*%
D11*
%TO.C,RD:3*%
X106943000Y-85217000D03*
X108449000Y-85217000D03*
%TD*%
D21*
%TO.C,HallSensor1*%
X57940499Y-24195999D03*
X60340499Y-25145999D03*
X57940499Y-26095999D03*
%TD*%
D10*
%TO.C,LED27*%
X80766000Y-75184000D03*
X83566000Y-75184000D03*
X83566000Y-76184000D03*
X80766000Y-76184000D03*
%TD*%
D22*
%TO.C,ESP1*%
X135730499Y-96667999D03*
X135730499Y-98167999D03*
X135730499Y-99667999D03*
X135730499Y-101167999D03*
X135730499Y-102667999D03*
X135730499Y-104167999D03*
X135730499Y-105667999D03*
X135730499Y-107167999D03*
X135730499Y-108667999D03*
X153230499Y-108667999D03*
X153230499Y-107167999D03*
X153230499Y-105667999D03*
X153230499Y-104167999D03*
X153230499Y-102667999D03*
X153230499Y-101167999D03*
X153230499Y-99667999D03*
X153230499Y-98167999D03*
X153230499Y-96667999D03*
D23*
X144340499Y-101767999D03*
X145440499Y-101767999D03*
X146540499Y-101767999D03*
X144340499Y-102867999D03*
X145440499Y-102867999D03*
X146540499Y-102867999D03*
X144340499Y-103967999D03*
X145440499Y-103967999D03*
X146540499Y-103967999D03*
%TD*%
D11*
%TO.C,RD:0*%
X91358000Y-52578000D03*
X92864000Y-52578000D03*
%TD*%
D10*
%TO.C,LED23*%
X111376000Y-105910000D03*
X114176000Y-105910000D03*
X114176000Y-106910000D03*
X111376000Y-106910000D03*
%TD*%
%TO.C,LED9*%
X72384000Y-66802000D03*
X75184000Y-66802000D03*
X75184000Y-67802000D03*
X72384000Y-67802000D03*
%TD*%
D20*
%TO.C,Cout1*%
X150495000Y-117029000D03*
X150495000Y-118429000D03*
%TD*%
D10*
%TO.C,LED24*%
X128010000Y-122428000D03*
X130810000Y-122428000D03*
X130810000Y-123428000D03*
X128010000Y-123428000D03*
%TD*%
%TO.C,LED15*%
X75178000Y-69596000D03*
X77978000Y-69596000D03*
X77978000Y-70596000D03*
X75178000Y-70596000D03*
%TD*%
%TO.C,LED10*%
X89024000Y-83558000D03*
X91824000Y-83558000D03*
X91824000Y-84558000D03*
X89024000Y-84558000D03*
%TD*%
D19*
%TO.C,R9*%
X170688000Y-110118000D03*
X170688000Y-111624000D03*
%TD*%
D10*
%TO.C,LED18*%
X125346000Y-119642000D03*
X128146000Y-119642000D03*
X128146000Y-120642000D03*
X125346000Y-120642000D03*
%TD*%
D12*
%TO.C,TestGND1*%
X159511999Y-138683999D03*
%TD*%
D10*
%TO.C,LED34*%
X100200000Y-94750000D03*
X103000000Y-94750000D03*
X103000000Y-95750000D03*
X100200000Y-95750000D03*
%TD*%
D13*
%TO.C,RD:5*%
X118745000Y-96765000D03*
X118745000Y-95259000D03*
%TD*%
%TO.C,RD:4*%
X112522000Y-94987000D03*
X112522000Y-93481000D03*
%TD*%
D14*
%TO.C,R1*%
X180511000Y-112472500D03*
X179005000Y-112472500D03*
%TD*%
D10*
%TO.C,LED31*%
X50032000Y-44704000D03*
X52832000Y-44704000D03*
X52832000Y-45704000D03*
X50032000Y-45704000D03*
%TD*%
D11*
%TO.C,BL:0*%
X91322000Y-54102000D03*
X92828000Y-54102000D03*
%TD*%
D10*
%TO.C,LED20*%
X61208000Y-55626000D03*
X64008000Y-55626000D03*
X64008000Y-56626000D03*
X61208000Y-56626000D03*
%TD*%
D24*
%TO.C,CB1*%
X153035000Y-117540000D03*
X153035000Y-116140000D03*
%TD*%
D12*
%TO.C,TestMISO1*%
X137413999Y-85851999D03*
%TD*%
D10*
%TO.C,LED4*%
X86354000Y-80780000D03*
X89154000Y-80780000D03*
X89154000Y-81780000D03*
X86354000Y-81780000D03*
%TD*%
%TO.C,LED8*%
X55620000Y-50038000D03*
X58420000Y-50038000D03*
X58420000Y-51038000D03*
X55620000Y-51038000D03*
%TD*%
D11*
%TO.C,R8*%
X155198000Y-122428000D03*
X156704000Y-122428000D03*
%TD*%
D25*
%TO.C,C4*%
X155002000Y-125349000D03*
X156402000Y-125349000D03*
%TD*%
D26*
%TO.C,Boot1*%
X133378000Y-115824000D03*
X143228000Y-115824000D03*
%TD*%
D10*
%TO.C,LED32*%
X66796000Y-61214000D03*
X69596000Y-61214000D03*
X69596000Y-62214000D03*
X66796000Y-62214000D03*
%TD*%
D20*
%TO.C,VCAP1*%
X119380000Y-80072000D03*
X119380000Y-81472000D03*
%TD*%
D10*
%TO.C,LED33*%
X83560000Y-77978000D03*
X86360000Y-77978000D03*
X86360000Y-78978000D03*
X83560000Y-78978000D03*
%TD*%
%TO.C,LED3*%
X69590000Y-64008000D03*
X72390000Y-64008000D03*
X72390000Y-65008000D03*
X69590000Y-65008000D03*
%TD*%
%TO.C,LED36*%
X133474000Y-128008000D03*
X136274000Y-128008000D03*
X136274000Y-129008000D03*
X133474000Y-129008000D03*
%TD*%
D11*
%TO.C,GR:1*%
X94309000Y-61976000D03*
X95815000Y-61976000D03*
%TD*%
%TO.C,BL:1*%
X94243000Y-59944000D03*
X95749000Y-59944000D03*
%TD*%
D19*
%TO.C,R4*%
X176403000Y-110245000D03*
X176403000Y-111751000D03*
%TD*%
D11*
%TO.C,GR:0*%
X91322000Y-55499000D03*
X92828000Y-55499000D03*
%TD*%
D12*
%TO.C,TestCLK1*%
X125983999Y-98678999D03*
%TD*%
D10*
%TO.C,LED7*%
X38602000Y-33274000D03*
X41402000Y-33274000D03*
X41402000Y-34274000D03*
X38602000Y-34274000D03*
%TD*%
D13*
%TO.C,R5*%
X131445000Y-106281000D03*
X131445000Y-104775000D03*
%TD*%
%TO.C,GR:5*%
X122428000Y-94479000D03*
X122428000Y-92973000D03*
%TD*%
D10*
%TO.C,LED29*%
X114040000Y-108458000D03*
X116840000Y-108458000D03*
X116840000Y-109458000D03*
X114040000Y-109458000D03*
%TD*%
D27*
%TO.C,VReg1*%
X154813000Y-120015000D03*
X155763000Y-120015000D03*
X156713000Y-120015000D03*
X156713000Y-117615000D03*
X155763000Y-117615000D03*
X154813000Y-117615000D03*
%TD*%
D11*
%TO.C,RD:1*%
X94177000Y-58166000D03*
X95683000Y-58166000D03*
%TD*%
M02*
