%TF.GenerationSoftware,KiCad,Pcbnew,(7.0.0)*%
%TF.CreationDate,2023-03-18T11:24:03-05:00*%
%TF.ProjectId,LED Fan Blade,4c454420-4661-46e2-9042-6c6164652e6b,rev?*%
%TF.SameCoordinates,Original*%
%TF.FileFunction,Drillmap*%
%TF.FilePolarity,Positive*%
%FSLAX45Y45*%
G04 Gerber Fmt 4.5, Leading zero omitted, Abs format (unit mm)*
G04 Created by KiCad (PCBNEW (7.0.0)) date 2023-03-18 11:24:03*
%MOMM*%
%LPD*%
G01*
G04 APERTURE LIST*
%ADD10C,0.100000*%
%ADD11C,0.200000*%
%ADD12C,0.030000*%
%ADD13C,0.040000*%
%ADD14C,0.045000*%
%ADD15C,0.050000*%
%ADD16C,0.120000*%
G04 APERTURE END LIST*
D10*
X14907400Y-14033500D02*
G75*
G03*
X14907400Y-14033500I-150000J0D01*
G01*
X13713600Y-13855700D02*
G75*
G03*
X13713600Y-13855700I-150000J0D01*
G01*
X1625600Y-2870200D02*
X14630400Y-15900400D01*
X15097900Y-12839700D02*
G75*
G03*
X15097900Y-12839700I-150000J0D01*
G01*
X5994400Y-2082800D02*
X19354800Y-11303000D01*
X19354800Y-11303000D02*
X14630400Y-15900400D01*
X1625600Y-2870200D02*
X5994400Y-2082800D01*
X14749400Y-13352400D02*
G75*
G03*
X14749400Y-13352400I-500000J0D01*
G01*
D11*
D12*
X14419050Y-10216800D02*
X14449050Y-10246800D01*
X14449050Y-10216800D02*
X14419050Y-10246800D01*
X14419050Y-10326800D02*
X14449050Y-10356800D01*
X14449050Y-10326800D02*
X14419050Y-10356800D01*
X14474050Y-10161800D02*
X14504050Y-10191800D01*
X14504050Y-10161800D02*
X14474050Y-10191800D01*
X14474050Y-10271800D02*
X14504050Y-10301800D01*
X14504050Y-10271800D02*
X14474050Y-10301800D01*
X14474050Y-10381800D02*
X14504050Y-10411800D01*
X14504050Y-10381800D02*
X14474050Y-10411800D01*
X14529050Y-10216800D02*
X14559050Y-10246800D01*
X14559050Y-10216800D02*
X14529050Y-10246800D01*
X14529050Y-10326800D02*
X14559050Y-10356800D01*
X14559050Y-10326800D02*
X14529050Y-10356800D01*
X14584050Y-10161800D02*
X14614050Y-10191800D01*
X14614050Y-10161800D02*
X14584050Y-10191800D01*
X14584050Y-10271800D02*
X14614050Y-10301800D01*
X14614050Y-10271800D02*
X14584050Y-10301800D01*
X14584050Y-10381800D02*
X14614050Y-10411800D01*
X14614050Y-10381800D02*
X14584050Y-10411800D01*
X14639050Y-10216800D02*
X14669050Y-10246800D01*
X14669050Y-10216800D02*
X14639050Y-10246800D01*
X14639050Y-10326800D02*
X14669050Y-10356800D01*
X14669050Y-10326800D02*
X14639050Y-10356800D01*
D13*
X2750500Y-3759200D02*
G75*
G03*
X2750500Y-3759200I-20000J0D01*
G01*
X3106100Y-3949700D02*
G75*
G03*
X3106100Y-3949700I-20000J0D01*
G01*
X3550600Y-4216400D02*
G75*
G03*
X3550600Y-4216400I-20000J0D01*
G01*
X3944300Y-4419600D02*
G75*
G03*
X3944300Y-4419600I-20000J0D01*
G01*
X4261800Y-4546600D02*
G75*
G03*
X4261800Y-4546600I-20000J0D01*
G01*
X4439600Y-5448300D02*
G75*
G03*
X4439600Y-5448300I-20000J0D01*
G01*
X4604700Y-4686300D02*
G75*
G03*
X4604700Y-4686300I-20000J0D01*
G01*
X4782500Y-5626100D02*
G75*
G03*
X4782500Y-5626100I-20000J0D01*
G01*
X5227000Y-5892800D02*
G75*
G03*
X5227000Y-5892800I-20000J0D01*
G01*
X5506400Y-2501900D02*
G75*
G03*
X5506400Y-2501900I-20000J0D01*
G01*
X5582600Y-6070600D02*
G75*
G03*
X5582600Y-6070600I-20000J0D01*
G01*
X5912800Y-2971800D02*
G75*
G03*
X5912800Y-2971800I-20000J0D01*
G01*
X5925500Y-6197600D02*
G75*
G03*
X5925500Y-6197600I-20000J0D01*
G01*
X6103300Y-7099300D02*
G75*
G03*
X6103300Y-7099300I-20000J0D01*
G01*
X6255700Y-6350000D02*
G75*
G03*
X6255700Y-6350000I-20000J0D01*
G01*
X6306500Y-2578100D02*
G75*
G03*
X6306500Y-2578100I-20000J0D01*
G01*
X6535100Y-7378700D02*
G75*
G03*
X6535100Y-7378700I-20000J0D01*
G01*
X6903400Y-7569200D02*
G75*
G03*
X6903400Y-7569200I-20000J0D01*
G01*
X7271700Y-7747000D02*
G75*
G03*
X7271700Y-7747000I-20000J0D01*
G01*
X7589200Y-7874000D02*
G75*
G03*
X7589200Y-7874000I-20000J0D01*
G01*
X7843200Y-8851900D02*
G75*
G03*
X7843200Y-8851900I-20000J0D01*
G01*
X7957500Y-8051800D02*
G75*
G03*
X7957500Y-8051800I-20000J0D01*
G01*
X8211500Y-9042400D02*
G75*
G03*
X8211500Y-9042400I-20000J0D01*
G01*
X8554400Y-9220200D02*
G75*
G03*
X8554400Y-9220200I-20000J0D01*
G01*
X8897300Y-9359900D02*
G75*
G03*
X8897300Y-9359900I-20000J0D01*
G01*
X9240200Y-9512300D02*
G75*
G03*
X9240200Y-9512300I-20000J0D01*
G01*
X9481500Y-10490200D02*
G75*
G03*
X9481500Y-10490200I-20000J0D01*
G01*
X9633900Y-9728200D02*
G75*
G03*
X9633900Y-9728200I-20000J0D01*
G01*
X9849800Y-10693400D02*
G75*
G03*
X9849800Y-10693400I-20000J0D01*
G01*
X10230800Y-10896600D02*
G75*
G03*
X10230800Y-10896600I-20000J0D01*
G01*
X10624500Y-11087100D02*
G75*
G03*
X10624500Y-11087100I-20000J0D01*
G01*
X10726100Y-7340600D02*
G75*
G03*
X10726100Y-7340600I-20000J0D01*
G01*
X10726100Y-7556500D02*
G75*
G03*
X10726100Y-7556500I-20000J0D01*
G01*
X10726100Y-7772400D02*
G75*
G03*
X10726100Y-7772400I-20000J0D01*
G01*
X10738800Y-7988300D02*
G75*
G03*
X10738800Y-7988300I-20000J0D01*
G01*
X10751500Y-8229600D02*
G75*
G03*
X10751500Y-8229600I-20000J0D01*
G01*
X10903900Y-11188700D02*
G75*
G03*
X10903900Y-11188700I-20000J0D01*
G01*
X11005500Y-12014200D02*
G75*
G03*
X11005500Y-12014200I-20000J0D01*
G01*
X11094400Y-7353300D02*
G75*
G03*
X11094400Y-7353300I-20000J0D01*
G01*
X11094400Y-8166100D02*
G75*
G03*
X11094400Y-8166100I-20000J0D01*
G01*
X11246800Y-11341100D02*
G75*
G03*
X11246800Y-11341100I-20000J0D01*
G01*
X11284900Y-12128500D02*
G75*
G03*
X11284900Y-12128500I-20000J0D01*
G01*
X11653200Y-12319000D02*
G75*
G03*
X11653200Y-12319000I-20000J0D01*
G01*
X11780200Y-8229600D02*
G75*
G03*
X11780200Y-8229600I-20000J0D01*
G01*
X11786550Y-7385050D02*
G75*
G03*
X11786550Y-7385050I-20000J0D01*
G01*
X12021500Y-12484100D02*
G75*
G03*
X12021500Y-12484100I-20000J0D01*
G01*
X12300900Y-8039100D02*
G75*
G03*
X12300900Y-8039100I-20000J0D01*
G01*
X12377100Y-12649200D02*
G75*
G03*
X12377100Y-12649200I-20000J0D01*
G01*
X12389800Y-7340600D02*
G75*
G03*
X12389800Y-7340600I-20000J0D01*
G01*
X12593000Y-8534400D02*
G75*
G03*
X12593000Y-8534400I-20000J0D01*
G01*
X12618400Y-7340600D02*
G75*
G03*
X12618400Y-7340600I-20000J0D01*
G01*
X12745400Y-12839700D02*
G75*
G03*
X12745400Y-12839700I-20000J0D01*
G01*
X12770800Y-10464800D02*
G75*
G03*
X12770800Y-10464800I-20000J0D01*
G01*
X12858900Y-7709700D02*
G75*
G03*
X12858900Y-7709700I-20000J0D01*
G01*
X12961300Y-10185400D02*
G75*
G03*
X12961300Y-10185400I-20000J0D01*
G01*
X13177200Y-10134600D02*
G75*
G03*
X13177200Y-10134600I-20000J0D01*
G01*
X13266100Y-9372600D02*
G75*
G03*
X13266100Y-9372600I-20000J0D01*
G01*
X13380400Y-7708900D02*
G75*
G03*
X13380400Y-7708900I-20000J0D01*
G01*
X13456600Y-8610600D02*
G75*
G03*
X13456600Y-8610600I-20000J0D01*
G01*
X14599600Y-14808200D02*
G75*
G03*
X14599600Y-14808200I-20000J0D01*
G01*
X14967900Y-11264900D02*
G75*
G03*
X14967900Y-11264900I-20000J0D01*
G01*
X15183800Y-12090400D02*
G75*
G03*
X15183800Y-12090400I-20000J0D01*
G01*
X15844200Y-13576300D02*
G75*
G03*
X15844200Y-13576300I-20000J0D01*
G01*
X15907700Y-12242800D02*
G75*
G03*
X15907700Y-12242800I-20000J0D01*
G01*
X16136300Y-9525000D02*
G75*
G03*
X16136300Y-9525000I-20000J0D01*
G01*
X16644300Y-10972800D02*
G75*
G03*
X16644300Y-10972800I-20000J0D01*
G01*
X16911000Y-10261600D02*
G75*
G03*
X16911000Y-10261600I-20000J0D01*
G01*
X17241200Y-10566400D02*
G75*
G03*
X17241200Y-10566400I-20000J0D01*
G01*
X17914300Y-10998200D02*
G75*
G03*
X17914300Y-10998200I-20000J0D01*
G01*
X17126200Y-11549400D02*
X17126200Y-11589400D01*
X17106200Y-11569400D02*
X17146200Y-11569400D01*
X17126200Y-11689400D02*
X17126200Y-11729400D01*
X17106200Y-11709400D02*
X17146200Y-11709400D01*
X17221200Y-11549400D02*
X17221200Y-11589400D01*
X17201200Y-11569400D02*
X17241200Y-11569400D01*
X17221200Y-11689400D02*
X17221200Y-11729400D01*
X17201200Y-11709400D02*
X17241200Y-11709400D01*
X17316200Y-11549400D02*
X17316200Y-11589400D01*
X17296200Y-11569400D02*
X17336200Y-11569400D01*
X17406200Y-11549400D02*
X17406200Y-11589400D01*
X17386200Y-11569400D02*
X17426200Y-11569400D01*
X17406200Y-11689400D02*
X17406200Y-11729400D01*
X17386200Y-11709400D02*
X17426200Y-11709400D01*
X17496200Y-11549400D02*
X17496200Y-11589400D01*
X17476200Y-11569400D02*
X17516200Y-11569400D01*
X17496200Y-11689400D02*
X17496200Y-11729400D01*
X17476200Y-11709400D02*
X17516200Y-11709400D01*
X17586200Y-11689400D02*
X17586200Y-11729400D01*
X17566200Y-11709400D02*
X17606200Y-11709400D01*
X17681200Y-11549400D02*
X17681200Y-11589400D01*
X17661200Y-11569400D02*
X17701200Y-11569400D01*
X17681200Y-11689400D02*
X17681200Y-11729400D01*
X17661200Y-11709400D02*
X17701200Y-11709400D01*
X17776200Y-11549400D02*
X17776200Y-11589400D01*
X17756200Y-11569400D02*
X17796200Y-11569400D01*
X17776200Y-11689400D02*
X17776200Y-11729400D01*
X17756200Y-11709400D02*
X17796200Y-11709400D01*
D14*
X11354310Y-7702910D02*
X11354310Y-7671090D01*
X11322490Y-7671090D01*
X11322490Y-7702910D01*
X11354310Y-7702910D01*
X11354310Y-7882910D02*
X11354310Y-7851090D01*
X11322490Y-7851090D01*
X11322490Y-7882910D01*
X11354310Y-7882910D01*
X11534310Y-7702910D02*
X11534310Y-7671090D01*
X11502490Y-7671090D01*
X11502490Y-7702910D01*
X11534310Y-7702910D01*
X11534310Y-7882910D02*
X11534310Y-7851090D01*
X11502490Y-7851090D01*
X11502490Y-7882910D01*
X11534310Y-7882910D01*
D15*
X17251200Y-11471400D02*
X17276200Y-11446400D01*
X17251200Y-11421400D01*
X17226200Y-11446400D01*
X17251200Y-11471400D01*
D11*
X17296200Y-11421400D02*
X17206200Y-11421400D01*
X17206200Y-11421400D02*
G75*
G03*
X17206200Y-11471400I0J-25000D01*
G01*
X17206200Y-11471400D02*
X17296200Y-11471400D01*
X17296200Y-11471400D02*
G75*
G03*
X17296200Y-11421400I0J25000D01*
G01*
D15*
X17251200Y-11857400D02*
X17276200Y-11832400D01*
X17251200Y-11807400D01*
X17226200Y-11832400D01*
X17251200Y-11857400D01*
D11*
X17296200Y-11807400D02*
X17206200Y-11807400D01*
X17206200Y-11807400D02*
G75*
G03*
X17206200Y-11857400I0J-25000D01*
G01*
X17206200Y-11857400D02*
X17296200Y-11857400D01*
X17296200Y-11857400D02*
G75*
G03*
X17296200Y-11807400I0J25000D01*
G01*
D15*
X17651200Y-11471400D02*
X17676200Y-11446400D01*
X17651200Y-11421400D01*
X17626200Y-11446400D01*
X17651200Y-11471400D01*
D11*
X17696200Y-11421400D02*
X17606200Y-11421400D01*
X17606200Y-11421400D02*
G75*
G03*
X17606200Y-11471400I0J-25000D01*
G01*
X17606200Y-11471400D02*
X17696200Y-11471400D01*
X17696200Y-11471400D02*
G75*
G03*
X17696200Y-11421400I0J25000D01*
G01*
D15*
X17651200Y-11857400D02*
X17676200Y-11832400D01*
X17651200Y-11807400D01*
X17626200Y-11832400D01*
X17651200Y-11857400D01*
D11*
X17696200Y-11807400D02*
X17606200Y-11807400D01*
X17606200Y-11807400D02*
G75*
G03*
X17606200Y-11857400I0J-25000D01*
G01*
X17606200Y-11857400D02*
X17696200Y-11857400D01*
X17696200Y-11857400D02*
G75*
G03*
X17696200Y-11807400I0J25000D01*
G01*
D16*
X16018200Y-12894000D02*
X16138200Y-13014000D01*
X16138200Y-12894000D02*
X16018200Y-13014000D01*
X16138200Y-12954000D02*
G75*
G03*
X16138200Y-12954000I-60000J0D01*
G01*
X16371753Y-12540447D02*
X16491753Y-12660447D01*
X16491753Y-12540447D02*
X16371753Y-12660447D01*
X16491753Y-12600447D02*
G75*
G03*
X16491753Y-12600447I-60000J0D01*
G01*
D11*
X1868219Y-16198876D02*
X1868219Y-15998876D01*
X1868219Y-15998876D02*
X1915838Y-15998876D01*
X1915838Y-15998876D02*
X1944409Y-16008400D01*
X1944409Y-16008400D02*
X1963457Y-16027448D01*
X1963457Y-16027448D02*
X1972981Y-16046495D01*
X1972981Y-16046495D02*
X1982505Y-16084590D01*
X1982505Y-16084590D02*
X1982505Y-16113162D01*
X1982505Y-16113162D02*
X1972981Y-16151257D01*
X1972981Y-16151257D02*
X1963457Y-16170305D01*
X1963457Y-16170305D02*
X1944409Y-16189352D01*
X1944409Y-16189352D02*
X1915838Y-16198876D01*
X1915838Y-16198876D02*
X1868219Y-16198876D01*
X2068219Y-16198876D02*
X2068219Y-16065543D01*
X2068219Y-16103638D02*
X2077743Y-16084590D01*
X2077743Y-16084590D02*
X2087267Y-16075067D01*
X2087267Y-16075067D02*
X2106314Y-16065543D01*
X2106314Y-16065543D02*
X2125362Y-16065543D01*
X2192029Y-16198876D02*
X2192029Y-16065543D01*
X2192029Y-15998876D02*
X2182505Y-16008400D01*
X2182505Y-16008400D02*
X2192029Y-16017924D01*
X2192029Y-16017924D02*
X2201552Y-16008400D01*
X2201552Y-16008400D02*
X2192029Y-15998876D01*
X2192029Y-15998876D02*
X2192029Y-16017924D01*
X2315838Y-16198876D02*
X2296790Y-16189352D01*
X2296790Y-16189352D02*
X2287267Y-16170305D01*
X2287267Y-16170305D02*
X2287267Y-15998876D01*
X2420600Y-16198876D02*
X2401552Y-16189352D01*
X2401552Y-16189352D02*
X2392029Y-16170305D01*
X2392029Y-16170305D02*
X2392029Y-15998876D01*
X2616790Y-16198876D02*
X2616790Y-15998876D01*
X2616790Y-15998876D02*
X2683457Y-16141733D01*
X2683457Y-16141733D02*
X2750124Y-15998876D01*
X2750124Y-15998876D02*
X2750124Y-16198876D01*
X2931076Y-16198876D02*
X2931076Y-16094114D01*
X2931076Y-16094114D02*
X2921552Y-16075067D01*
X2921552Y-16075067D02*
X2902505Y-16065543D01*
X2902505Y-16065543D02*
X2864409Y-16065543D01*
X2864409Y-16065543D02*
X2845362Y-16075067D01*
X2931076Y-16189352D02*
X2912028Y-16198876D01*
X2912028Y-16198876D02*
X2864409Y-16198876D01*
X2864409Y-16198876D02*
X2845362Y-16189352D01*
X2845362Y-16189352D02*
X2835838Y-16170305D01*
X2835838Y-16170305D02*
X2835838Y-16151257D01*
X2835838Y-16151257D02*
X2845362Y-16132209D01*
X2845362Y-16132209D02*
X2864409Y-16122686D01*
X2864409Y-16122686D02*
X2912028Y-16122686D01*
X2912028Y-16122686D02*
X2931076Y-16113162D01*
X3026314Y-16065543D02*
X3026314Y-16265543D01*
X3026314Y-16075067D02*
X3045362Y-16065543D01*
X3045362Y-16065543D02*
X3083457Y-16065543D01*
X3083457Y-16065543D02*
X3102505Y-16075067D01*
X3102505Y-16075067D02*
X3112028Y-16084590D01*
X3112028Y-16084590D02*
X3121552Y-16103638D01*
X3121552Y-16103638D02*
X3121552Y-16160781D01*
X3121552Y-16160781D02*
X3112028Y-16179828D01*
X3112028Y-16179828D02*
X3102505Y-16189352D01*
X3102505Y-16189352D02*
X3083457Y-16198876D01*
X3083457Y-16198876D02*
X3045362Y-16198876D01*
X3045362Y-16198876D02*
X3026314Y-16189352D01*
X3207267Y-16179828D02*
X3216790Y-16189352D01*
X3216790Y-16189352D02*
X3207267Y-16198876D01*
X3207267Y-16198876D02*
X3197743Y-16189352D01*
X3197743Y-16189352D02*
X3207267Y-16179828D01*
X3207267Y-16179828D02*
X3207267Y-16198876D01*
X3207267Y-16075067D02*
X3216790Y-16084590D01*
X3216790Y-16084590D02*
X3207267Y-16094114D01*
X3207267Y-16094114D02*
X3197743Y-16084590D01*
X3197743Y-16084590D02*
X3207267Y-16075067D01*
X3207267Y-16075067D02*
X3207267Y-16094114D01*
D12*
X1590600Y-16530400D02*
X1620600Y-16560400D01*
X1620600Y-16530400D02*
X1590600Y-16560400D01*
D11*
X1906314Y-16418876D02*
X1925362Y-16418876D01*
X1925362Y-16418876D02*
X1944409Y-16428400D01*
X1944409Y-16428400D02*
X1953933Y-16437924D01*
X1953933Y-16437924D02*
X1963457Y-16456971D01*
X1963457Y-16456971D02*
X1972981Y-16495067D01*
X1972981Y-16495067D02*
X1972981Y-16542686D01*
X1972981Y-16542686D02*
X1963457Y-16580781D01*
X1963457Y-16580781D02*
X1953933Y-16599828D01*
X1953933Y-16599828D02*
X1944409Y-16609352D01*
X1944409Y-16609352D02*
X1925362Y-16618876D01*
X1925362Y-16618876D02*
X1906314Y-16618876D01*
X1906314Y-16618876D02*
X1887267Y-16609352D01*
X1887267Y-16609352D02*
X1877743Y-16599828D01*
X1877743Y-16599828D02*
X1868219Y-16580781D01*
X1868219Y-16580781D02*
X1858695Y-16542686D01*
X1858695Y-16542686D02*
X1858695Y-16495067D01*
X1858695Y-16495067D02*
X1868219Y-16456971D01*
X1868219Y-16456971D02*
X1877743Y-16437924D01*
X1877743Y-16437924D02*
X1887267Y-16428400D01*
X1887267Y-16428400D02*
X1906314Y-16418876D01*
X2058695Y-16599828D02*
X2068219Y-16609352D01*
X2068219Y-16609352D02*
X2058695Y-16618876D01*
X2058695Y-16618876D02*
X2049171Y-16609352D01*
X2049171Y-16609352D02*
X2058695Y-16599828D01*
X2058695Y-16599828D02*
X2058695Y-16618876D01*
X2134886Y-16418876D02*
X2258695Y-16418876D01*
X2258695Y-16418876D02*
X2192029Y-16495067D01*
X2192029Y-16495067D02*
X2220600Y-16495067D01*
X2220600Y-16495067D02*
X2239648Y-16504590D01*
X2239648Y-16504590D02*
X2249171Y-16514114D01*
X2249171Y-16514114D02*
X2258695Y-16533162D01*
X2258695Y-16533162D02*
X2258695Y-16580781D01*
X2258695Y-16580781D02*
X2249171Y-16599828D01*
X2249171Y-16599828D02*
X2239648Y-16609352D01*
X2239648Y-16609352D02*
X2220600Y-16618876D01*
X2220600Y-16618876D02*
X2163457Y-16618876D01*
X2163457Y-16618876D02*
X2144410Y-16609352D01*
X2144410Y-16609352D02*
X2134886Y-16599828D01*
X2382505Y-16418876D02*
X2401552Y-16418876D01*
X2401552Y-16418876D02*
X2420600Y-16428400D01*
X2420600Y-16428400D02*
X2430124Y-16437924D01*
X2430124Y-16437924D02*
X2439648Y-16456971D01*
X2439648Y-16456971D02*
X2449171Y-16495067D01*
X2449171Y-16495067D02*
X2449171Y-16542686D01*
X2449171Y-16542686D02*
X2439648Y-16580781D01*
X2439648Y-16580781D02*
X2430124Y-16599828D01*
X2430124Y-16599828D02*
X2420600Y-16609352D01*
X2420600Y-16609352D02*
X2401552Y-16618876D01*
X2401552Y-16618876D02*
X2382505Y-16618876D01*
X2382505Y-16618876D02*
X2363457Y-16609352D01*
X2363457Y-16609352D02*
X2353933Y-16599828D01*
X2353933Y-16599828D02*
X2344410Y-16580781D01*
X2344410Y-16580781D02*
X2334886Y-16542686D01*
X2334886Y-16542686D02*
X2334886Y-16495067D01*
X2334886Y-16495067D02*
X2344410Y-16456971D01*
X2344410Y-16456971D02*
X2353933Y-16437924D01*
X2353933Y-16437924D02*
X2363457Y-16428400D01*
X2363457Y-16428400D02*
X2382505Y-16418876D01*
X2572981Y-16418876D02*
X2592029Y-16418876D01*
X2592029Y-16418876D02*
X2611076Y-16428400D01*
X2611076Y-16428400D02*
X2620600Y-16437924D01*
X2620600Y-16437924D02*
X2630124Y-16456971D01*
X2630124Y-16456971D02*
X2639648Y-16495067D01*
X2639648Y-16495067D02*
X2639648Y-16542686D01*
X2639648Y-16542686D02*
X2630124Y-16580781D01*
X2630124Y-16580781D02*
X2620600Y-16599828D01*
X2620600Y-16599828D02*
X2611076Y-16609352D01*
X2611076Y-16609352D02*
X2592029Y-16618876D01*
X2592029Y-16618876D02*
X2572981Y-16618876D01*
X2572981Y-16618876D02*
X2553933Y-16609352D01*
X2553933Y-16609352D02*
X2544410Y-16599828D01*
X2544410Y-16599828D02*
X2534886Y-16580781D01*
X2534886Y-16580781D02*
X2525362Y-16542686D01*
X2525362Y-16542686D02*
X2525362Y-16495067D01*
X2525362Y-16495067D02*
X2534886Y-16456971D01*
X2534886Y-16456971D02*
X2544410Y-16437924D01*
X2544410Y-16437924D02*
X2553933Y-16428400D01*
X2553933Y-16428400D02*
X2572981Y-16418876D01*
X2725362Y-16618876D02*
X2725362Y-16485543D01*
X2725362Y-16504590D02*
X2734886Y-16495067D01*
X2734886Y-16495067D02*
X2753933Y-16485543D01*
X2753933Y-16485543D02*
X2782505Y-16485543D01*
X2782505Y-16485543D02*
X2801552Y-16495067D01*
X2801552Y-16495067D02*
X2811076Y-16514114D01*
X2811076Y-16514114D02*
X2811076Y-16618876D01*
X2811076Y-16514114D02*
X2820600Y-16495067D01*
X2820600Y-16495067D02*
X2839648Y-16485543D01*
X2839648Y-16485543D02*
X2868219Y-16485543D01*
X2868219Y-16485543D02*
X2887267Y-16495067D01*
X2887267Y-16495067D02*
X2896790Y-16514114D01*
X2896790Y-16514114D02*
X2896790Y-16618876D01*
X2992029Y-16618876D02*
X2992029Y-16485543D01*
X2992029Y-16504590D02*
X3001552Y-16495067D01*
X3001552Y-16495067D02*
X3020600Y-16485543D01*
X3020600Y-16485543D02*
X3049171Y-16485543D01*
X3049171Y-16485543D02*
X3068219Y-16495067D01*
X3068219Y-16495067D02*
X3077743Y-16514114D01*
X3077743Y-16514114D02*
X3077743Y-16618876D01*
X3077743Y-16514114D02*
X3087267Y-16495067D01*
X3087267Y-16495067D02*
X3106314Y-16485543D01*
X3106314Y-16485543D02*
X3134886Y-16485543D01*
X3134886Y-16485543D02*
X3153933Y-16495067D01*
X3153933Y-16495067D02*
X3163457Y-16514114D01*
X3163457Y-16514114D02*
X3163457Y-16618876D01*
X3521552Y-16409352D02*
X3350124Y-16666495D01*
X3746314Y-16418876D02*
X3765362Y-16418876D01*
X3765362Y-16418876D02*
X3784410Y-16428400D01*
X3784410Y-16428400D02*
X3793933Y-16437924D01*
X3793933Y-16437924D02*
X3803457Y-16456971D01*
X3803457Y-16456971D02*
X3812981Y-16495067D01*
X3812981Y-16495067D02*
X3812981Y-16542686D01*
X3812981Y-16542686D02*
X3803457Y-16580781D01*
X3803457Y-16580781D02*
X3793933Y-16599828D01*
X3793933Y-16599828D02*
X3784410Y-16609352D01*
X3784410Y-16609352D02*
X3765362Y-16618876D01*
X3765362Y-16618876D02*
X3746314Y-16618876D01*
X3746314Y-16618876D02*
X3727267Y-16609352D01*
X3727267Y-16609352D02*
X3717743Y-16599828D01*
X3717743Y-16599828D02*
X3708219Y-16580781D01*
X3708219Y-16580781D02*
X3698695Y-16542686D01*
X3698695Y-16542686D02*
X3698695Y-16495067D01*
X3698695Y-16495067D02*
X3708219Y-16456971D01*
X3708219Y-16456971D02*
X3717743Y-16437924D01*
X3717743Y-16437924D02*
X3727267Y-16428400D01*
X3727267Y-16428400D02*
X3746314Y-16418876D01*
X3898695Y-16599828D02*
X3908219Y-16609352D01*
X3908219Y-16609352D02*
X3898695Y-16618876D01*
X3898695Y-16618876D02*
X3889171Y-16609352D01*
X3889171Y-16609352D02*
X3898695Y-16599828D01*
X3898695Y-16599828D02*
X3898695Y-16618876D01*
X4032029Y-16418876D02*
X4051076Y-16418876D01*
X4051076Y-16418876D02*
X4070124Y-16428400D01*
X4070124Y-16428400D02*
X4079648Y-16437924D01*
X4079648Y-16437924D02*
X4089171Y-16456971D01*
X4089171Y-16456971D02*
X4098695Y-16495067D01*
X4098695Y-16495067D02*
X4098695Y-16542686D01*
X4098695Y-16542686D02*
X4089171Y-16580781D01*
X4089171Y-16580781D02*
X4079648Y-16599828D01*
X4079648Y-16599828D02*
X4070124Y-16609352D01*
X4070124Y-16609352D02*
X4051076Y-16618876D01*
X4051076Y-16618876D02*
X4032029Y-16618876D01*
X4032029Y-16618876D02*
X4012981Y-16609352D01*
X4012981Y-16609352D02*
X4003457Y-16599828D01*
X4003457Y-16599828D02*
X3993933Y-16580781D01*
X3993933Y-16580781D02*
X3984410Y-16542686D01*
X3984410Y-16542686D02*
X3984410Y-16495067D01*
X3984410Y-16495067D02*
X3993933Y-16456971D01*
X3993933Y-16456971D02*
X4003457Y-16437924D01*
X4003457Y-16437924D02*
X4012981Y-16428400D01*
X4012981Y-16428400D02*
X4032029Y-16418876D01*
X4289172Y-16618876D02*
X4174886Y-16618876D01*
X4232029Y-16618876D02*
X4232029Y-16418876D01*
X4232029Y-16418876D02*
X4212981Y-16447448D01*
X4212981Y-16447448D02*
X4193933Y-16466495D01*
X4193933Y-16466495D02*
X4174886Y-16476019D01*
X4479648Y-16618876D02*
X4365362Y-16618876D01*
X4422505Y-16618876D02*
X4422505Y-16418876D01*
X4422505Y-16418876D02*
X4403457Y-16447448D01*
X4403457Y-16447448D02*
X4384410Y-16466495D01*
X4384410Y-16466495D02*
X4365362Y-16476019D01*
X4593933Y-16504590D02*
X4574886Y-16495067D01*
X4574886Y-16495067D02*
X4565362Y-16485543D01*
X4565362Y-16485543D02*
X4555838Y-16466495D01*
X4555838Y-16466495D02*
X4555838Y-16456971D01*
X4555838Y-16456971D02*
X4565362Y-16437924D01*
X4565362Y-16437924D02*
X4574886Y-16428400D01*
X4574886Y-16428400D02*
X4593933Y-16418876D01*
X4593933Y-16418876D02*
X4632029Y-16418876D01*
X4632029Y-16418876D02*
X4651076Y-16428400D01*
X4651076Y-16428400D02*
X4660600Y-16437924D01*
X4660600Y-16437924D02*
X4670124Y-16456971D01*
X4670124Y-16456971D02*
X4670124Y-16466495D01*
X4670124Y-16466495D02*
X4660600Y-16485543D01*
X4660600Y-16485543D02*
X4651076Y-16495067D01*
X4651076Y-16495067D02*
X4632029Y-16504590D01*
X4632029Y-16504590D02*
X4593933Y-16504590D01*
X4593933Y-16504590D02*
X4574886Y-16514114D01*
X4574886Y-16514114D02*
X4565362Y-16523638D01*
X4565362Y-16523638D02*
X4555838Y-16542686D01*
X4555838Y-16542686D02*
X4555838Y-16580781D01*
X4555838Y-16580781D02*
X4565362Y-16599828D01*
X4565362Y-16599828D02*
X4574886Y-16609352D01*
X4574886Y-16609352D02*
X4593933Y-16618876D01*
X4593933Y-16618876D02*
X4632029Y-16618876D01*
X4632029Y-16618876D02*
X4651076Y-16609352D01*
X4651076Y-16609352D02*
X4660600Y-16599828D01*
X4660600Y-16599828D02*
X4670124Y-16580781D01*
X4670124Y-16580781D02*
X4670124Y-16542686D01*
X4670124Y-16542686D02*
X4660600Y-16523638D01*
X4660600Y-16523638D02*
X4651076Y-16514114D01*
X4651076Y-16514114D02*
X4632029Y-16504590D01*
X4746314Y-16418876D02*
X4746314Y-16456971D01*
X4822505Y-16418876D02*
X4822505Y-16456971D01*
X5085362Y-16695067D02*
X5075838Y-16685543D01*
X5075838Y-16685543D02*
X5056791Y-16656971D01*
X5056791Y-16656971D02*
X5047267Y-16637924D01*
X5047267Y-16637924D02*
X5037743Y-16609352D01*
X5037743Y-16609352D02*
X5028219Y-16561733D01*
X5028219Y-16561733D02*
X5028219Y-16523638D01*
X5028219Y-16523638D02*
X5037743Y-16476019D01*
X5037743Y-16476019D02*
X5047267Y-16447448D01*
X5047267Y-16447448D02*
X5056791Y-16428400D01*
X5056791Y-16428400D02*
X5075838Y-16399828D01*
X5075838Y-16399828D02*
X5085362Y-16390305D01*
X5266314Y-16618876D02*
X5152029Y-16618876D01*
X5209172Y-16618876D02*
X5209172Y-16418876D01*
X5209172Y-16418876D02*
X5190124Y-16447448D01*
X5190124Y-16447448D02*
X5171076Y-16466495D01*
X5171076Y-16466495D02*
X5152029Y-16476019D01*
X5342505Y-16437924D02*
X5352029Y-16428400D01*
X5352029Y-16428400D02*
X5371076Y-16418876D01*
X5371076Y-16418876D02*
X5418695Y-16418876D01*
X5418695Y-16418876D02*
X5437743Y-16428400D01*
X5437743Y-16428400D02*
X5447267Y-16437924D01*
X5447267Y-16437924D02*
X5456791Y-16456971D01*
X5456791Y-16456971D02*
X5456791Y-16476019D01*
X5456791Y-16476019D02*
X5447267Y-16504590D01*
X5447267Y-16504590D02*
X5332981Y-16618876D01*
X5332981Y-16618876D02*
X5456791Y-16618876D01*
X5662505Y-16618876D02*
X5662505Y-16418876D01*
X5748219Y-16618876D02*
X5748219Y-16514114D01*
X5748219Y-16514114D02*
X5738695Y-16495067D01*
X5738695Y-16495067D02*
X5719648Y-16485543D01*
X5719648Y-16485543D02*
X5691076Y-16485543D01*
X5691076Y-16485543D02*
X5672029Y-16495067D01*
X5672029Y-16495067D02*
X5662505Y-16504590D01*
X5872029Y-16618876D02*
X5852981Y-16609352D01*
X5852981Y-16609352D02*
X5843457Y-16599828D01*
X5843457Y-16599828D02*
X5833933Y-16580781D01*
X5833933Y-16580781D02*
X5833933Y-16523638D01*
X5833933Y-16523638D02*
X5843457Y-16504590D01*
X5843457Y-16504590D02*
X5852981Y-16495067D01*
X5852981Y-16495067D02*
X5872029Y-16485543D01*
X5872029Y-16485543D02*
X5900600Y-16485543D01*
X5900600Y-16485543D02*
X5919648Y-16495067D01*
X5919648Y-16495067D02*
X5929172Y-16504590D01*
X5929172Y-16504590D02*
X5938695Y-16523638D01*
X5938695Y-16523638D02*
X5938695Y-16580781D01*
X5938695Y-16580781D02*
X5929172Y-16599828D01*
X5929172Y-16599828D02*
X5919648Y-16609352D01*
X5919648Y-16609352D02*
X5900600Y-16618876D01*
X5900600Y-16618876D02*
X5872029Y-16618876D01*
X6052981Y-16618876D02*
X6033933Y-16609352D01*
X6033933Y-16609352D02*
X6024410Y-16590305D01*
X6024410Y-16590305D02*
X6024410Y-16418876D01*
X6205362Y-16609352D02*
X6186314Y-16618876D01*
X6186314Y-16618876D02*
X6148219Y-16618876D01*
X6148219Y-16618876D02*
X6129172Y-16609352D01*
X6129172Y-16609352D02*
X6119648Y-16590305D01*
X6119648Y-16590305D02*
X6119648Y-16514114D01*
X6119648Y-16514114D02*
X6129172Y-16495067D01*
X6129172Y-16495067D02*
X6148219Y-16485543D01*
X6148219Y-16485543D02*
X6186314Y-16485543D01*
X6186314Y-16485543D02*
X6205362Y-16495067D01*
X6205362Y-16495067D02*
X6214886Y-16514114D01*
X6214886Y-16514114D02*
X6214886Y-16533162D01*
X6214886Y-16533162D02*
X6119648Y-16552209D01*
X6291076Y-16609352D02*
X6310124Y-16618876D01*
X6310124Y-16618876D02*
X6348219Y-16618876D01*
X6348219Y-16618876D02*
X6367267Y-16609352D01*
X6367267Y-16609352D02*
X6376791Y-16590305D01*
X6376791Y-16590305D02*
X6376791Y-16580781D01*
X6376791Y-16580781D02*
X6367267Y-16561733D01*
X6367267Y-16561733D02*
X6348219Y-16552209D01*
X6348219Y-16552209D02*
X6319648Y-16552209D01*
X6319648Y-16552209D02*
X6300600Y-16542686D01*
X6300600Y-16542686D02*
X6291076Y-16523638D01*
X6291076Y-16523638D02*
X6291076Y-16514114D01*
X6291076Y-16514114D02*
X6300600Y-16495067D01*
X6300600Y-16495067D02*
X6319648Y-16485543D01*
X6319648Y-16485543D02*
X6348219Y-16485543D01*
X6348219Y-16485543D02*
X6367267Y-16495067D01*
X6443457Y-16695067D02*
X6452981Y-16685543D01*
X6452981Y-16685543D02*
X6472029Y-16656971D01*
X6472029Y-16656971D02*
X6481553Y-16637924D01*
X6481553Y-16637924D02*
X6491076Y-16609352D01*
X6491076Y-16609352D02*
X6500600Y-16561733D01*
X6500600Y-16561733D02*
X6500600Y-16523638D01*
X6500600Y-16523638D02*
X6491076Y-16476019D01*
X6491076Y-16476019D02*
X6481553Y-16447448D01*
X6481553Y-16447448D02*
X6472029Y-16428400D01*
X6472029Y-16428400D02*
X6452981Y-16399828D01*
X6452981Y-16399828D02*
X6443457Y-16390305D01*
D13*
X1620600Y-16809400D02*
G75*
G03*
X1620600Y-16809400I-20000J0D01*
G01*
D11*
X1906314Y-16682876D02*
X1925362Y-16682876D01*
X1925362Y-16682876D02*
X1944409Y-16692400D01*
X1944409Y-16692400D02*
X1953933Y-16701924D01*
X1953933Y-16701924D02*
X1963457Y-16720971D01*
X1963457Y-16720971D02*
X1972981Y-16759067D01*
X1972981Y-16759067D02*
X1972981Y-16806686D01*
X1972981Y-16806686D02*
X1963457Y-16844781D01*
X1963457Y-16844781D02*
X1953933Y-16863829D01*
X1953933Y-16863829D02*
X1944409Y-16873352D01*
X1944409Y-16873352D02*
X1925362Y-16882876D01*
X1925362Y-16882876D02*
X1906314Y-16882876D01*
X1906314Y-16882876D02*
X1887267Y-16873352D01*
X1887267Y-16873352D02*
X1877743Y-16863829D01*
X1877743Y-16863829D02*
X1868219Y-16844781D01*
X1868219Y-16844781D02*
X1858695Y-16806686D01*
X1858695Y-16806686D02*
X1858695Y-16759067D01*
X1858695Y-16759067D02*
X1868219Y-16720971D01*
X1868219Y-16720971D02*
X1877743Y-16701924D01*
X1877743Y-16701924D02*
X1887267Y-16692400D01*
X1887267Y-16692400D02*
X1906314Y-16682876D01*
X2058695Y-16863829D02*
X2068219Y-16873352D01*
X2068219Y-16873352D02*
X2058695Y-16882876D01*
X2058695Y-16882876D02*
X2049171Y-16873352D01*
X2049171Y-16873352D02*
X2058695Y-16863829D01*
X2058695Y-16863829D02*
X2058695Y-16882876D01*
X2239648Y-16749543D02*
X2239648Y-16882876D01*
X2192029Y-16673352D02*
X2144410Y-16816210D01*
X2144410Y-16816210D02*
X2268219Y-16816210D01*
X2382505Y-16682876D02*
X2401552Y-16682876D01*
X2401552Y-16682876D02*
X2420600Y-16692400D01*
X2420600Y-16692400D02*
X2430124Y-16701924D01*
X2430124Y-16701924D02*
X2439648Y-16720971D01*
X2439648Y-16720971D02*
X2449171Y-16759067D01*
X2449171Y-16759067D02*
X2449171Y-16806686D01*
X2449171Y-16806686D02*
X2439648Y-16844781D01*
X2439648Y-16844781D02*
X2430124Y-16863829D01*
X2430124Y-16863829D02*
X2420600Y-16873352D01*
X2420600Y-16873352D02*
X2401552Y-16882876D01*
X2401552Y-16882876D02*
X2382505Y-16882876D01*
X2382505Y-16882876D02*
X2363457Y-16873352D01*
X2363457Y-16873352D02*
X2353933Y-16863829D01*
X2353933Y-16863829D02*
X2344410Y-16844781D01*
X2344410Y-16844781D02*
X2334886Y-16806686D01*
X2334886Y-16806686D02*
X2334886Y-16759067D01*
X2334886Y-16759067D02*
X2344410Y-16720971D01*
X2344410Y-16720971D02*
X2353933Y-16701924D01*
X2353933Y-16701924D02*
X2363457Y-16692400D01*
X2363457Y-16692400D02*
X2382505Y-16682876D01*
X2572981Y-16682876D02*
X2592029Y-16682876D01*
X2592029Y-16682876D02*
X2611076Y-16692400D01*
X2611076Y-16692400D02*
X2620600Y-16701924D01*
X2620600Y-16701924D02*
X2630124Y-16720971D01*
X2630124Y-16720971D02*
X2639648Y-16759067D01*
X2639648Y-16759067D02*
X2639648Y-16806686D01*
X2639648Y-16806686D02*
X2630124Y-16844781D01*
X2630124Y-16844781D02*
X2620600Y-16863829D01*
X2620600Y-16863829D02*
X2611076Y-16873352D01*
X2611076Y-16873352D02*
X2592029Y-16882876D01*
X2592029Y-16882876D02*
X2572981Y-16882876D01*
X2572981Y-16882876D02*
X2553933Y-16873352D01*
X2553933Y-16873352D02*
X2544410Y-16863829D01*
X2544410Y-16863829D02*
X2534886Y-16844781D01*
X2534886Y-16844781D02*
X2525362Y-16806686D01*
X2525362Y-16806686D02*
X2525362Y-16759067D01*
X2525362Y-16759067D02*
X2534886Y-16720971D01*
X2534886Y-16720971D02*
X2544410Y-16701924D01*
X2544410Y-16701924D02*
X2553933Y-16692400D01*
X2553933Y-16692400D02*
X2572981Y-16682876D01*
X2725362Y-16882876D02*
X2725362Y-16749543D01*
X2725362Y-16768590D02*
X2734886Y-16759067D01*
X2734886Y-16759067D02*
X2753933Y-16749543D01*
X2753933Y-16749543D02*
X2782505Y-16749543D01*
X2782505Y-16749543D02*
X2801552Y-16759067D01*
X2801552Y-16759067D02*
X2811076Y-16778114D01*
X2811076Y-16778114D02*
X2811076Y-16882876D01*
X2811076Y-16778114D02*
X2820600Y-16759067D01*
X2820600Y-16759067D02*
X2839648Y-16749543D01*
X2839648Y-16749543D02*
X2868219Y-16749543D01*
X2868219Y-16749543D02*
X2887267Y-16759067D01*
X2887267Y-16759067D02*
X2896790Y-16778114D01*
X2896790Y-16778114D02*
X2896790Y-16882876D01*
X2992029Y-16882876D02*
X2992029Y-16749543D01*
X2992029Y-16768590D02*
X3001552Y-16759067D01*
X3001552Y-16759067D02*
X3020600Y-16749543D01*
X3020600Y-16749543D02*
X3049171Y-16749543D01*
X3049171Y-16749543D02*
X3068219Y-16759067D01*
X3068219Y-16759067D02*
X3077743Y-16778114D01*
X3077743Y-16778114D02*
X3077743Y-16882876D01*
X3077743Y-16778114D02*
X3087267Y-16759067D01*
X3087267Y-16759067D02*
X3106314Y-16749543D01*
X3106314Y-16749543D02*
X3134886Y-16749543D01*
X3134886Y-16749543D02*
X3153933Y-16759067D01*
X3153933Y-16759067D02*
X3163457Y-16778114D01*
X3163457Y-16778114D02*
X3163457Y-16882876D01*
X3521552Y-16673352D02*
X3350124Y-16930495D01*
X3746314Y-16682876D02*
X3765362Y-16682876D01*
X3765362Y-16682876D02*
X3784410Y-16692400D01*
X3784410Y-16692400D02*
X3793933Y-16701924D01*
X3793933Y-16701924D02*
X3803457Y-16720971D01*
X3803457Y-16720971D02*
X3812981Y-16759067D01*
X3812981Y-16759067D02*
X3812981Y-16806686D01*
X3812981Y-16806686D02*
X3803457Y-16844781D01*
X3803457Y-16844781D02*
X3793933Y-16863829D01*
X3793933Y-16863829D02*
X3784410Y-16873352D01*
X3784410Y-16873352D02*
X3765362Y-16882876D01*
X3765362Y-16882876D02*
X3746314Y-16882876D01*
X3746314Y-16882876D02*
X3727267Y-16873352D01*
X3727267Y-16873352D02*
X3717743Y-16863829D01*
X3717743Y-16863829D02*
X3708219Y-16844781D01*
X3708219Y-16844781D02*
X3698695Y-16806686D01*
X3698695Y-16806686D02*
X3698695Y-16759067D01*
X3698695Y-16759067D02*
X3708219Y-16720971D01*
X3708219Y-16720971D02*
X3717743Y-16701924D01*
X3717743Y-16701924D02*
X3727267Y-16692400D01*
X3727267Y-16692400D02*
X3746314Y-16682876D01*
X3898695Y-16863829D02*
X3908219Y-16873352D01*
X3908219Y-16873352D02*
X3898695Y-16882876D01*
X3898695Y-16882876D02*
X3889171Y-16873352D01*
X3889171Y-16873352D02*
X3898695Y-16863829D01*
X3898695Y-16863829D02*
X3898695Y-16882876D01*
X4032029Y-16682876D02*
X4051076Y-16682876D01*
X4051076Y-16682876D02*
X4070124Y-16692400D01*
X4070124Y-16692400D02*
X4079648Y-16701924D01*
X4079648Y-16701924D02*
X4089171Y-16720971D01*
X4089171Y-16720971D02*
X4098695Y-16759067D01*
X4098695Y-16759067D02*
X4098695Y-16806686D01*
X4098695Y-16806686D02*
X4089171Y-16844781D01*
X4089171Y-16844781D02*
X4079648Y-16863829D01*
X4079648Y-16863829D02*
X4070124Y-16873352D01*
X4070124Y-16873352D02*
X4051076Y-16882876D01*
X4051076Y-16882876D02*
X4032029Y-16882876D01*
X4032029Y-16882876D02*
X4012981Y-16873352D01*
X4012981Y-16873352D02*
X4003457Y-16863829D01*
X4003457Y-16863829D02*
X3993933Y-16844781D01*
X3993933Y-16844781D02*
X3984410Y-16806686D01*
X3984410Y-16806686D02*
X3984410Y-16759067D01*
X3984410Y-16759067D02*
X3993933Y-16720971D01*
X3993933Y-16720971D02*
X4003457Y-16701924D01*
X4003457Y-16701924D02*
X4012981Y-16692400D01*
X4012981Y-16692400D02*
X4032029Y-16682876D01*
X4289172Y-16882876D02*
X4174886Y-16882876D01*
X4232029Y-16882876D02*
X4232029Y-16682876D01*
X4232029Y-16682876D02*
X4212981Y-16711448D01*
X4212981Y-16711448D02*
X4193933Y-16730495D01*
X4193933Y-16730495D02*
X4174886Y-16740019D01*
X4470124Y-16682876D02*
X4374886Y-16682876D01*
X4374886Y-16682876D02*
X4365362Y-16778114D01*
X4365362Y-16778114D02*
X4374886Y-16768590D01*
X4374886Y-16768590D02*
X4393933Y-16759067D01*
X4393933Y-16759067D02*
X4441553Y-16759067D01*
X4441553Y-16759067D02*
X4460600Y-16768590D01*
X4460600Y-16768590D02*
X4470124Y-16778114D01*
X4470124Y-16778114D02*
X4479648Y-16797162D01*
X4479648Y-16797162D02*
X4479648Y-16844781D01*
X4479648Y-16844781D02*
X4470124Y-16863829D01*
X4470124Y-16863829D02*
X4460600Y-16873352D01*
X4460600Y-16873352D02*
X4441553Y-16882876D01*
X4441553Y-16882876D02*
X4393933Y-16882876D01*
X4393933Y-16882876D02*
X4374886Y-16873352D01*
X4374886Y-16873352D02*
X4365362Y-16863829D01*
X4546314Y-16682876D02*
X4679648Y-16682876D01*
X4679648Y-16682876D02*
X4593933Y-16882876D01*
X4746314Y-16682876D02*
X4746314Y-16720971D01*
X4822505Y-16682876D02*
X4822505Y-16720971D01*
X5085362Y-16959067D02*
X5075838Y-16949543D01*
X5075838Y-16949543D02*
X5056791Y-16920971D01*
X5056791Y-16920971D02*
X5047267Y-16901924D01*
X5047267Y-16901924D02*
X5037743Y-16873352D01*
X5037743Y-16873352D02*
X5028219Y-16825733D01*
X5028219Y-16825733D02*
X5028219Y-16787638D01*
X5028219Y-16787638D02*
X5037743Y-16740019D01*
X5037743Y-16740019D02*
X5047267Y-16711448D01*
X5047267Y-16711448D02*
X5056791Y-16692400D01*
X5056791Y-16692400D02*
X5075838Y-16663828D01*
X5075838Y-16663828D02*
X5085362Y-16654305D01*
X5247267Y-16682876D02*
X5209172Y-16682876D01*
X5209172Y-16682876D02*
X5190124Y-16692400D01*
X5190124Y-16692400D02*
X5180600Y-16701924D01*
X5180600Y-16701924D02*
X5161553Y-16730495D01*
X5161553Y-16730495D02*
X5152029Y-16768590D01*
X5152029Y-16768590D02*
X5152029Y-16844781D01*
X5152029Y-16844781D02*
X5161553Y-16863829D01*
X5161553Y-16863829D02*
X5171076Y-16873352D01*
X5171076Y-16873352D02*
X5190124Y-16882876D01*
X5190124Y-16882876D02*
X5228219Y-16882876D01*
X5228219Y-16882876D02*
X5247267Y-16873352D01*
X5247267Y-16873352D02*
X5256791Y-16863829D01*
X5256791Y-16863829D02*
X5266314Y-16844781D01*
X5266314Y-16844781D02*
X5266314Y-16797162D01*
X5266314Y-16797162D02*
X5256791Y-16778114D01*
X5256791Y-16778114D02*
X5247267Y-16768590D01*
X5247267Y-16768590D02*
X5228219Y-16759067D01*
X5228219Y-16759067D02*
X5190124Y-16759067D01*
X5190124Y-16759067D02*
X5171076Y-16768590D01*
X5171076Y-16768590D02*
X5161553Y-16778114D01*
X5161553Y-16778114D02*
X5152029Y-16797162D01*
X5361553Y-16882876D02*
X5399648Y-16882876D01*
X5399648Y-16882876D02*
X5418695Y-16873352D01*
X5418695Y-16873352D02*
X5428219Y-16863829D01*
X5428219Y-16863829D02*
X5447267Y-16835257D01*
X5447267Y-16835257D02*
X5456791Y-16797162D01*
X5456791Y-16797162D02*
X5456791Y-16720971D01*
X5456791Y-16720971D02*
X5447267Y-16701924D01*
X5447267Y-16701924D02*
X5437743Y-16692400D01*
X5437743Y-16692400D02*
X5418695Y-16682876D01*
X5418695Y-16682876D02*
X5380600Y-16682876D01*
X5380600Y-16682876D02*
X5361553Y-16692400D01*
X5361553Y-16692400D02*
X5352029Y-16701924D01*
X5352029Y-16701924D02*
X5342505Y-16720971D01*
X5342505Y-16720971D02*
X5342505Y-16768590D01*
X5342505Y-16768590D02*
X5352029Y-16787638D01*
X5352029Y-16787638D02*
X5361553Y-16797162D01*
X5361553Y-16797162D02*
X5380600Y-16806686D01*
X5380600Y-16806686D02*
X5418695Y-16806686D01*
X5418695Y-16806686D02*
X5437743Y-16797162D01*
X5437743Y-16797162D02*
X5447267Y-16787638D01*
X5447267Y-16787638D02*
X5456791Y-16768590D01*
X5662505Y-16882876D02*
X5662505Y-16682876D01*
X5748219Y-16882876D02*
X5748219Y-16778114D01*
X5748219Y-16778114D02*
X5738695Y-16759067D01*
X5738695Y-16759067D02*
X5719648Y-16749543D01*
X5719648Y-16749543D02*
X5691076Y-16749543D01*
X5691076Y-16749543D02*
X5672029Y-16759067D01*
X5672029Y-16759067D02*
X5662505Y-16768590D01*
X5872029Y-16882876D02*
X5852981Y-16873352D01*
X5852981Y-16873352D02*
X5843457Y-16863829D01*
X5843457Y-16863829D02*
X5833933Y-16844781D01*
X5833933Y-16844781D02*
X5833933Y-16787638D01*
X5833933Y-16787638D02*
X5843457Y-16768590D01*
X5843457Y-16768590D02*
X5852981Y-16759067D01*
X5852981Y-16759067D02*
X5872029Y-16749543D01*
X5872029Y-16749543D02*
X5900600Y-16749543D01*
X5900600Y-16749543D02*
X5919648Y-16759067D01*
X5919648Y-16759067D02*
X5929172Y-16768590D01*
X5929172Y-16768590D02*
X5938695Y-16787638D01*
X5938695Y-16787638D02*
X5938695Y-16844781D01*
X5938695Y-16844781D02*
X5929172Y-16863829D01*
X5929172Y-16863829D02*
X5919648Y-16873352D01*
X5919648Y-16873352D02*
X5900600Y-16882876D01*
X5900600Y-16882876D02*
X5872029Y-16882876D01*
X6052981Y-16882876D02*
X6033933Y-16873352D01*
X6033933Y-16873352D02*
X6024410Y-16854305D01*
X6024410Y-16854305D02*
X6024410Y-16682876D01*
X6205362Y-16873352D02*
X6186314Y-16882876D01*
X6186314Y-16882876D02*
X6148219Y-16882876D01*
X6148219Y-16882876D02*
X6129172Y-16873352D01*
X6129172Y-16873352D02*
X6119648Y-16854305D01*
X6119648Y-16854305D02*
X6119648Y-16778114D01*
X6119648Y-16778114D02*
X6129172Y-16759067D01*
X6129172Y-16759067D02*
X6148219Y-16749543D01*
X6148219Y-16749543D02*
X6186314Y-16749543D01*
X6186314Y-16749543D02*
X6205362Y-16759067D01*
X6205362Y-16759067D02*
X6214886Y-16778114D01*
X6214886Y-16778114D02*
X6214886Y-16797162D01*
X6214886Y-16797162D02*
X6119648Y-16816210D01*
X6291076Y-16873352D02*
X6310124Y-16882876D01*
X6310124Y-16882876D02*
X6348219Y-16882876D01*
X6348219Y-16882876D02*
X6367267Y-16873352D01*
X6367267Y-16873352D02*
X6376791Y-16854305D01*
X6376791Y-16854305D02*
X6376791Y-16844781D01*
X6376791Y-16844781D02*
X6367267Y-16825733D01*
X6367267Y-16825733D02*
X6348219Y-16816210D01*
X6348219Y-16816210D02*
X6319648Y-16816210D01*
X6319648Y-16816210D02*
X6300600Y-16806686D01*
X6300600Y-16806686D02*
X6291076Y-16787638D01*
X6291076Y-16787638D02*
X6291076Y-16778114D01*
X6291076Y-16778114D02*
X6300600Y-16759067D01*
X6300600Y-16759067D02*
X6319648Y-16749543D01*
X6319648Y-16749543D02*
X6348219Y-16749543D01*
X6348219Y-16749543D02*
X6367267Y-16759067D01*
X6443457Y-16959067D02*
X6452981Y-16949543D01*
X6452981Y-16949543D02*
X6472029Y-16920971D01*
X6472029Y-16920971D02*
X6481553Y-16901924D01*
X6481553Y-16901924D02*
X6491076Y-16873352D01*
X6491076Y-16873352D02*
X6500600Y-16825733D01*
X6500600Y-16825733D02*
X6500600Y-16787638D01*
X6500600Y-16787638D02*
X6491076Y-16740019D01*
X6491076Y-16740019D02*
X6481553Y-16711448D01*
X6481553Y-16711448D02*
X6472029Y-16692400D01*
X6472029Y-16692400D02*
X6452981Y-16663828D01*
X6452981Y-16663828D02*
X6443457Y-16654305D01*
D13*
X1600600Y-17053400D02*
X1600600Y-17093400D01*
X1580600Y-17073400D02*
X1620600Y-17073400D01*
D11*
X1906314Y-16946876D02*
X1925362Y-16946876D01*
X1925362Y-16946876D02*
X1944409Y-16956400D01*
X1944409Y-16956400D02*
X1953933Y-16965924D01*
X1953933Y-16965924D02*
X1963457Y-16984971D01*
X1963457Y-16984971D02*
X1972981Y-17023067D01*
X1972981Y-17023067D02*
X1972981Y-17070686D01*
X1972981Y-17070686D02*
X1963457Y-17108781D01*
X1963457Y-17108781D02*
X1953933Y-17127829D01*
X1953933Y-17127829D02*
X1944409Y-17137352D01*
X1944409Y-17137352D02*
X1925362Y-17146876D01*
X1925362Y-17146876D02*
X1906314Y-17146876D01*
X1906314Y-17146876D02*
X1887267Y-17137352D01*
X1887267Y-17137352D02*
X1877743Y-17127829D01*
X1877743Y-17127829D02*
X1868219Y-17108781D01*
X1868219Y-17108781D02*
X1858695Y-17070686D01*
X1858695Y-17070686D02*
X1858695Y-17023067D01*
X1858695Y-17023067D02*
X1868219Y-16984971D01*
X1868219Y-16984971D02*
X1877743Y-16965924D01*
X1877743Y-16965924D02*
X1887267Y-16956400D01*
X1887267Y-16956400D02*
X1906314Y-16946876D01*
X2058695Y-17127829D02*
X2068219Y-17137352D01*
X2068219Y-17137352D02*
X2058695Y-17146876D01*
X2058695Y-17146876D02*
X2049171Y-17137352D01*
X2049171Y-17137352D02*
X2058695Y-17127829D01*
X2058695Y-17127829D02*
X2058695Y-17146876D01*
X2239648Y-17013543D02*
X2239648Y-17146876D01*
X2192029Y-16937352D02*
X2144410Y-17080210D01*
X2144410Y-17080210D02*
X2268219Y-17080210D01*
X2382505Y-16946876D02*
X2401552Y-16946876D01*
X2401552Y-16946876D02*
X2420600Y-16956400D01*
X2420600Y-16956400D02*
X2430124Y-16965924D01*
X2430124Y-16965924D02*
X2439648Y-16984971D01*
X2439648Y-16984971D02*
X2449171Y-17023067D01*
X2449171Y-17023067D02*
X2449171Y-17070686D01*
X2449171Y-17070686D02*
X2439648Y-17108781D01*
X2439648Y-17108781D02*
X2430124Y-17127829D01*
X2430124Y-17127829D02*
X2420600Y-17137352D01*
X2420600Y-17137352D02*
X2401552Y-17146876D01*
X2401552Y-17146876D02*
X2382505Y-17146876D01*
X2382505Y-17146876D02*
X2363457Y-17137352D01*
X2363457Y-17137352D02*
X2353933Y-17127829D01*
X2353933Y-17127829D02*
X2344410Y-17108781D01*
X2344410Y-17108781D02*
X2334886Y-17070686D01*
X2334886Y-17070686D02*
X2334886Y-17023067D01*
X2334886Y-17023067D02*
X2344410Y-16984971D01*
X2344410Y-16984971D02*
X2353933Y-16965924D01*
X2353933Y-16965924D02*
X2363457Y-16956400D01*
X2363457Y-16956400D02*
X2382505Y-16946876D01*
X2572981Y-16946876D02*
X2592029Y-16946876D01*
X2592029Y-16946876D02*
X2611076Y-16956400D01*
X2611076Y-16956400D02*
X2620600Y-16965924D01*
X2620600Y-16965924D02*
X2630124Y-16984971D01*
X2630124Y-16984971D02*
X2639648Y-17023067D01*
X2639648Y-17023067D02*
X2639648Y-17070686D01*
X2639648Y-17070686D02*
X2630124Y-17108781D01*
X2630124Y-17108781D02*
X2620600Y-17127829D01*
X2620600Y-17127829D02*
X2611076Y-17137352D01*
X2611076Y-17137352D02*
X2592029Y-17146876D01*
X2592029Y-17146876D02*
X2572981Y-17146876D01*
X2572981Y-17146876D02*
X2553933Y-17137352D01*
X2553933Y-17137352D02*
X2544410Y-17127829D01*
X2544410Y-17127829D02*
X2534886Y-17108781D01*
X2534886Y-17108781D02*
X2525362Y-17070686D01*
X2525362Y-17070686D02*
X2525362Y-17023067D01*
X2525362Y-17023067D02*
X2534886Y-16984971D01*
X2534886Y-16984971D02*
X2544410Y-16965924D01*
X2544410Y-16965924D02*
X2553933Y-16956400D01*
X2553933Y-16956400D02*
X2572981Y-16946876D01*
X2725362Y-17146876D02*
X2725362Y-17013543D01*
X2725362Y-17032590D02*
X2734886Y-17023067D01*
X2734886Y-17023067D02*
X2753933Y-17013543D01*
X2753933Y-17013543D02*
X2782505Y-17013543D01*
X2782505Y-17013543D02*
X2801552Y-17023067D01*
X2801552Y-17023067D02*
X2811076Y-17042114D01*
X2811076Y-17042114D02*
X2811076Y-17146876D01*
X2811076Y-17042114D02*
X2820600Y-17023067D01*
X2820600Y-17023067D02*
X2839648Y-17013543D01*
X2839648Y-17013543D02*
X2868219Y-17013543D01*
X2868219Y-17013543D02*
X2887267Y-17023067D01*
X2887267Y-17023067D02*
X2896790Y-17042114D01*
X2896790Y-17042114D02*
X2896790Y-17146876D01*
X2992029Y-17146876D02*
X2992029Y-17013543D01*
X2992029Y-17032590D02*
X3001552Y-17023067D01*
X3001552Y-17023067D02*
X3020600Y-17013543D01*
X3020600Y-17013543D02*
X3049171Y-17013543D01*
X3049171Y-17013543D02*
X3068219Y-17023067D01*
X3068219Y-17023067D02*
X3077743Y-17042114D01*
X3077743Y-17042114D02*
X3077743Y-17146876D01*
X3077743Y-17042114D02*
X3087267Y-17023067D01*
X3087267Y-17023067D02*
X3106314Y-17013543D01*
X3106314Y-17013543D02*
X3134886Y-17013543D01*
X3134886Y-17013543D02*
X3153933Y-17023067D01*
X3153933Y-17023067D02*
X3163457Y-17042114D01*
X3163457Y-17042114D02*
X3163457Y-17146876D01*
X3521552Y-16937352D02*
X3350124Y-17194495D01*
X3746314Y-16946876D02*
X3765362Y-16946876D01*
X3765362Y-16946876D02*
X3784410Y-16956400D01*
X3784410Y-16956400D02*
X3793933Y-16965924D01*
X3793933Y-16965924D02*
X3803457Y-16984971D01*
X3803457Y-16984971D02*
X3812981Y-17023067D01*
X3812981Y-17023067D02*
X3812981Y-17070686D01*
X3812981Y-17070686D02*
X3803457Y-17108781D01*
X3803457Y-17108781D02*
X3793933Y-17127829D01*
X3793933Y-17127829D02*
X3784410Y-17137352D01*
X3784410Y-17137352D02*
X3765362Y-17146876D01*
X3765362Y-17146876D02*
X3746314Y-17146876D01*
X3746314Y-17146876D02*
X3727267Y-17137352D01*
X3727267Y-17137352D02*
X3717743Y-17127829D01*
X3717743Y-17127829D02*
X3708219Y-17108781D01*
X3708219Y-17108781D02*
X3698695Y-17070686D01*
X3698695Y-17070686D02*
X3698695Y-17023067D01*
X3698695Y-17023067D02*
X3708219Y-16984971D01*
X3708219Y-16984971D02*
X3717743Y-16965924D01*
X3717743Y-16965924D02*
X3727267Y-16956400D01*
X3727267Y-16956400D02*
X3746314Y-16946876D01*
X3898695Y-17127829D02*
X3908219Y-17137352D01*
X3908219Y-17137352D02*
X3898695Y-17146876D01*
X3898695Y-17146876D02*
X3889171Y-17137352D01*
X3889171Y-17137352D02*
X3898695Y-17127829D01*
X3898695Y-17127829D02*
X3898695Y-17146876D01*
X4032029Y-16946876D02*
X4051076Y-16946876D01*
X4051076Y-16946876D02*
X4070124Y-16956400D01*
X4070124Y-16956400D02*
X4079648Y-16965924D01*
X4079648Y-16965924D02*
X4089171Y-16984971D01*
X4089171Y-16984971D02*
X4098695Y-17023067D01*
X4098695Y-17023067D02*
X4098695Y-17070686D01*
X4098695Y-17070686D02*
X4089171Y-17108781D01*
X4089171Y-17108781D02*
X4079648Y-17127829D01*
X4079648Y-17127829D02*
X4070124Y-17137352D01*
X4070124Y-17137352D02*
X4051076Y-17146876D01*
X4051076Y-17146876D02*
X4032029Y-17146876D01*
X4032029Y-17146876D02*
X4012981Y-17137352D01*
X4012981Y-17137352D02*
X4003457Y-17127829D01*
X4003457Y-17127829D02*
X3993933Y-17108781D01*
X3993933Y-17108781D02*
X3984410Y-17070686D01*
X3984410Y-17070686D02*
X3984410Y-17023067D01*
X3984410Y-17023067D02*
X3993933Y-16984971D01*
X3993933Y-16984971D02*
X4003457Y-16965924D01*
X4003457Y-16965924D02*
X4012981Y-16956400D01*
X4012981Y-16956400D02*
X4032029Y-16946876D01*
X4289172Y-17146876D02*
X4174886Y-17146876D01*
X4232029Y-17146876D02*
X4232029Y-16946876D01*
X4232029Y-16946876D02*
X4212981Y-16975448D01*
X4212981Y-16975448D02*
X4193933Y-16994495D01*
X4193933Y-16994495D02*
X4174886Y-17004019D01*
X4470124Y-16946876D02*
X4374886Y-16946876D01*
X4374886Y-16946876D02*
X4365362Y-17042114D01*
X4365362Y-17042114D02*
X4374886Y-17032590D01*
X4374886Y-17032590D02*
X4393933Y-17023067D01*
X4393933Y-17023067D02*
X4441553Y-17023067D01*
X4441553Y-17023067D02*
X4460600Y-17032590D01*
X4460600Y-17032590D02*
X4470124Y-17042114D01*
X4470124Y-17042114D02*
X4479648Y-17061162D01*
X4479648Y-17061162D02*
X4479648Y-17108781D01*
X4479648Y-17108781D02*
X4470124Y-17127829D01*
X4470124Y-17127829D02*
X4460600Y-17137352D01*
X4460600Y-17137352D02*
X4441553Y-17146876D01*
X4441553Y-17146876D02*
X4393933Y-17146876D01*
X4393933Y-17146876D02*
X4374886Y-17137352D01*
X4374886Y-17137352D02*
X4365362Y-17127829D01*
X4546314Y-16946876D02*
X4679648Y-16946876D01*
X4679648Y-16946876D02*
X4593933Y-17146876D01*
X4746314Y-16946876D02*
X4746314Y-16984971D01*
X4822505Y-16946876D02*
X4822505Y-16984971D01*
X5085362Y-17223067D02*
X5075838Y-17213543D01*
X5075838Y-17213543D02*
X5056791Y-17184971D01*
X5056791Y-17184971D02*
X5047267Y-17165924D01*
X5047267Y-17165924D02*
X5037743Y-17137352D01*
X5037743Y-17137352D02*
X5028219Y-17089733D01*
X5028219Y-17089733D02*
X5028219Y-17051638D01*
X5028219Y-17051638D02*
X5037743Y-17004019D01*
X5037743Y-17004019D02*
X5047267Y-16975448D01*
X5047267Y-16975448D02*
X5056791Y-16956400D01*
X5056791Y-16956400D02*
X5075838Y-16927829D01*
X5075838Y-16927829D02*
X5085362Y-16918305D01*
X5266314Y-17146876D02*
X5152029Y-17146876D01*
X5209172Y-17146876D02*
X5209172Y-16946876D01*
X5209172Y-16946876D02*
X5190124Y-16975448D01*
X5190124Y-16975448D02*
X5171076Y-16994495D01*
X5171076Y-16994495D02*
X5152029Y-17004019D01*
X5437743Y-17013543D02*
X5437743Y-17146876D01*
X5390124Y-16937352D02*
X5342505Y-17080210D01*
X5342505Y-17080210D02*
X5466314Y-17080210D01*
X5662505Y-17146876D02*
X5662505Y-16946876D01*
X5748219Y-17146876D02*
X5748219Y-17042114D01*
X5748219Y-17042114D02*
X5738695Y-17023067D01*
X5738695Y-17023067D02*
X5719648Y-17013543D01*
X5719648Y-17013543D02*
X5691076Y-17013543D01*
X5691076Y-17013543D02*
X5672029Y-17023067D01*
X5672029Y-17023067D02*
X5662505Y-17032590D01*
X5872029Y-17146876D02*
X5852981Y-17137352D01*
X5852981Y-17137352D02*
X5843457Y-17127829D01*
X5843457Y-17127829D02*
X5833933Y-17108781D01*
X5833933Y-17108781D02*
X5833933Y-17051638D01*
X5833933Y-17051638D02*
X5843457Y-17032590D01*
X5843457Y-17032590D02*
X5852981Y-17023067D01*
X5852981Y-17023067D02*
X5872029Y-17013543D01*
X5872029Y-17013543D02*
X5900600Y-17013543D01*
X5900600Y-17013543D02*
X5919648Y-17023067D01*
X5919648Y-17023067D02*
X5929172Y-17032590D01*
X5929172Y-17032590D02*
X5938695Y-17051638D01*
X5938695Y-17051638D02*
X5938695Y-17108781D01*
X5938695Y-17108781D02*
X5929172Y-17127829D01*
X5929172Y-17127829D02*
X5919648Y-17137352D01*
X5919648Y-17137352D02*
X5900600Y-17146876D01*
X5900600Y-17146876D02*
X5872029Y-17146876D01*
X6052981Y-17146876D02*
X6033933Y-17137352D01*
X6033933Y-17137352D02*
X6024410Y-17118305D01*
X6024410Y-17118305D02*
X6024410Y-16946876D01*
X6205362Y-17137352D02*
X6186314Y-17146876D01*
X6186314Y-17146876D02*
X6148219Y-17146876D01*
X6148219Y-17146876D02*
X6129172Y-17137352D01*
X6129172Y-17137352D02*
X6119648Y-17118305D01*
X6119648Y-17118305D02*
X6119648Y-17042114D01*
X6119648Y-17042114D02*
X6129172Y-17023067D01*
X6129172Y-17023067D02*
X6148219Y-17013543D01*
X6148219Y-17013543D02*
X6186314Y-17013543D01*
X6186314Y-17013543D02*
X6205362Y-17023067D01*
X6205362Y-17023067D02*
X6214886Y-17042114D01*
X6214886Y-17042114D02*
X6214886Y-17061162D01*
X6214886Y-17061162D02*
X6119648Y-17080210D01*
X6291076Y-17137352D02*
X6310124Y-17146876D01*
X6310124Y-17146876D02*
X6348219Y-17146876D01*
X6348219Y-17146876D02*
X6367267Y-17137352D01*
X6367267Y-17137352D02*
X6376791Y-17118305D01*
X6376791Y-17118305D02*
X6376791Y-17108781D01*
X6376791Y-17108781D02*
X6367267Y-17089733D01*
X6367267Y-17089733D02*
X6348219Y-17080210D01*
X6348219Y-17080210D02*
X6319648Y-17080210D01*
X6319648Y-17080210D02*
X6300600Y-17070686D01*
X6300600Y-17070686D02*
X6291076Y-17051638D01*
X6291076Y-17051638D02*
X6291076Y-17042114D01*
X6291076Y-17042114D02*
X6300600Y-17023067D01*
X6300600Y-17023067D02*
X6319648Y-17013543D01*
X6319648Y-17013543D02*
X6348219Y-17013543D01*
X6348219Y-17013543D02*
X6367267Y-17023067D01*
X6443457Y-17223067D02*
X6452981Y-17213543D01*
X6452981Y-17213543D02*
X6472029Y-17184971D01*
X6472029Y-17184971D02*
X6481553Y-17165924D01*
X6481553Y-17165924D02*
X6491076Y-17137352D01*
X6491076Y-17137352D02*
X6500600Y-17089733D01*
X6500600Y-17089733D02*
X6500600Y-17051638D01*
X6500600Y-17051638D02*
X6491076Y-17004019D01*
X6491076Y-17004019D02*
X6481553Y-16975448D01*
X6481553Y-16975448D02*
X6472029Y-16956400D01*
X6472029Y-16956400D02*
X6452981Y-16927829D01*
X6452981Y-16927829D02*
X6443457Y-16918305D01*
D14*
X1614010Y-17353310D02*
X1614010Y-17321490D01*
X1582190Y-17321490D01*
X1582190Y-17353310D01*
X1614010Y-17353310D01*
D11*
X1906314Y-17210876D02*
X1925362Y-17210876D01*
X1925362Y-17210876D02*
X1944409Y-17220400D01*
X1944409Y-17220400D02*
X1953933Y-17229924D01*
X1953933Y-17229924D02*
X1963457Y-17248971D01*
X1963457Y-17248971D02*
X1972981Y-17287067D01*
X1972981Y-17287067D02*
X1972981Y-17334686D01*
X1972981Y-17334686D02*
X1963457Y-17372781D01*
X1963457Y-17372781D02*
X1953933Y-17391829D01*
X1953933Y-17391829D02*
X1944409Y-17401352D01*
X1944409Y-17401352D02*
X1925362Y-17410876D01*
X1925362Y-17410876D02*
X1906314Y-17410876D01*
X1906314Y-17410876D02*
X1887267Y-17401352D01*
X1887267Y-17401352D02*
X1877743Y-17391829D01*
X1877743Y-17391829D02*
X1868219Y-17372781D01*
X1868219Y-17372781D02*
X1858695Y-17334686D01*
X1858695Y-17334686D02*
X1858695Y-17287067D01*
X1858695Y-17287067D02*
X1868219Y-17248971D01*
X1868219Y-17248971D02*
X1877743Y-17229924D01*
X1877743Y-17229924D02*
X1887267Y-17220400D01*
X1887267Y-17220400D02*
X1906314Y-17210876D01*
X2058695Y-17391829D02*
X2068219Y-17401352D01*
X2068219Y-17401352D02*
X2058695Y-17410876D01*
X2058695Y-17410876D02*
X2049171Y-17401352D01*
X2049171Y-17401352D02*
X2058695Y-17391829D01*
X2058695Y-17391829D02*
X2058695Y-17410876D01*
X2239648Y-17277543D02*
X2239648Y-17410876D01*
X2192029Y-17201352D02*
X2144410Y-17344210D01*
X2144410Y-17344210D02*
X2268219Y-17344210D01*
X2439648Y-17210876D02*
X2344410Y-17210876D01*
X2344410Y-17210876D02*
X2334886Y-17306114D01*
X2334886Y-17306114D02*
X2344410Y-17296590D01*
X2344410Y-17296590D02*
X2363457Y-17287067D01*
X2363457Y-17287067D02*
X2411076Y-17287067D01*
X2411076Y-17287067D02*
X2430124Y-17296590D01*
X2430124Y-17296590D02*
X2439648Y-17306114D01*
X2439648Y-17306114D02*
X2449171Y-17325162D01*
X2449171Y-17325162D02*
X2449171Y-17372781D01*
X2449171Y-17372781D02*
X2439648Y-17391829D01*
X2439648Y-17391829D02*
X2430124Y-17401352D01*
X2430124Y-17401352D02*
X2411076Y-17410876D01*
X2411076Y-17410876D02*
X2363457Y-17410876D01*
X2363457Y-17410876D02*
X2344410Y-17401352D01*
X2344410Y-17401352D02*
X2334886Y-17391829D01*
X2572981Y-17210876D02*
X2592029Y-17210876D01*
X2592029Y-17210876D02*
X2611076Y-17220400D01*
X2611076Y-17220400D02*
X2620600Y-17229924D01*
X2620600Y-17229924D02*
X2630124Y-17248971D01*
X2630124Y-17248971D02*
X2639648Y-17287067D01*
X2639648Y-17287067D02*
X2639648Y-17334686D01*
X2639648Y-17334686D02*
X2630124Y-17372781D01*
X2630124Y-17372781D02*
X2620600Y-17391829D01*
X2620600Y-17391829D02*
X2611076Y-17401352D01*
X2611076Y-17401352D02*
X2592029Y-17410876D01*
X2592029Y-17410876D02*
X2572981Y-17410876D01*
X2572981Y-17410876D02*
X2553933Y-17401352D01*
X2553933Y-17401352D02*
X2544410Y-17391829D01*
X2544410Y-17391829D02*
X2534886Y-17372781D01*
X2534886Y-17372781D02*
X2525362Y-17334686D01*
X2525362Y-17334686D02*
X2525362Y-17287067D01*
X2525362Y-17287067D02*
X2534886Y-17248971D01*
X2534886Y-17248971D02*
X2544410Y-17229924D01*
X2544410Y-17229924D02*
X2553933Y-17220400D01*
X2553933Y-17220400D02*
X2572981Y-17210876D01*
X2725362Y-17410876D02*
X2725362Y-17277543D01*
X2725362Y-17296590D02*
X2734886Y-17287067D01*
X2734886Y-17287067D02*
X2753933Y-17277543D01*
X2753933Y-17277543D02*
X2782505Y-17277543D01*
X2782505Y-17277543D02*
X2801552Y-17287067D01*
X2801552Y-17287067D02*
X2811076Y-17306114D01*
X2811076Y-17306114D02*
X2811076Y-17410876D01*
X2811076Y-17306114D02*
X2820600Y-17287067D01*
X2820600Y-17287067D02*
X2839648Y-17277543D01*
X2839648Y-17277543D02*
X2868219Y-17277543D01*
X2868219Y-17277543D02*
X2887267Y-17287067D01*
X2887267Y-17287067D02*
X2896790Y-17306114D01*
X2896790Y-17306114D02*
X2896790Y-17410876D01*
X2992029Y-17410876D02*
X2992029Y-17277543D01*
X2992029Y-17296590D02*
X3001552Y-17287067D01*
X3001552Y-17287067D02*
X3020600Y-17277543D01*
X3020600Y-17277543D02*
X3049171Y-17277543D01*
X3049171Y-17277543D02*
X3068219Y-17287067D01*
X3068219Y-17287067D02*
X3077743Y-17306114D01*
X3077743Y-17306114D02*
X3077743Y-17410876D01*
X3077743Y-17306114D02*
X3087267Y-17287067D01*
X3087267Y-17287067D02*
X3106314Y-17277543D01*
X3106314Y-17277543D02*
X3134886Y-17277543D01*
X3134886Y-17277543D02*
X3153933Y-17287067D01*
X3153933Y-17287067D02*
X3163457Y-17306114D01*
X3163457Y-17306114D02*
X3163457Y-17410876D01*
X3521552Y-17201352D02*
X3350124Y-17458495D01*
X3746314Y-17210876D02*
X3765362Y-17210876D01*
X3765362Y-17210876D02*
X3784410Y-17220400D01*
X3784410Y-17220400D02*
X3793933Y-17229924D01*
X3793933Y-17229924D02*
X3803457Y-17248971D01*
X3803457Y-17248971D02*
X3812981Y-17287067D01*
X3812981Y-17287067D02*
X3812981Y-17334686D01*
X3812981Y-17334686D02*
X3803457Y-17372781D01*
X3803457Y-17372781D02*
X3793933Y-17391829D01*
X3793933Y-17391829D02*
X3784410Y-17401352D01*
X3784410Y-17401352D02*
X3765362Y-17410876D01*
X3765362Y-17410876D02*
X3746314Y-17410876D01*
X3746314Y-17410876D02*
X3727267Y-17401352D01*
X3727267Y-17401352D02*
X3717743Y-17391829D01*
X3717743Y-17391829D02*
X3708219Y-17372781D01*
X3708219Y-17372781D02*
X3698695Y-17334686D01*
X3698695Y-17334686D02*
X3698695Y-17287067D01*
X3698695Y-17287067D02*
X3708219Y-17248971D01*
X3708219Y-17248971D02*
X3717743Y-17229924D01*
X3717743Y-17229924D02*
X3727267Y-17220400D01*
X3727267Y-17220400D02*
X3746314Y-17210876D01*
X3898695Y-17391829D02*
X3908219Y-17401352D01*
X3908219Y-17401352D02*
X3898695Y-17410876D01*
X3898695Y-17410876D02*
X3889171Y-17401352D01*
X3889171Y-17401352D02*
X3898695Y-17391829D01*
X3898695Y-17391829D02*
X3898695Y-17410876D01*
X4032029Y-17210876D02*
X4051076Y-17210876D01*
X4051076Y-17210876D02*
X4070124Y-17220400D01*
X4070124Y-17220400D02*
X4079648Y-17229924D01*
X4079648Y-17229924D02*
X4089171Y-17248971D01*
X4089171Y-17248971D02*
X4098695Y-17287067D01*
X4098695Y-17287067D02*
X4098695Y-17334686D01*
X4098695Y-17334686D02*
X4089171Y-17372781D01*
X4089171Y-17372781D02*
X4079648Y-17391829D01*
X4079648Y-17391829D02*
X4070124Y-17401352D01*
X4070124Y-17401352D02*
X4051076Y-17410876D01*
X4051076Y-17410876D02*
X4032029Y-17410876D01*
X4032029Y-17410876D02*
X4012981Y-17401352D01*
X4012981Y-17401352D02*
X4003457Y-17391829D01*
X4003457Y-17391829D02*
X3993933Y-17372781D01*
X3993933Y-17372781D02*
X3984410Y-17334686D01*
X3984410Y-17334686D02*
X3984410Y-17287067D01*
X3984410Y-17287067D02*
X3993933Y-17248971D01*
X3993933Y-17248971D02*
X4003457Y-17229924D01*
X4003457Y-17229924D02*
X4012981Y-17220400D01*
X4012981Y-17220400D02*
X4032029Y-17210876D01*
X4289172Y-17410876D02*
X4174886Y-17410876D01*
X4232029Y-17410876D02*
X4232029Y-17210876D01*
X4232029Y-17210876D02*
X4212981Y-17239448D01*
X4212981Y-17239448D02*
X4193933Y-17258495D01*
X4193933Y-17258495D02*
X4174886Y-17268019D01*
X4355838Y-17210876D02*
X4489172Y-17210876D01*
X4489172Y-17210876D02*
X4403457Y-17410876D01*
X4546314Y-17210876D02*
X4679648Y-17210876D01*
X4679648Y-17210876D02*
X4593933Y-17410876D01*
X4746314Y-17210876D02*
X4746314Y-17248971D01*
X4822505Y-17210876D02*
X4822505Y-17248971D01*
X5085362Y-17487067D02*
X5075838Y-17477543D01*
X5075838Y-17477543D02*
X5056791Y-17448971D01*
X5056791Y-17448971D02*
X5047267Y-17429924D01*
X5047267Y-17429924D02*
X5037743Y-17401352D01*
X5037743Y-17401352D02*
X5028219Y-17353733D01*
X5028219Y-17353733D02*
X5028219Y-17315638D01*
X5028219Y-17315638D02*
X5037743Y-17268019D01*
X5037743Y-17268019D02*
X5047267Y-17239448D01*
X5047267Y-17239448D02*
X5056791Y-17220400D01*
X5056791Y-17220400D02*
X5075838Y-17191829D01*
X5075838Y-17191829D02*
X5085362Y-17182305D01*
X5247267Y-17277543D02*
X5247267Y-17410876D01*
X5199648Y-17201352D02*
X5152029Y-17344210D01*
X5152029Y-17344210D02*
X5275838Y-17344210D01*
X5472029Y-17410876D02*
X5472029Y-17210876D01*
X5557743Y-17410876D02*
X5557743Y-17306114D01*
X5557743Y-17306114D02*
X5548219Y-17287067D01*
X5548219Y-17287067D02*
X5529172Y-17277543D01*
X5529172Y-17277543D02*
X5500600Y-17277543D01*
X5500600Y-17277543D02*
X5481553Y-17287067D01*
X5481553Y-17287067D02*
X5472029Y-17296590D01*
X5681552Y-17410876D02*
X5662505Y-17401352D01*
X5662505Y-17401352D02*
X5652981Y-17391829D01*
X5652981Y-17391829D02*
X5643457Y-17372781D01*
X5643457Y-17372781D02*
X5643457Y-17315638D01*
X5643457Y-17315638D02*
X5652981Y-17296590D01*
X5652981Y-17296590D02*
X5662505Y-17287067D01*
X5662505Y-17287067D02*
X5681552Y-17277543D01*
X5681552Y-17277543D02*
X5710124Y-17277543D01*
X5710124Y-17277543D02*
X5729172Y-17287067D01*
X5729172Y-17287067D02*
X5738695Y-17296590D01*
X5738695Y-17296590D02*
X5748219Y-17315638D01*
X5748219Y-17315638D02*
X5748219Y-17372781D01*
X5748219Y-17372781D02*
X5738695Y-17391829D01*
X5738695Y-17391829D02*
X5729172Y-17401352D01*
X5729172Y-17401352D02*
X5710124Y-17410876D01*
X5710124Y-17410876D02*
X5681552Y-17410876D01*
X5862505Y-17410876D02*
X5843457Y-17401352D01*
X5843457Y-17401352D02*
X5833933Y-17382305D01*
X5833933Y-17382305D02*
X5833933Y-17210876D01*
X6014886Y-17401352D02*
X5995838Y-17410876D01*
X5995838Y-17410876D02*
X5957743Y-17410876D01*
X5957743Y-17410876D02*
X5938695Y-17401352D01*
X5938695Y-17401352D02*
X5929172Y-17382305D01*
X5929172Y-17382305D02*
X5929172Y-17306114D01*
X5929172Y-17306114D02*
X5938695Y-17287067D01*
X5938695Y-17287067D02*
X5957743Y-17277543D01*
X5957743Y-17277543D02*
X5995838Y-17277543D01*
X5995838Y-17277543D02*
X6014886Y-17287067D01*
X6014886Y-17287067D02*
X6024410Y-17306114D01*
X6024410Y-17306114D02*
X6024410Y-17325162D01*
X6024410Y-17325162D02*
X5929172Y-17344210D01*
X6100600Y-17401352D02*
X6119648Y-17410876D01*
X6119648Y-17410876D02*
X6157743Y-17410876D01*
X6157743Y-17410876D02*
X6176791Y-17401352D01*
X6176791Y-17401352D02*
X6186314Y-17382305D01*
X6186314Y-17382305D02*
X6186314Y-17372781D01*
X6186314Y-17372781D02*
X6176791Y-17353733D01*
X6176791Y-17353733D02*
X6157743Y-17344210D01*
X6157743Y-17344210D02*
X6129172Y-17344210D01*
X6129172Y-17344210D02*
X6110124Y-17334686D01*
X6110124Y-17334686D02*
X6100600Y-17315638D01*
X6100600Y-17315638D02*
X6100600Y-17306114D01*
X6100600Y-17306114D02*
X6110124Y-17287067D01*
X6110124Y-17287067D02*
X6129172Y-17277543D01*
X6129172Y-17277543D02*
X6157743Y-17277543D01*
X6157743Y-17277543D02*
X6176791Y-17287067D01*
X6252981Y-17487067D02*
X6262505Y-17477543D01*
X6262505Y-17477543D02*
X6281553Y-17448971D01*
X6281553Y-17448971D02*
X6291076Y-17429924D01*
X6291076Y-17429924D02*
X6300600Y-17401352D01*
X6300600Y-17401352D02*
X6310124Y-17353733D01*
X6310124Y-17353733D02*
X6310124Y-17315638D01*
X6310124Y-17315638D02*
X6300600Y-17268019D01*
X6300600Y-17268019D02*
X6291076Y-17239448D01*
X6291076Y-17239448D02*
X6281553Y-17220400D01*
X6281553Y-17220400D02*
X6262505Y-17191829D01*
X6262505Y-17191829D02*
X6252981Y-17182305D01*
D15*
X1595600Y-17626400D02*
X1620600Y-17601400D01*
X1595600Y-17576400D01*
X1570600Y-17601400D01*
X1595600Y-17626400D01*
D11*
X1906314Y-17474876D02*
X1925362Y-17474876D01*
X1925362Y-17474876D02*
X1944409Y-17484400D01*
X1944409Y-17484400D02*
X1953933Y-17493924D01*
X1953933Y-17493924D02*
X1963457Y-17512971D01*
X1963457Y-17512971D02*
X1972981Y-17551067D01*
X1972981Y-17551067D02*
X1972981Y-17598686D01*
X1972981Y-17598686D02*
X1963457Y-17636781D01*
X1963457Y-17636781D02*
X1953933Y-17655829D01*
X1953933Y-17655829D02*
X1944409Y-17665352D01*
X1944409Y-17665352D02*
X1925362Y-17674876D01*
X1925362Y-17674876D02*
X1906314Y-17674876D01*
X1906314Y-17674876D02*
X1887267Y-17665352D01*
X1887267Y-17665352D02*
X1877743Y-17655829D01*
X1877743Y-17655829D02*
X1868219Y-17636781D01*
X1868219Y-17636781D02*
X1858695Y-17598686D01*
X1858695Y-17598686D02*
X1858695Y-17551067D01*
X1858695Y-17551067D02*
X1868219Y-17512971D01*
X1868219Y-17512971D02*
X1877743Y-17493924D01*
X1877743Y-17493924D02*
X1887267Y-17484400D01*
X1887267Y-17484400D02*
X1906314Y-17474876D01*
X2058695Y-17655829D02*
X2068219Y-17665352D01*
X2068219Y-17665352D02*
X2058695Y-17674876D01*
X2058695Y-17674876D02*
X2049171Y-17665352D01*
X2049171Y-17665352D02*
X2058695Y-17655829D01*
X2058695Y-17655829D02*
X2058695Y-17674876D01*
X2249171Y-17474876D02*
X2153933Y-17474876D01*
X2153933Y-17474876D02*
X2144410Y-17570114D01*
X2144410Y-17570114D02*
X2153933Y-17560590D01*
X2153933Y-17560590D02*
X2172981Y-17551067D01*
X2172981Y-17551067D02*
X2220600Y-17551067D01*
X2220600Y-17551067D02*
X2239648Y-17560590D01*
X2239648Y-17560590D02*
X2249171Y-17570114D01*
X2249171Y-17570114D02*
X2258695Y-17589162D01*
X2258695Y-17589162D02*
X2258695Y-17636781D01*
X2258695Y-17636781D02*
X2249171Y-17655829D01*
X2249171Y-17655829D02*
X2239648Y-17665352D01*
X2239648Y-17665352D02*
X2220600Y-17674876D01*
X2220600Y-17674876D02*
X2172981Y-17674876D01*
X2172981Y-17674876D02*
X2153933Y-17665352D01*
X2153933Y-17665352D02*
X2144410Y-17655829D01*
X2382505Y-17474876D02*
X2401552Y-17474876D01*
X2401552Y-17474876D02*
X2420600Y-17484400D01*
X2420600Y-17484400D02*
X2430124Y-17493924D01*
X2430124Y-17493924D02*
X2439648Y-17512971D01*
X2439648Y-17512971D02*
X2449171Y-17551067D01*
X2449171Y-17551067D02*
X2449171Y-17598686D01*
X2449171Y-17598686D02*
X2439648Y-17636781D01*
X2439648Y-17636781D02*
X2430124Y-17655829D01*
X2430124Y-17655829D02*
X2420600Y-17665352D01*
X2420600Y-17665352D02*
X2401552Y-17674876D01*
X2401552Y-17674876D02*
X2382505Y-17674876D01*
X2382505Y-17674876D02*
X2363457Y-17665352D01*
X2363457Y-17665352D02*
X2353933Y-17655829D01*
X2353933Y-17655829D02*
X2344410Y-17636781D01*
X2344410Y-17636781D02*
X2334886Y-17598686D01*
X2334886Y-17598686D02*
X2334886Y-17551067D01*
X2334886Y-17551067D02*
X2344410Y-17512971D01*
X2344410Y-17512971D02*
X2353933Y-17493924D01*
X2353933Y-17493924D02*
X2363457Y-17484400D01*
X2363457Y-17484400D02*
X2382505Y-17474876D01*
X2572981Y-17474876D02*
X2592029Y-17474876D01*
X2592029Y-17474876D02*
X2611076Y-17484400D01*
X2611076Y-17484400D02*
X2620600Y-17493924D01*
X2620600Y-17493924D02*
X2630124Y-17512971D01*
X2630124Y-17512971D02*
X2639648Y-17551067D01*
X2639648Y-17551067D02*
X2639648Y-17598686D01*
X2639648Y-17598686D02*
X2630124Y-17636781D01*
X2630124Y-17636781D02*
X2620600Y-17655829D01*
X2620600Y-17655829D02*
X2611076Y-17665352D01*
X2611076Y-17665352D02*
X2592029Y-17674876D01*
X2592029Y-17674876D02*
X2572981Y-17674876D01*
X2572981Y-17674876D02*
X2553933Y-17665352D01*
X2553933Y-17665352D02*
X2544410Y-17655829D01*
X2544410Y-17655829D02*
X2534886Y-17636781D01*
X2534886Y-17636781D02*
X2525362Y-17598686D01*
X2525362Y-17598686D02*
X2525362Y-17551067D01*
X2525362Y-17551067D02*
X2534886Y-17512971D01*
X2534886Y-17512971D02*
X2544410Y-17493924D01*
X2544410Y-17493924D02*
X2553933Y-17484400D01*
X2553933Y-17484400D02*
X2572981Y-17474876D01*
X2725362Y-17674876D02*
X2725362Y-17541543D01*
X2725362Y-17560590D02*
X2734886Y-17551067D01*
X2734886Y-17551067D02*
X2753933Y-17541543D01*
X2753933Y-17541543D02*
X2782505Y-17541543D01*
X2782505Y-17541543D02*
X2801552Y-17551067D01*
X2801552Y-17551067D02*
X2811076Y-17570114D01*
X2811076Y-17570114D02*
X2811076Y-17674876D01*
X2811076Y-17570114D02*
X2820600Y-17551067D01*
X2820600Y-17551067D02*
X2839648Y-17541543D01*
X2839648Y-17541543D02*
X2868219Y-17541543D01*
X2868219Y-17541543D02*
X2887267Y-17551067D01*
X2887267Y-17551067D02*
X2896790Y-17570114D01*
X2896790Y-17570114D02*
X2896790Y-17674876D01*
X2992029Y-17674876D02*
X2992029Y-17541543D01*
X2992029Y-17560590D02*
X3001552Y-17551067D01*
X3001552Y-17551067D02*
X3020600Y-17541543D01*
X3020600Y-17541543D02*
X3049171Y-17541543D01*
X3049171Y-17541543D02*
X3068219Y-17551067D01*
X3068219Y-17551067D02*
X3077743Y-17570114D01*
X3077743Y-17570114D02*
X3077743Y-17674876D01*
X3077743Y-17570114D02*
X3087267Y-17551067D01*
X3087267Y-17551067D02*
X3106314Y-17541543D01*
X3106314Y-17541543D02*
X3134886Y-17541543D01*
X3134886Y-17541543D02*
X3153933Y-17551067D01*
X3153933Y-17551067D02*
X3163457Y-17570114D01*
X3163457Y-17570114D02*
X3163457Y-17674876D01*
X3521552Y-17465352D02*
X3350124Y-17722495D01*
X3746314Y-17474876D02*
X3765362Y-17474876D01*
X3765362Y-17474876D02*
X3784410Y-17484400D01*
X3784410Y-17484400D02*
X3793933Y-17493924D01*
X3793933Y-17493924D02*
X3803457Y-17512971D01*
X3803457Y-17512971D02*
X3812981Y-17551067D01*
X3812981Y-17551067D02*
X3812981Y-17598686D01*
X3812981Y-17598686D02*
X3803457Y-17636781D01*
X3803457Y-17636781D02*
X3793933Y-17655829D01*
X3793933Y-17655829D02*
X3784410Y-17665352D01*
X3784410Y-17665352D02*
X3765362Y-17674876D01*
X3765362Y-17674876D02*
X3746314Y-17674876D01*
X3746314Y-17674876D02*
X3727267Y-17665352D01*
X3727267Y-17665352D02*
X3717743Y-17655829D01*
X3717743Y-17655829D02*
X3708219Y-17636781D01*
X3708219Y-17636781D02*
X3698695Y-17598686D01*
X3698695Y-17598686D02*
X3698695Y-17551067D01*
X3698695Y-17551067D02*
X3708219Y-17512971D01*
X3708219Y-17512971D02*
X3717743Y-17493924D01*
X3717743Y-17493924D02*
X3727267Y-17484400D01*
X3727267Y-17484400D02*
X3746314Y-17474876D01*
X3898695Y-17655829D02*
X3908219Y-17665352D01*
X3908219Y-17665352D02*
X3898695Y-17674876D01*
X3898695Y-17674876D02*
X3889171Y-17665352D01*
X3889171Y-17665352D02*
X3898695Y-17655829D01*
X3898695Y-17655829D02*
X3898695Y-17674876D01*
X4032029Y-17474876D02*
X4051076Y-17474876D01*
X4051076Y-17474876D02*
X4070124Y-17484400D01*
X4070124Y-17484400D02*
X4079648Y-17493924D01*
X4079648Y-17493924D02*
X4089171Y-17512971D01*
X4089171Y-17512971D02*
X4098695Y-17551067D01*
X4098695Y-17551067D02*
X4098695Y-17598686D01*
X4098695Y-17598686D02*
X4089171Y-17636781D01*
X4089171Y-17636781D02*
X4079648Y-17655829D01*
X4079648Y-17655829D02*
X4070124Y-17665352D01*
X4070124Y-17665352D02*
X4051076Y-17674876D01*
X4051076Y-17674876D02*
X4032029Y-17674876D01*
X4032029Y-17674876D02*
X4012981Y-17665352D01*
X4012981Y-17665352D02*
X4003457Y-17655829D01*
X4003457Y-17655829D02*
X3993933Y-17636781D01*
X3993933Y-17636781D02*
X3984410Y-17598686D01*
X3984410Y-17598686D02*
X3984410Y-17551067D01*
X3984410Y-17551067D02*
X3993933Y-17512971D01*
X3993933Y-17512971D02*
X4003457Y-17493924D01*
X4003457Y-17493924D02*
X4012981Y-17484400D01*
X4012981Y-17484400D02*
X4032029Y-17474876D01*
X4289172Y-17674876D02*
X4174886Y-17674876D01*
X4232029Y-17674876D02*
X4232029Y-17474876D01*
X4232029Y-17474876D02*
X4212981Y-17503448D01*
X4212981Y-17503448D02*
X4193933Y-17522495D01*
X4193933Y-17522495D02*
X4174886Y-17532019D01*
X4384410Y-17674876D02*
X4422505Y-17674876D01*
X4422505Y-17674876D02*
X4441553Y-17665352D01*
X4441553Y-17665352D02*
X4451076Y-17655829D01*
X4451076Y-17655829D02*
X4470124Y-17627257D01*
X4470124Y-17627257D02*
X4479648Y-17589162D01*
X4479648Y-17589162D02*
X4479648Y-17512971D01*
X4479648Y-17512971D02*
X4470124Y-17493924D01*
X4470124Y-17493924D02*
X4460600Y-17484400D01*
X4460600Y-17484400D02*
X4441553Y-17474876D01*
X4441553Y-17474876D02*
X4403457Y-17474876D01*
X4403457Y-17474876D02*
X4384410Y-17484400D01*
X4384410Y-17484400D02*
X4374886Y-17493924D01*
X4374886Y-17493924D02*
X4365362Y-17512971D01*
X4365362Y-17512971D02*
X4365362Y-17560590D01*
X4365362Y-17560590D02*
X4374886Y-17579638D01*
X4374886Y-17579638D02*
X4384410Y-17589162D01*
X4384410Y-17589162D02*
X4403457Y-17598686D01*
X4403457Y-17598686D02*
X4441553Y-17598686D01*
X4441553Y-17598686D02*
X4460600Y-17589162D01*
X4460600Y-17589162D02*
X4470124Y-17579638D01*
X4470124Y-17579638D02*
X4479648Y-17560590D01*
X4546314Y-17474876D02*
X4679648Y-17474876D01*
X4679648Y-17474876D02*
X4593933Y-17674876D01*
X4746314Y-17474876D02*
X4746314Y-17512971D01*
X4822505Y-17474876D02*
X4822505Y-17512971D01*
X5085362Y-17751067D02*
X5075838Y-17741543D01*
X5075838Y-17741543D02*
X5056791Y-17712971D01*
X5056791Y-17712971D02*
X5047267Y-17693924D01*
X5047267Y-17693924D02*
X5037743Y-17665352D01*
X5037743Y-17665352D02*
X5028219Y-17617733D01*
X5028219Y-17617733D02*
X5028219Y-17579638D01*
X5028219Y-17579638D02*
X5037743Y-17532019D01*
X5037743Y-17532019D02*
X5047267Y-17503448D01*
X5047267Y-17503448D02*
X5056791Y-17484400D01*
X5056791Y-17484400D02*
X5075838Y-17455829D01*
X5075838Y-17455829D02*
X5085362Y-17446305D01*
X5199648Y-17474876D02*
X5218695Y-17474876D01*
X5218695Y-17474876D02*
X5237743Y-17484400D01*
X5237743Y-17484400D02*
X5247267Y-17493924D01*
X5247267Y-17493924D02*
X5256791Y-17512971D01*
X5256791Y-17512971D02*
X5266314Y-17551067D01*
X5266314Y-17551067D02*
X5266314Y-17598686D01*
X5266314Y-17598686D02*
X5256791Y-17636781D01*
X5256791Y-17636781D02*
X5247267Y-17655829D01*
X5247267Y-17655829D02*
X5237743Y-17665352D01*
X5237743Y-17665352D02*
X5218695Y-17674876D01*
X5218695Y-17674876D02*
X5199648Y-17674876D01*
X5199648Y-17674876D02*
X5180600Y-17665352D01*
X5180600Y-17665352D02*
X5171076Y-17655829D01*
X5171076Y-17655829D02*
X5161553Y-17636781D01*
X5161553Y-17636781D02*
X5152029Y-17598686D01*
X5152029Y-17598686D02*
X5152029Y-17551067D01*
X5152029Y-17551067D02*
X5161553Y-17512971D01*
X5161553Y-17512971D02*
X5171076Y-17493924D01*
X5171076Y-17493924D02*
X5180600Y-17484400D01*
X5180600Y-17484400D02*
X5199648Y-17474876D01*
X5472029Y-17674876D02*
X5472029Y-17474876D01*
X5557743Y-17674876D02*
X5557743Y-17570114D01*
X5557743Y-17570114D02*
X5548219Y-17551067D01*
X5548219Y-17551067D02*
X5529172Y-17541543D01*
X5529172Y-17541543D02*
X5500600Y-17541543D01*
X5500600Y-17541543D02*
X5481553Y-17551067D01*
X5481553Y-17551067D02*
X5472029Y-17560590D01*
X5681552Y-17674876D02*
X5662505Y-17665352D01*
X5662505Y-17665352D02*
X5652981Y-17655829D01*
X5652981Y-17655829D02*
X5643457Y-17636781D01*
X5643457Y-17636781D02*
X5643457Y-17579638D01*
X5643457Y-17579638D02*
X5652981Y-17560590D01*
X5652981Y-17560590D02*
X5662505Y-17551067D01*
X5662505Y-17551067D02*
X5681552Y-17541543D01*
X5681552Y-17541543D02*
X5710124Y-17541543D01*
X5710124Y-17541543D02*
X5729172Y-17551067D01*
X5729172Y-17551067D02*
X5738695Y-17560590D01*
X5738695Y-17560590D02*
X5748219Y-17579638D01*
X5748219Y-17579638D02*
X5748219Y-17636781D01*
X5748219Y-17636781D02*
X5738695Y-17655829D01*
X5738695Y-17655829D02*
X5729172Y-17665352D01*
X5729172Y-17665352D02*
X5710124Y-17674876D01*
X5710124Y-17674876D02*
X5681552Y-17674876D01*
X5862505Y-17674876D02*
X5843457Y-17665352D01*
X5843457Y-17665352D02*
X5833933Y-17646305D01*
X5833933Y-17646305D02*
X5833933Y-17474876D01*
X6014886Y-17665352D02*
X5995838Y-17674876D01*
X5995838Y-17674876D02*
X5957743Y-17674876D01*
X5957743Y-17674876D02*
X5938695Y-17665352D01*
X5938695Y-17665352D02*
X5929172Y-17646305D01*
X5929172Y-17646305D02*
X5929172Y-17570114D01*
X5929172Y-17570114D02*
X5938695Y-17551067D01*
X5938695Y-17551067D02*
X5957743Y-17541543D01*
X5957743Y-17541543D02*
X5995838Y-17541543D01*
X5995838Y-17541543D02*
X6014886Y-17551067D01*
X6014886Y-17551067D02*
X6024410Y-17570114D01*
X6024410Y-17570114D02*
X6024410Y-17589162D01*
X6024410Y-17589162D02*
X5929172Y-17608210D01*
X6100600Y-17665352D02*
X6119648Y-17674876D01*
X6119648Y-17674876D02*
X6157743Y-17674876D01*
X6157743Y-17674876D02*
X6176791Y-17665352D01*
X6176791Y-17665352D02*
X6186314Y-17646305D01*
X6186314Y-17646305D02*
X6186314Y-17636781D01*
X6186314Y-17636781D02*
X6176791Y-17617733D01*
X6176791Y-17617733D02*
X6157743Y-17608210D01*
X6157743Y-17608210D02*
X6129172Y-17608210D01*
X6129172Y-17608210D02*
X6110124Y-17598686D01*
X6110124Y-17598686D02*
X6100600Y-17579638D01*
X6100600Y-17579638D02*
X6100600Y-17570114D01*
X6100600Y-17570114D02*
X6110124Y-17551067D01*
X6110124Y-17551067D02*
X6129172Y-17541543D01*
X6129172Y-17541543D02*
X6157743Y-17541543D01*
X6157743Y-17541543D02*
X6176791Y-17551067D01*
X6392029Y-17598686D02*
X6544410Y-17598686D01*
X6468219Y-17674876D02*
X6468219Y-17522495D01*
X6845362Y-17541543D02*
X6845362Y-17674876D01*
X6797743Y-17465352D02*
X6750124Y-17608210D01*
X6750124Y-17608210D02*
X6873933Y-17608210D01*
X7060600Y-17665352D02*
X7079648Y-17674876D01*
X7079648Y-17674876D02*
X7117743Y-17674876D01*
X7117743Y-17674876D02*
X7136791Y-17665352D01*
X7136791Y-17665352D02*
X7146314Y-17646305D01*
X7146314Y-17646305D02*
X7146314Y-17636781D01*
X7146314Y-17636781D02*
X7136791Y-17617733D01*
X7136791Y-17617733D02*
X7117743Y-17608210D01*
X7117743Y-17608210D02*
X7089172Y-17608210D01*
X7089172Y-17608210D02*
X7070124Y-17598686D01*
X7070124Y-17598686D02*
X7060600Y-17579638D01*
X7060600Y-17579638D02*
X7060600Y-17570114D01*
X7060600Y-17570114D02*
X7070124Y-17551067D01*
X7070124Y-17551067D02*
X7089172Y-17541543D01*
X7089172Y-17541543D02*
X7117743Y-17541543D01*
X7117743Y-17541543D02*
X7136791Y-17551067D01*
X7260600Y-17674876D02*
X7241553Y-17665352D01*
X7241553Y-17665352D02*
X7232029Y-17646305D01*
X7232029Y-17646305D02*
X7232029Y-17474876D01*
X7365362Y-17674876D02*
X7346314Y-17665352D01*
X7346314Y-17665352D02*
X7336791Y-17655829D01*
X7336791Y-17655829D02*
X7327267Y-17636781D01*
X7327267Y-17636781D02*
X7327267Y-17579638D01*
X7327267Y-17579638D02*
X7336791Y-17560590D01*
X7336791Y-17560590D02*
X7346314Y-17551067D01*
X7346314Y-17551067D02*
X7365362Y-17541543D01*
X7365362Y-17541543D02*
X7393934Y-17541543D01*
X7393934Y-17541543D02*
X7412981Y-17551067D01*
X7412981Y-17551067D02*
X7422505Y-17560590D01*
X7422505Y-17560590D02*
X7432029Y-17579638D01*
X7432029Y-17579638D02*
X7432029Y-17636781D01*
X7432029Y-17636781D02*
X7422505Y-17655829D01*
X7422505Y-17655829D02*
X7412981Y-17665352D01*
X7412981Y-17665352D02*
X7393934Y-17674876D01*
X7393934Y-17674876D02*
X7365362Y-17674876D01*
X7489172Y-17541543D02*
X7565362Y-17541543D01*
X7517743Y-17474876D02*
X7517743Y-17646305D01*
X7517743Y-17646305D02*
X7527267Y-17665352D01*
X7527267Y-17665352D02*
X7546314Y-17674876D01*
X7546314Y-17674876D02*
X7565362Y-17674876D01*
X7622505Y-17665352D02*
X7641553Y-17674876D01*
X7641553Y-17674876D02*
X7679648Y-17674876D01*
X7679648Y-17674876D02*
X7698695Y-17665352D01*
X7698695Y-17665352D02*
X7708219Y-17646305D01*
X7708219Y-17646305D02*
X7708219Y-17636781D01*
X7708219Y-17636781D02*
X7698695Y-17617733D01*
X7698695Y-17617733D02*
X7679648Y-17608210D01*
X7679648Y-17608210D02*
X7651076Y-17608210D01*
X7651076Y-17608210D02*
X7632029Y-17598686D01*
X7632029Y-17598686D02*
X7622505Y-17579638D01*
X7622505Y-17579638D02*
X7622505Y-17570114D01*
X7622505Y-17570114D02*
X7632029Y-17551067D01*
X7632029Y-17551067D02*
X7651076Y-17541543D01*
X7651076Y-17541543D02*
X7679648Y-17541543D01*
X7679648Y-17541543D02*
X7698695Y-17551067D01*
X7774886Y-17751067D02*
X7784410Y-17741543D01*
X7784410Y-17741543D02*
X7803457Y-17712971D01*
X7803457Y-17712971D02*
X7812981Y-17693924D01*
X7812981Y-17693924D02*
X7822505Y-17665352D01*
X7822505Y-17665352D02*
X7832029Y-17617733D01*
X7832029Y-17617733D02*
X7832029Y-17579638D01*
X7832029Y-17579638D02*
X7822505Y-17532019D01*
X7822505Y-17532019D02*
X7812981Y-17503448D01*
X7812981Y-17503448D02*
X7803457Y-17484400D01*
X7803457Y-17484400D02*
X7784410Y-17455829D01*
X7784410Y-17455829D02*
X7774886Y-17446305D01*
D16*
X1500600Y-17805400D02*
X1620600Y-17925400D01*
X1620600Y-17805400D02*
X1500600Y-17925400D01*
X1620600Y-17865400D02*
G75*
G03*
X1620600Y-17865400I-60000J0D01*
G01*
D11*
X1972981Y-17938876D02*
X1858695Y-17938876D01*
X1915838Y-17938876D02*
X1915838Y-17738876D01*
X1915838Y-17738876D02*
X1896790Y-17767448D01*
X1896790Y-17767448D02*
X1877743Y-17786495D01*
X1877743Y-17786495D02*
X1858695Y-17796019D01*
X2058695Y-17919829D02*
X2068219Y-17929352D01*
X2068219Y-17929352D02*
X2058695Y-17938876D01*
X2058695Y-17938876D02*
X2049171Y-17929352D01*
X2049171Y-17929352D02*
X2058695Y-17919829D01*
X2058695Y-17919829D02*
X2058695Y-17938876D01*
X2144410Y-17757924D02*
X2153933Y-17748400D01*
X2153933Y-17748400D02*
X2172981Y-17738876D01*
X2172981Y-17738876D02*
X2220600Y-17738876D01*
X2220600Y-17738876D02*
X2239648Y-17748400D01*
X2239648Y-17748400D02*
X2249171Y-17757924D01*
X2249171Y-17757924D02*
X2258695Y-17776971D01*
X2258695Y-17776971D02*
X2258695Y-17796019D01*
X2258695Y-17796019D02*
X2249171Y-17824590D01*
X2249171Y-17824590D02*
X2134886Y-17938876D01*
X2134886Y-17938876D02*
X2258695Y-17938876D01*
X2382505Y-17738876D02*
X2401552Y-17738876D01*
X2401552Y-17738876D02*
X2420600Y-17748400D01*
X2420600Y-17748400D02*
X2430124Y-17757924D01*
X2430124Y-17757924D02*
X2439648Y-17776971D01*
X2439648Y-17776971D02*
X2449171Y-17815067D01*
X2449171Y-17815067D02*
X2449171Y-17862686D01*
X2449171Y-17862686D02*
X2439648Y-17900781D01*
X2439648Y-17900781D02*
X2430124Y-17919829D01*
X2430124Y-17919829D02*
X2420600Y-17929352D01*
X2420600Y-17929352D02*
X2401552Y-17938876D01*
X2401552Y-17938876D02*
X2382505Y-17938876D01*
X2382505Y-17938876D02*
X2363457Y-17929352D01*
X2363457Y-17929352D02*
X2353933Y-17919829D01*
X2353933Y-17919829D02*
X2344410Y-17900781D01*
X2344410Y-17900781D02*
X2334886Y-17862686D01*
X2334886Y-17862686D02*
X2334886Y-17815067D01*
X2334886Y-17815067D02*
X2344410Y-17776971D01*
X2344410Y-17776971D02*
X2353933Y-17757924D01*
X2353933Y-17757924D02*
X2363457Y-17748400D01*
X2363457Y-17748400D02*
X2382505Y-17738876D01*
X2572981Y-17738876D02*
X2592029Y-17738876D01*
X2592029Y-17738876D02*
X2611076Y-17748400D01*
X2611076Y-17748400D02*
X2620600Y-17757924D01*
X2620600Y-17757924D02*
X2630124Y-17776971D01*
X2630124Y-17776971D02*
X2639648Y-17815067D01*
X2639648Y-17815067D02*
X2639648Y-17862686D01*
X2639648Y-17862686D02*
X2630124Y-17900781D01*
X2630124Y-17900781D02*
X2620600Y-17919829D01*
X2620600Y-17919829D02*
X2611076Y-17929352D01*
X2611076Y-17929352D02*
X2592029Y-17938876D01*
X2592029Y-17938876D02*
X2572981Y-17938876D01*
X2572981Y-17938876D02*
X2553933Y-17929352D01*
X2553933Y-17929352D02*
X2544410Y-17919829D01*
X2544410Y-17919829D02*
X2534886Y-17900781D01*
X2534886Y-17900781D02*
X2525362Y-17862686D01*
X2525362Y-17862686D02*
X2525362Y-17815067D01*
X2525362Y-17815067D02*
X2534886Y-17776971D01*
X2534886Y-17776971D02*
X2544410Y-17757924D01*
X2544410Y-17757924D02*
X2553933Y-17748400D01*
X2553933Y-17748400D02*
X2572981Y-17738876D01*
X2725362Y-17938876D02*
X2725362Y-17805543D01*
X2725362Y-17824590D02*
X2734886Y-17815067D01*
X2734886Y-17815067D02*
X2753933Y-17805543D01*
X2753933Y-17805543D02*
X2782505Y-17805543D01*
X2782505Y-17805543D02*
X2801552Y-17815067D01*
X2801552Y-17815067D02*
X2811076Y-17834114D01*
X2811076Y-17834114D02*
X2811076Y-17938876D01*
X2811076Y-17834114D02*
X2820600Y-17815067D01*
X2820600Y-17815067D02*
X2839648Y-17805543D01*
X2839648Y-17805543D02*
X2868219Y-17805543D01*
X2868219Y-17805543D02*
X2887267Y-17815067D01*
X2887267Y-17815067D02*
X2896790Y-17834114D01*
X2896790Y-17834114D02*
X2896790Y-17938876D01*
X2992029Y-17938876D02*
X2992029Y-17805543D01*
X2992029Y-17824590D02*
X3001552Y-17815067D01*
X3001552Y-17815067D02*
X3020600Y-17805543D01*
X3020600Y-17805543D02*
X3049171Y-17805543D01*
X3049171Y-17805543D02*
X3068219Y-17815067D01*
X3068219Y-17815067D02*
X3077743Y-17834114D01*
X3077743Y-17834114D02*
X3077743Y-17938876D01*
X3077743Y-17834114D02*
X3087267Y-17815067D01*
X3087267Y-17815067D02*
X3106314Y-17805543D01*
X3106314Y-17805543D02*
X3134886Y-17805543D01*
X3134886Y-17805543D02*
X3153933Y-17815067D01*
X3153933Y-17815067D02*
X3163457Y-17834114D01*
X3163457Y-17834114D02*
X3163457Y-17938876D01*
X3521552Y-17729352D02*
X3350124Y-17986495D01*
X3746314Y-17738876D02*
X3765362Y-17738876D01*
X3765362Y-17738876D02*
X3784410Y-17748400D01*
X3784410Y-17748400D02*
X3793933Y-17757924D01*
X3793933Y-17757924D02*
X3803457Y-17776971D01*
X3803457Y-17776971D02*
X3812981Y-17815067D01*
X3812981Y-17815067D02*
X3812981Y-17862686D01*
X3812981Y-17862686D02*
X3803457Y-17900781D01*
X3803457Y-17900781D02*
X3793933Y-17919829D01*
X3793933Y-17919829D02*
X3784410Y-17929352D01*
X3784410Y-17929352D02*
X3765362Y-17938876D01*
X3765362Y-17938876D02*
X3746314Y-17938876D01*
X3746314Y-17938876D02*
X3727267Y-17929352D01*
X3727267Y-17929352D02*
X3717743Y-17919829D01*
X3717743Y-17919829D02*
X3708219Y-17900781D01*
X3708219Y-17900781D02*
X3698695Y-17862686D01*
X3698695Y-17862686D02*
X3698695Y-17815067D01*
X3698695Y-17815067D02*
X3708219Y-17776971D01*
X3708219Y-17776971D02*
X3717743Y-17757924D01*
X3717743Y-17757924D02*
X3727267Y-17748400D01*
X3727267Y-17748400D02*
X3746314Y-17738876D01*
X3898695Y-17919829D02*
X3908219Y-17929352D01*
X3908219Y-17929352D02*
X3898695Y-17938876D01*
X3898695Y-17938876D02*
X3889171Y-17929352D01*
X3889171Y-17929352D02*
X3898695Y-17919829D01*
X3898695Y-17919829D02*
X3898695Y-17938876D01*
X4032029Y-17738876D02*
X4051076Y-17738876D01*
X4051076Y-17738876D02*
X4070124Y-17748400D01*
X4070124Y-17748400D02*
X4079648Y-17757924D01*
X4079648Y-17757924D02*
X4089171Y-17776971D01*
X4089171Y-17776971D02*
X4098695Y-17815067D01*
X4098695Y-17815067D02*
X4098695Y-17862686D01*
X4098695Y-17862686D02*
X4089171Y-17900781D01*
X4089171Y-17900781D02*
X4079648Y-17919829D01*
X4079648Y-17919829D02*
X4070124Y-17929352D01*
X4070124Y-17929352D02*
X4051076Y-17938876D01*
X4051076Y-17938876D02*
X4032029Y-17938876D01*
X4032029Y-17938876D02*
X4012981Y-17929352D01*
X4012981Y-17929352D02*
X4003457Y-17919829D01*
X4003457Y-17919829D02*
X3993933Y-17900781D01*
X3993933Y-17900781D02*
X3984410Y-17862686D01*
X3984410Y-17862686D02*
X3984410Y-17815067D01*
X3984410Y-17815067D02*
X3993933Y-17776971D01*
X3993933Y-17776971D02*
X4003457Y-17757924D01*
X4003457Y-17757924D02*
X4012981Y-17748400D01*
X4012981Y-17748400D02*
X4032029Y-17738876D01*
X4270124Y-17805543D02*
X4270124Y-17938876D01*
X4222505Y-17729352D02*
X4174886Y-17872210D01*
X4174886Y-17872210D02*
X4298695Y-17872210D01*
X4355838Y-17738876D02*
X4489172Y-17738876D01*
X4489172Y-17738876D02*
X4403457Y-17938876D01*
X4555838Y-17757924D02*
X4565362Y-17748400D01*
X4565362Y-17748400D02*
X4584410Y-17738876D01*
X4584410Y-17738876D02*
X4632029Y-17738876D01*
X4632029Y-17738876D02*
X4651076Y-17748400D01*
X4651076Y-17748400D02*
X4660600Y-17757924D01*
X4660600Y-17757924D02*
X4670124Y-17776971D01*
X4670124Y-17776971D02*
X4670124Y-17796019D01*
X4670124Y-17796019D02*
X4660600Y-17824590D01*
X4660600Y-17824590D02*
X4546314Y-17938876D01*
X4546314Y-17938876D02*
X4670124Y-17938876D01*
X4746314Y-17738876D02*
X4746314Y-17776971D01*
X4822505Y-17738876D02*
X4822505Y-17776971D01*
X5085362Y-18015067D02*
X5075838Y-18005543D01*
X5075838Y-18005543D02*
X5056791Y-17976971D01*
X5056791Y-17976971D02*
X5047267Y-17957924D01*
X5047267Y-17957924D02*
X5037743Y-17929352D01*
X5037743Y-17929352D02*
X5028219Y-17881733D01*
X5028219Y-17881733D02*
X5028219Y-17843638D01*
X5028219Y-17843638D02*
X5037743Y-17796019D01*
X5037743Y-17796019D02*
X5047267Y-17767448D01*
X5047267Y-17767448D02*
X5056791Y-17748400D01*
X5056791Y-17748400D02*
X5075838Y-17719829D01*
X5075838Y-17719829D02*
X5085362Y-17710305D01*
X5152029Y-17757924D02*
X5161553Y-17748400D01*
X5161553Y-17748400D02*
X5180600Y-17738876D01*
X5180600Y-17738876D02*
X5228219Y-17738876D01*
X5228219Y-17738876D02*
X5247267Y-17748400D01*
X5247267Y-17748400D02*
X5256791Y-17757924D01*
X5256791Y-17757924D02*
X5266314Y-17776971D01*
X5266314Y-17776971D02*
X5266314Y-17796019D01*
X5266314Y-17796019D02*
X5256791Y-17824590D01*
X5256791Y-17824590D02*
X5142505Y-17938876D01*
X5142505Y-17938876D02*
X5266314Y-17938876D01*
X5472029Y-17938876D02*
X5472029Y-17738876D01*
X5557743Y-17938876D02*
X5557743Y-17834114D01*
X5557743Y-17834114D02*
X5548219Y-17815067D01*
X5548219Y-17815067D02*
X5529172Y-17805543D01*
X5529172Y-17805543D02*
X5500600Y-17805543D01*
X5500600Y-17805543D02*
X5481553Y-17815067D01*
X5481553Y-17815067D02*
X5472029Y-17824590D01*
X5681552Y-17938876D02*
X5662505Y-17929352D01*
X5662505Y-17929352D02*
X5652981Y-17919829D01*
X5652981Y-17919829D02*
X5643457Y-17900781D01*
X5643457Y-17900781D02*
X5643457Y-17843638D01*
X5643457Y-17843638D02*
X5652981Y-17824590D01*
X5652981Y-17824590D02*
X5662505Y-17815067D01*
X5662505Y-17815067D02*
X5681552Y-17805543D01*
X5681552Y-17805543D02*
X5710124Y-17805543D01*
X5710124Y-17805543D02*
X5729172Y-17815067D01*
X5729172Y-17815067D02*
X5738695Y-17824590D01*
X5738695Y-17824590D02*
X5748219Y-17843638D01*
X5748219Y-17843638D02*
X5748219Y-17900781D01*
X5748219Y-17900781D02*
X5738695Y-17919829D01*
X5738695Y-17919829D02*
X5729172Y-17929352D01*
X5729172Y-17929352D02*
X5710124Y-17938876D01*
X5710124Y-17938876D02*
X5681552Y-17938876D01*
X5862505Y-17938876D02*
X5843457Y-17929352D01*
X5843457Y-17929352D02*
X5833933Y-17910305D01*
X5833933Y-17910305D02*
X5833933Y-17738876D01*
X6014886Y-17929352D02*
X5995838Y-17938876D01*
X5995838Y-17938876D02*
X5957743Y-17938876D01*
X5957743Y-17938876D02*
X5938695Y-17929352D01*
X5938695Y-17929352D02*
X5929172Y-17910305D01*
X5929172Y-17910305D02*
X5929172Y-17834114D01*
X5929172Y-17834114D02*
X5938695Y-17815067D01*
X5938695Y-17815067D02*
X5957743Y-17805543D01*
X5957743Y-17805543D02*
X5995838Y-17805543D01*
X5995838Y-17805543D02*
X6014886Y-17815067D01*
X6014886Y-17815067D02*
X6024410Y-17834114D01*
X6024410Y-17834114D02*
X6024410Y-17853162D01*
X6024410Y-17853162D02*
X5929172Y-17872210D01*
X6100600Y-17929352D02*
X6119648Y-17938876D01*
X6119648Y-17938876D02*
X6157743Y-17938876D01*
X6157743Y-17938876D02*
X6176791Y-17929352D01*
X6176791Y-17929352D02*
X6186314Y-17910305D01*
X6186314Y-17910305D02*
X6186314Y-17900781D01*
X6186314Y-17900781D02*
X6176791Y-17881733D01*
X6176791Y-17881733D02*
X6157743Y-17872210D01*
X6157743Y-17872210D02*
X6129172Y-17872210D01*
X6129172Y-17872210D02*
X6110124Y-17862686D01*
X6110124Y-17862686D02*
X6100600Y-17843638D01*
X6100600Y-17843638D02*
X6100600Y-17834114D01*
X6100600Y-17834114D02*
X6110124Y-17815067D01*
X6110124Y-17815067D02*
X6129172Y-17805543D01*
X6129172Y-17805543D02*
X6157743Y-17805543D01*
X6157743Y-17805543D02*
X6176791Y-17815067D01*
X6252981Y-18015067D02*
X6262505Y-18005543D01*
X6262505Y-18005543D02*
X6281553Y-17976971D01*
X6281553Y-17976971D02*
X6291076Y-17957924D01*
X6291076Y-17957924D02*
X6300600Y-17929352D01*
X6300600Y-17929352D02*
X6310124Y-17881733D01*
X6310124Y-17881733D02*
X6310124Y-17843638D01*
X6310124Y-17843638D02*
X6300600Y-17796019D01*
X6300600Y-17796019D02*
X6291076Y-17767448D01*
X6291076Y-17767448D02*
X6281553Y-17748400D01*
X6281553Y-17748400D02*
X6262505Y-17719829D01*
X6262505Y-17719829D02*
X6252981Y-17710305D01*
M02*
